<svg width="60" height="60" viewBox="0 0 60 60" fill="none" xmlns="http://www.w3.org/2000/svg">
<circle cx="30" cy="30" r="30" fill="#FF7BB0" fill-opacity="0.1"/>
<path d="M40.6256 28.7495H38.7506V23.7495C38.7506 22.3745 37.6256 21.2495 36.2506 21.2495H31.2506V19.3745C31.2506 17.6495 29.8506 16.2495 28.1256 16.2495C26.4006 16.2495 25.0006 17.6495 25.0006 19.3745V21.2495H20.0006C18.6256 21.2495 17.5131 22.3745 17.5131 23.7495V28.4995H19.3756C21.2381 28.4995 22.7506 30.012 22.7506 31.8745C22.7506 33.737 21.2381 35.2495 19.3756 35.2495H17.5006V39.9995C17.5006 41.3745 18.6256 42.4995 20.0006 42.4995H24.7506V40.6245C24.7506 38.762 26.2631 37.2495 28.1256 37.2495C29.9881 37.2495 31.5006 38.762 31.5006 40.6245V42.4995H36.2506C37.6256 42.4995 38.7506 41.3745 38.7506 39.9995V34.9995H40.6256C42.3506 34.9995 43.7506 33.5995 43.7506 31.8745C43.7506 30.1495 42.3506 28.7495 40.6256 28.7495Z" fill="#FE7BAF"/>
</svg>
