<svg width="60" height="60" viewBox="0 0 60 60" fill="none" xmlns="http://www.w3.org/2000/svg">
<circle cx="30" cy="30" r="30" fill="#FBC565" fill-opacity="0.1"/>
<path d="M29.985 15C21.705 15 15 21.72 15 30C15 38.28 21.705 45 29.985 45C38.28 45 45 38.28 45 30C45 21.72 38.28 15 29.985 15ZM40.38 24H35.955C35.475 22.125 34.785 20.325 33.885 18.66C36.645 19.605 38.94 21.525 40.38 24ZM30 18.06C31.245 19.86 32.22 21.855 32.865 24H27.135C27.78 21.855 28.755 19.86 30 18.06ZM18.39 33C18.15 32.04 18 31.035 18 30C18 28.965 18.15 27.96 18.39 27H23.46C23.34 27.99 23.25 28.98 23.25 30C23.25 31.02 23.34 32.01 23.46 33H18.39ZM19.62 36H24.045C24.525 37.875 25.215 39.675 26.115 41.34C23.355 40.395 21.06 38.49 19.62 36ZM24.045 24H19.62C21.06 21.51 23.355 19.605 26.115 18.66C25.215 20.325 24.525 22.125 24.045 24ZM30 41.94C28.755 40.14 27.78 38.145 27.135 36H32.865C32.22 38.145 31.245 40.14 30 41.94ZM33.51 33H26.49C26.355 32.01 26.25 31.02 26.25 30C26.25 28.98 26.355 27.975 26.49 27H33.51C33.645 27.975 33.75 28.98 33.75 30C33.75 31.02 33.645 32.01 33.51 33ZM33.885 41.34C34.785 39.675 35.475 37.875 35.955 36H40.38C38.94 38.475 36.645 40.395 33.885 41.34ZM36.54 33C36.66 32.01 36.75 31.02 36.75 30C36.75 28.98 36.66 27.99 36.54 27H41.61C41.85 27.96 42 28.965 42 30C42 31.035 41.85 32.04 41.61 33H36.54Z" fill="#FAC465"/>
</svg>
