<svg width="127" height="66" viewBox="0 0 127 66" fill="none" xmlns="http://www.w3.org/2000/svg">
<path d="M20.2696 0H9.96652L0.808228 27.5591H6.32773L8.86262 19.9892H21.537L24.1946 27.5591H29.7141L20.2696 0ZM10.3345 15.6129L15.1181 1.37992L20.0243 15.6129H10.3345ZM37.2677 27.5985V0H32.1979V27.5985H37.2677ZM48.4436 7.25446V0H43.3738V7.25446H40.3074V11.0788H40.7981C40.7981 11.0788 43.3738 11.0788 43.3738 13.7992V22.5913C43.3738 25.3906 45.7043 27.5985 48.5663 27.5985H52.0415V23.2616H50.0381C49.1795 23.2616 48.4436 22.5519 48.4436 21.7239V14.1541C48.4436 11.2365 42.0246 11.0788 40.9616 11.0788H52.0415V7.25446H48.4436ZM16.917 49.075C16.917 49.075 11.4384 47.8528 11.2748 47.8133C9.43501 47.3402 7.88137 46.4729 7.88137 44.6592C7.88137 42.6879 10.3754 41.0714 13.5235 41.0714C17.3667 41.0714 19.5337 43.3582 19.5337 45.6055H24.8896C24.8896 40.7954 21.0055 36.7345 13.5235 36.7345C7.18632 36.7345 2.52541 40.0069 2.52541 44.6987C2.52541 49.5481 5.71446 51.8743 10.3754 52.8994C10.3754 52.8994 15.8949 54.1216 16.0175 54.161C18.1436 54.6735 19.9016 55.6986 19.9016 57.7094C19.9016 60.1932 16.7126 61.7703 13.36 61.4943C8.82173 61.1395 7.14544 58.2613 7.14544 56.2112H1.83036C1.83036 60.7058 5.71446 65.6735 13.4418 65.8706C19.2475 65.9889 25.2576 62.9137 25.2576 57.7094C25.2576 52.8994 21.8232 50.2184 16.917 49.075ZM38.2856 61.2577C35.0557 61.2577 33.3385 58.3008 33.3385 54.9101C33.3385 51.48 35.4645 48.5624 38.2447 48.5624C40.4525 48.5624 42.2106 50.1395 42.8239 52.3079H48.3025C47.403 47.2219 43.1918 44.2255 38.2038 44.2255C32.6026 44.2255 27.7372 48.9567 28.0234 55.5409C28.2687 61.6914 32.8479 65.5552 38.3265 65.5552C43.4371 65.5552 47.2395 62.2828 48.2207 57.8277H42.5785C42.1288 59.6018 40.4934 61.2577 38.2856 61.2577ZM56.8318 53.1359V53.2542V53.1359ZM62.6375 44.3044C59.5303 44.541 56.8727 47.6556 56.8318 53.1359C56.8727 50.4155 58.1402 48.4442 61.043 48.4442C64.2321 48.4442 65.2542 50.7309 65.2542 53.2542V65.1215H70.3648V51.5983C70.3648 46.8671 66.3172 44.0284 62.6375 44.3044ZM51.7621 37.5231V65.1215H56.8318V37.5231H51.7621ZM84.1255 44.2255C78.6878 44.2255 73.6998 48.1288 73.6998 54.9101C73.6998 61.6914 78.606 65.5158 84.1255 65.5552C89.6859 65.5158 94.5922 61.652 94.5922 54.9101C94.5922 48.1288 89.5633 44.2255 84.1255 44.2255ZM84.1255 61.2183C81.4271 61.2183 78.8105 59.1681 78.8105 54.9101C78.8105 50.8886 81.3862 48.6019 84.1255 48.5624C86.9057 48.6019 89.4815 50.928 89.4815 54.9101C89.4815 59.1681 86.8649 61.2183 84.1255 61.2183ZM107.682 44.2255C102.245 44.2255 97.2567 48.1288 97.2567 54.9101C97.2567 61.6914 102.163 65.5158 107.682 65.5552C113.243 65.5158 118.149 61.652 118.149 54.9101C118.149 48.1288 113.12 44.2255 107.682 44.2255ZM107.682 61.2183C104.984 61.2183 102.367 59.1681 102.367 54.9101C102.367 50.8886 104.943 48.6019 107.682 48.5624C110.463 48.6019 113.038 50.928 113.038 54.9101C113.038 59.1681 110.422 61.2183 107.682 61.2183ZM126.824 65.1215V37.5231H121.754V65.1215H126.824ZM126.884 21.5771H57.5203V27.5591H126.884V21.5771Z" fill="white"/>
</svg>
