<svg width="128" height="37" viewBox="0 0 128 37" fill="none" xmlns="http://www.w3.org/2000/svg">
<path fill-rule="evenodd" clip-rule="evenodd" d="M18.3492 0.0966946C18.1723 0.19767 17.7196 0.639873 17.3933 1.03048C16.9202 1.59677 16.7663 1.77751 16.629 1.9285C16.5496 2.01555 16.3193 2.28872 16.1166 2.5353C15.914 2.78188 15.6607 3.07879 15.5539 3.19465C15.4469 3.31082 15.265 3.52448 15.1493 3.66945C15.0333 3.81474 14.8756 3.99992 14.7985 4.08127C14.7217 4.1623 14.6586 4.23954 14.6586 4.25252C14.6586 4.26549 14.6166 4.31836 14.5656 4.36995C14.5146 4.42155 14.3652 4.59184 14.2336 4.74821C14.1023 4.90458 13.9529 5.07615 13.9019 5.12932C13.8506 5.1825 13.8089 5.23536 13.8089 5.24708C13.8089 5.25879 13.7378 5.34805 13.6512 5.44555L13.4931 5.62281L12.7084 5.55475C12.2769 5.5174 11.4995 5.45188 10.9811 5.40914C10.4627 5.36641 9.61426 5.29614 9.09587 5.25309C6.30127 5.02139 6.32739 5.0217 5.90618 5.23695C5.72616 5.32906 5.62866 5.42592 5.53594 5.60476C5.31928 6.02323 5.31897 5.99727 5.55219 8.77362C5.59553 9.28863 5.66626 10.1316 5.70959 10.6466C5.75261 11.1616 5.8192 11.9336 5.85743 12.3625C5.92593 13.1266 5.9253 13.1431 5.81888 13.2159C5.7593 13.2564 5.62452 13.3688 5.51938 13.465C5.32215 13.6464 5.27149 13.6891 4.7805 14.0886C4.62024 14.219 4.3937 14.4124 4.27677 14.5185C4.16015 14.6245 3.94508 14.8056 3.79884 14.9205C3.65291 15.0354 3.46652 15.1921 3.38463 15.2687C3.30275 15.3453 3.21322 15.4079 3.1855 15.4079C3.15778 15.4079 3.13484 15.4257 3.13484 15.4475C3.13452 15.469 2.94367 15.6412 2.71044 15.8299C2.47721 16.0185 2.28604 16.1907 2.28604 16.2123C2.28572 16.2341 2.25163 16.2518 2.21021 16.2518C2.16879 16.2518 2.12705 16.2733 2.11749 16.2999C2.10761 16.3262 1.9209 16.4962 1.70265 16.6772C1.48408 16.8586 1.27793 17.033 1.24384 17.0647C1.21007 17.0963 1.02304 17.2625 0.828361 17.4338C0.0480652 18.1194 0.0413741 18.8262 0.808925 19.5109C0.930319 19.6191 1.06701 19.7451 1.11321 19.791C1.15909 19.8369 1.39996 20.0382 1.64817 20.2386C1.89637 20.4387 2.11144 20.6162 2.12609 20.633C2.14075 20.6498 2.40361 20.8726 2.71044 21.1281C3.01695 21.3835 3.27599 21.6133 3.28554 21.639C3.29542 21.6649 3.33525 21.6858 3.37412 21.6858C3.41299 21.6858 3.45282 21.7067 3.4627 21.7327C3.47225 21.7583 3.6596 21.9264 3.87849 22.1062C4.0977 22.286 4.41791 22.5557 4.59029 22.7057C4.76266 22.8557 4.96785 23.0257 5.04623 23.084C5.12461 23.1419 5.35561 23.3375 5.5592 23.5186L5.92944 23.8478L5.86253 24.4153C5.82557 24.7277 5.79498 25.1136 5.79434 25.2731C5.79371 25.4327 5.75707 25.9312 5.71278 26.381C5.66849 26.8308 5.59712 27.6263 5.55379 28.1486C5.51077 28.6709 5.45055 29.3948 5.41997 29.7575C5.26289 31.6264 5.58947 32.004 7.2431 31.8663C7.59772 31.8369 8.31812 31.7774 8.84384 31.734C9.72928 31.6609 11.4113 31.5165 12.8393 31.3912C13.4211 31.3402 13.6496 31.3741 13.6496 31.5111C13.6496 31.5333 13.6913 31.5944 13.7426 31.6469C13.7936 31.6995 13.943 31.8698 14.0743 32.0249C14.2059 32.1803 14.361 32.3607 14.4197 32.4256C14.5637 32.5855 14.8543 32.9321 15.191 33.3448C15.3449 33.5335 15.4988 33.7117 15.5335 33.7405C15.5683 33.7696 15.7604 33.9953 15.9611 34.2419C16.3008 34.6594 16.4763 34.8642 16.679 35.0782C16.7239 35.126 16.8673 35.2957 16.9973 35.4552C17.2684 35.7882 17.2331 35.7474 17.6855 36.2503C18.4276 37.0759 19.3739 37.2107 19.8132 36.5536C19.8486 36.5007 20.2077 36.081 20.3644 35.9088C20.4243 35.843 20.5808 35.6622 20.7124 35.5068C20.8436 35.3517 20.9931 35.1814 21.044 35.1289C21.0953 35.0763 21.1371 35.0212 21.1371 35.0067C21.1371 34.9921 21.1788 34.9374 21.2301 34.8848C21.2811 34.8323 21.4305 34.6616 21.5618 34.5062C21.6934 34.3505 21.8428 34.1865 21.8938 34.1416C21.9448 34.0969 21.9868 34.0298 21.9868 33.9928C21.9868 33.9554 22.0047 33.9251 22.0267 33.9251C22.0483 33.9251 22.186 33.7776 22.3319 33.5974C22.4778 33.4177 22.6572 33.2078 22.7302 33.1312C22.8662 32.9884 22.9032 32.9451 23.3142 32.4472C23.4455 32.2882 23.6194 32.0866 23.701 31.9996C23.7826 31.9125 23.9381 31.7264 24.0464 31.5859L24.2436 31.3301L24.509 31.3614C24.6553 31.3785 24.9777 31.4057 25.2259 31.4216C25.4741 31.4371 26.1671 31.4953 26.7661 31.5507C27.3648 31.6061 28.3207 31.689 28.89 31.7349C29.4597 31.7812 30.2011 31.8426 30.5376 31.8717C32.2903 32.023 32.5264 31.6118 32.2667 28.8608C32.2215 28.3819 32.1479 27.5509 32.1033 27.0141C32.0587 26.4773 31.9727 25.5428 31.9121 24.9373C31.8516 24.3318 31.8219 23.8199 31.8462 23.7997C31.8707 23.7794 32.0217 23.6575 32.182 23.529C32.3422 23.4002 32.5216 23.246 32.5803 23.1862C32.6389 23.1264 32.8543 22.9456 33.0588 22.7842C33.2631 22.6228 33.4912 22.4341 33.5657 22.3651C33.64 22.2961 33.8312 22.1331 33.9905 22.0027C34.1498 21.8723 34.3068 21.7415 34.3397 21.7124C34.3725 21.6833 34.5136 21.5646 34.6535 21.4484C34.7931 21.3323 34.9336 21.2135 34.9654 21.1844C34.9973 21.1553 35.155 21.0258 35.3156 20.8967C35.4762 20.7675 35.646 20.6251 35.6928 20.5805C35.8407 20.4393 36.0755 20.2427 36.3775 20.0079C37.8891 18.8329 37.9002 18.2087 36.4308 16.997C36.2119 16.8162 35.9729 16.6152 35.8996 16.5497C35.8267 16.4845 35.5648 16.2661 35.3178 16.0644C35.0709 15.8628 34.808 15.6415 34.7338 15.5725C34.6596 15.5035 34.4435 15.3225 34.2536 15.1705C34.0637 15.0183 33.8474 14.8372 33.7732 14.7682C33.6553 14.659 33.3994 14.4447 32.9311 14.0626C32.8597 14.0044 32.7577 13.9155 32.7045 13.8648C32.651 13.8138 32.5968 13.7724 32.5841 13.7724C32.5713 13.7724 32.4579 13.6803 32.3321 13.5679C32.2059 13.4552 32.0348 13.3061 31.9513 13.2362L31.7996 13.1089L31.9092 12.0558C31.9691 11.4765 32.0561 10.5279 32.1023 9.94766C32.1485 9.36713 32.2231 8.51248 32.268 8.04843C32.5388 5.25467 32.3187 4.93181 30.2709 5.11825C29.9641 5.1461 29.2472 5.20593 28.6778 5.25119C27.65 5.33254 26.5609 5.42434 25.0504 5.55697L24.2643 5.62597L24.0164 5.33349C23.8801 5.17269 23.716 4.98182 23.6519 4.90933C23.5876 4.83684 23.4359 4.65863 23.3142 4.51366C23.0233 4.16642 22.6639 3.74574 22.5973 3.67389C22.568 3.64255 22.4364 3.4865 22.3051 3.32759C22.1739 3.16838 22.0187 2.98035 21.9601 2.90945C21.9018 2.83886 21.818 2.742 21.7743 2.69452C21.7304 2.64672 21.564 2.4549 21.4041 2.26814C21.2445 2.08139 21.0606 1.8693 20.9959 1.79682C20.9313 1.72433 20.7308 1.48693 20.5505 1.26915C20.3699 1.05169 20.201 0.865564 20.1752 0.855752C20.1494 0.846256 20.128 0.818084 20.128 0.793394C20.128 0.720907 19.6259 0.229957 19.4312 0.111888C19.1964 -0.0302369 18.5865 -0.0387834 18.3492 0.0966946ZM19.2314 5.05431C19.4108 5.27936 19.5784 5.47119 19.6039 5.481C19.6294 5.49049 19.6501 5.52025 19.6501 5.54684C19.6501 5.57343 19.6922 5.63863 19.7431 5.69181C19.9671 5.92478 20.1812 6.18941 20.1812 6.23341C20.1812 6.25968 20.2007 6.28089 20.2242 6.28089C20.2478 6.28089 20.3839 6.43916 20.5266 6.63225C21.0517 7.34287 21.1798 7.42581 21.4359 7.2229C21.4691 7.19663 21.7202 7.06052 21.9935 6.92029C22.2672 6.78007 22.6225 6.58793 22.7827 6.49329C22.9433 6.39896 23.1224 6.3002 23.181 6.27424C23.2396 6.24829 23.4789 6.12167 23.7125 5.99316C23.9463 5.86464 24.1515 5.75797 24.1687 5.75639C24.199 5.75354 24.2538 5.91276 24.4118 6.46575C24.5696 7.01715 24.6591 7.31913 24.7483 7.5999C24.799 7.75944 24.8761 8.00887 24.9194 8.15384C24.9631 8.29882 25.0414 8.55299 25.0937 8.71886L25.1886 9.01989L25.6188 8.99203C25.8555 8.97652 26.299 8.92936 26.6049 8.88726C26.9104 8.84484 27.448 8.78755 27.7997 8.75938C28.1511 8.73152 28.5064 8.69417 28.5889 8.67676L28.739 8.64479L28.7068 9.08509C28.6775 9.4852 28.6453 9.80743 28.4675 11.4775C28.3837 12.2612 28.3643 12.202 28.7441 12.3144C28.9267 12.3682 29.2074 12.4543 29.3679 12.505C29.7175 12.6158 30.0488 12.7129 30.8285 12.9339C31.1497 13.0247 31.4778 13.1225 31.5575 13.1517L31.7025 13.2042L31.4826 13.6068C31.3619 13.8284 31.1844 14.1522 31.0888 14.3263C30.9929 14.5004 30.8527 14.7616 30.7766 14.9065C30.7007 15.0518 30.5844 15.2655 30.5185 15.3813C30.4525 15.4975 30.32 15.7343 30.2238 15.9077L30.0488 16.223L30.1995 16.3484C30.2827 16.4174 30.4012 16.5161 30.4634 16.568C30.5255 16.6196 30.7396 16.7893 30.9394 16.945C31.1388 17.1005 31.3628 17.2841 31.4371 17.3524C31.5113 17.4208 31.6735 17.5493 31.7974 17.6383C31.9217 17.7272 32.0233 17.8193 32.0233 17.8437C32.0233 17.8677 32.059 17.8874 32.103 17.8874C32.1466 17.8874 32.1826 17.9064 32.1826 17.9298C32.1826 17.9532 32.325 18.0776 32.499 18.2068C32.881 18.4897 32.8763 18.4559 32.5669 18.6901C32.428 18.7955 32.2546 18.9326 32.182 18.9946C31.885 19.2475 31.8213 19.2998 31.439 19.6027C31.2201 19.7765 31.0168 19.9445 30.9878 19.9762C30.9585 20.0082 30.7839 20.1468 30.5997 20.2848C30.0179 20.721 30.0291 20.6947 30.2528 21.1009C30.3582 21.292 30.507 21.5671 30.5835 21.7121C30.6596 21.8574 30.7355 21.9878 30.7517 22.0024C30.768 22.0169 30.8291 22.1236 30.8874 22.2398C31.0898 22.6418 31.5594 23.5062 31.6317 23.6101C31.7391 23.7633 31.7248 23.7876 31.5056 23.8272C31.396 23.8468 31.2226 23.8927 31.1203 23.9294C31.0184 23.9658 30.7434 24.0472 30.5099 24.1102C30.276 24.1732 30.0014 24.2564 29.8991 24.295C29.7968 24.3337 29.5578 24.4061 29.3679 24.4562C29.178 24.5062 28.9327 24.5799 28.8228 24.6198C28.7125 24.66 28.5752 24.6929 28.5172 24.6929C28.3933 24.6929 28.3895 24.7483 28.4637 25.4479C28.5994 26.7248 28.6772 27.4987 28.7078 27.8795L28.7412 28.2964L28.4573 28.2603C28.3012 28.2404 27.9103 28.2024 27.5891 28.1761C27.2679 28.1495 26.8257 28.1043 26.6068 28.0754C26.3876 28.0466 25.9785 28.0077 25.6975 27.989L25.1864 27.9548L25.1208 28.1308C25.0844 28.2277 25.036 28.3898 25.0131 28.4914C24.9898 28.593 24.9462 28.7471 24.9159 28.8342C24.8853 28.9212 24.7747 29.2773 24.6696 29.6255C24.5648 29.9737 24.4466 30.3656 24.4071 30.496C24.3676 30.6267 24.3073 30.8357 24.2732 30.9604C24.2012 31.2234 24.1713 31.2231 23.686 30.9531C23.5254 30.8635 23.3104 30.7464 23.2081 30.6923C23.1058 30.6385 22.8551 30.5027 22.6505 30.3912C22.446 30.2795 22.0996 30.0972 21.8804 29.9861C21.6615 29.875 21.4697 29.7677 21.4547 29.7477C21.2645 29.498 21.1301 29.5746 20.6024 30.2323C20.3581 30.5368 20.1443 30.798 20.1271 30.8125C20.1102 30.8271 19.9541 31.0164 19.7801 31.2329C19.6064 31.4494 19.4283 31.6637 19.3847 31.7093C19.3407 31.7549 19.2212 31.9033 19.1193 32.0394C18.8663 32.3756 18.8819 32.3816 18.4024 31.7622C18.2561 31.5738 18.101 31.3833 18.057 31.3393C18.0134 31.2953 17.8461 31.0933 17.6858 30.8907C17.5252 30.6882 17.358 30.4824 17.314 30.4333C17.27 30.3843 17.1145 30.1902 16.9686 30.0019C16.8224 29.8136 16.672 29.6464 16.6341 29.6303C16.5751 29.605 16.0634 29.8284 15.986 29.9133C15.9716 29.9291 15.8279 30.0108 15.6674 30.0946C15.5068 30.1785 15.1961 30.3431 14.9772 30.4606C14.758 30.5783 14.4834 30.722 14.3664 30.7799C14.2495 30.8382 14.1421 30.899 14.1275 30.9151C14.1128 30.9312 13.9758 31.0082 13.8232 31.0864L13.5457 31.2278L13.4848 31.0072C13.4511 30.8857 13.394 30.6913 13.3577 30.5751C13.2844 30.3419 13.2 30.0557 12.9601 29.2299C12.8715 28.9254 12.7654 28.5692 12.7243 28.4385C12.6832 28.3081 12.6344 28.1337 12.6163 28.0514C12.594 27.9504 12.5583 27.9109 12.5076 27.9302C12.4659 27.946 12.246 27.9729 12.0185 27.9897C11.7911 28.0068 11.2943 28.0539 10.9149 28.0951C9.64038 28.2328 9.02163 28.2901 9.00379 28.272C8.99391 28.2622 9.02067 27.9454 9.06305 27.568C9.37498 24.8043 9.3823 24.6929 9.25358 24.6929C9.1991 24.6929 9.04903 24.66 8.91967 24.6201C8.79031 24.5799 8.54115 24.5049 8.36591 24.453C8.19067 24.4014 7.9157 24.3178 7.75512 24.2675C7.59454 24.2175 7.31957 24.1349 7.14433 24.0839C6.96909 24.0333 6.73586 23.9595 6.62562 23.9203C6.51538 23.881 6.38251 23.8487 6.33026 23.8487C6.13718 23.8487 6.04924 23.7319 6.13176 23.585C6.17254 23.5126 6.2694 23.3343 6.34715 23.1894C6.42457 23.0444 6.54246 22.8307 6.60905 22.7146C6.67532 22.5984 6.83782 22.3018 6.97005 22.0552C7.42185 21.212 7.48939 21.0901 7.53846 21.0315C7.7102 20.8261 7.66591 20.7011 7.32148 20.4197C7.13636 20.2687 6.92544 20.0943 6.85248 20.0322C6.77951 19.9699 6.55234 19.7901 6.34778 19.6324C6.14355 19.4745 5.94505 19.3146 5.90682 19.2767C5.86858 19.239 5.68952 19.0962 5.50854 18.9598C4.98824 18.567 4.89998 18.4698 4.99748 18.3967C5.31036 18.1618 5.77332 17.8025 5.82143 17.7573C5.85297 17.7272 5.98233 17.6196 6.10882 17.518C6.23531 17.4164 6.36467 17.3094 6.39653 17.2799C6.42808 17.2505 6.56158 17.1438 6.69317 17.0428C6.82444 16.9422 6.97992 16.8156 7.03823 16.7621C7.09654 16.7083 7.24565 16.5918 7.36927 16.5025C7.66686 16.2885 7.68248 16.2091 7.49417 15.8745C7.40687 15.7194 7.27496 15.4738 7.20073 15.3288C7.12681 15.1835 6.94583 14.8511 6.79863 14.59C6.65175 14.3289 6.49467 14.044 6.45006 13.9569C6.40514 13.8699 6.29967 13.6695 6.21556 13.5112C6.04159 13.1843 6.04542 13.1602 6.28215 13.1137C6.37678 13.095 6.56158 13.0459 6.69317 13.0045C6.82444 12.963 7.18288 12.8573 7.48971 12.7696C7.79622 12.6822 8.19067 12.5654 8.36591 12.5103C8.54115 12.4553 8.83428 12.3663 9.01749 12.3131L9.35076 12.216L9.32113 11.8469C9.28512 11.4025 9.15863 10.1844 9.05795 9.3149C9.01749 8.96703 8.98849 8.67866 8.99391 8.67423C9.00761 8.66188 9.89496 8.75051 10.9149 8.86542C11.4113 8.92176 11.9902 8.98032 12.2014 8.99615L12.5854 9.02495L12.6179 8.87966C12.636 8.79958 12.6813 8.63909 12.7186 8.52324C12.7558 8.40707 12.8243 8.18138 12.8709 8.02184C13.0283 7.48088 13.2825 6.62496 13.3567 6.38661C13.3972 6.25588 13.4456 6.07229 13.4644 5.97828C13.5122 5.73834 13.553 5.73106 13.872 5.90642C14.0271 5.99189 14.3333 6.15142 14.5522 6.26126C14.7714 6.3711 14.9836 6.48569 15.0241 6.51608C15.1155 6.58476 15.9178 7.01905 16.2925 7.20296C16.6204 7.36376 16.642 7.35617 16.9492 6.96683C17.075 6.80729 17.2085 6.65757 17.2458 6.63446C17.2831 6.61135 17.3137 6.55786 17.3137 6.51576C17.3137 6.47366 17.3328 6.43916 17.3557 6.43916C17.379 6.43916 17.4848 6.32647 17.5905 6.18878C17.6963 6.05077 17.8448 5.86686 17.9206 5.77981C17.9965 5.69276 18.2316 5.40345 18.4428 5.13692C18.9071 4.55133 18.8363 4.55892 19.2314 5.05431ZM88.4436 8.24627C88.3419 8.36149 88.3384 8.46721 88.3244 11.808L88.3101 15.2512L88.0326 15.0449C87.7388 14.8268 87.0665 14.4912 86.7989 14.4298C86.7113 14.4096 86.5322 14.3624 86.4006 14.3247C85.8322 14.1624 84.9378 14.0753 84.1094 14.1019C83.2058 14.131 82.7397 14.2114 81.9667 14.4716C81.1842 14.735 80.0878 15.4836 79.7007 16.0192C79.608 16.1474 79.5127 16.2518 79.4882 16.2518C79.464 16.2518 79.4442 16.2876 79.4442 16.331C79.4442 16.3746 79.4264 16.4104 79.4044 16.4104C79.3674 16.4107 79.2664 16.5611 79.0848 16.8849C78.9746 17.0818 78.6126 17.9472 78.5773 18.0985C78.5601 18.171 78.4976 18.4084 78.438 18.6259C78.0245 20.1392 78.0678 23.26 78.5205 24.5628C78.5613 24.6799 78.5954 24.8104 78.5964 24.8531C78.5973 24.8955 78.6445 25.0253 78.7009 25.1415C78.7573 25.2573 78.8041 25.3697 78.8051 25.3909C78.8111 25.5175 79.3407 26.4858 79.4044 26.4864C79.4264 26.4864 79.4442 26.514 79.4442 26.5472C79.4442 26.9464 81.4518 28.4914 81.9702 28.4914C82.0158 28.4914 82.0957 28.5139 82.1474 28.5414C82.6562 28.812 84.6836 28.901 85.7901 28.7016C86.8655 28.5075 87.3581 28.3186 87.9481 27.8735L88.3008 27.6073L88.3219 27.9308C88.3588 28.5006 88.3356 28.4914 89.7579 28.4914C90.8966 28.4914 90.9737 28.485 91.0738 28.386C91.1792 28.2812 91.1799 28.21 91.1799 18.2039V8.12757H89.8643C88.5663 8.12757 88.5471 8.12915 88.4436 8.24627ZM108.065 8.2871C107.892 8.4593 107.93 25.7258 108.105 26.3079C108.621 28.0289 109.665 28.6496 112.045 28.6496C113.285 28.6496 113.187 28.7585 113.205 27.3648C113.224 25.9657 113.269 26.0468 112.446 26.0097C111.712 25.9765 111.421 25.8993 111.178 25.6726C110.802 25.3213 110.828 25.9958 110.828 16.6203V8.18011H109.5C108.238 8.18011 108.168 8.1855 108.065 8.2871ZM53.1751 8.90878C52.9371 9.00501 52.5742 9.29496 52.5742 9.38897C52.5742 9.42062 52.5532 9.44626 52.5274 9.44626C52.4684 9.44626 52.2055 9.98754 51.9637 10.607C51.9127 10.7374 51.8512 10.8919 51.827 10.9498C51.8031 11.0081 51.7318 11.186 51.6687 11.3455C51.6056 11.505 51.5339 11.6832 51.5094 11.7412C51.4848 11.7994 51.4128 11.9773 51.3497 12.1368C51.2867 12.2964 51.1512 12.6287 51.0483 12.8756C50.9457 13.1222 50.8422 13.3713 50.818 13.4296C50.7941 13.4875 50.7227 13.6657 50.6596 13.8252C50.5968 13.9848 50.5252 14.1627 50.5003 14.2209C50.4758 14.2788 50.4047 14.4571 50.3426 14.6166C50.2805 14.7761 50.1989 14.9778 50.1613 15.0648C50.1001 15.2066 49.9255 15.6244 49.8086 15.909C49.7847 15.9669 49.7133 16.1451 49.6499 16.3047C49.5865 16.4642 49.5014 16.6697 49.4613 16.7611C49.4208 16.8526 49.388 16.9514 49.388 16.9811C49.388 17.0106 49.3526 17.102 49.3096 17.184C49.2319 17.3322 49.1889 17.4335 48.9665 17.9928C48.9031 18.1523 48.8298 18.3305 48.804 18.3885C48.7402 18.5309 48.3926 19.3802 48.2642 19.7075C48.2075 19.8524 48.1409 20.0186 48.117 20.0769C48.0928 20.1348 48.0323 20.2889 47.9823 20.4197C47.9322 20.5501 47.8602 20.7283 47.8226 20.8153C47.693 21.1135 47.3797 21.8704 47.266 22.1606C47.2032 22.3202 47.1322 22.4984 47.108 22.5563C47.0838 22.6142 47.0223 22.7687 46.9713 22.8991C46.9203 23.0298 46.8477 23.2077 46.8101 23.2948C46.7008 23.5464 46.3815 24.3232 46.2569 24.6401C46.1942 24.7996 46.1231 24.9778 46.0989 25.0357C46.075 25.094 46.0135 25.2481 45.9625 25.3789C45.9116 25.5093 45.8392 25.6875 45.8016 25.7745C45.7644 25.8616 45.6927 26.0395 45.6426 26.1702C45.5926 26.3006 45.5095 26.5026 45.4578 26.6184C45.4062 26.7346 45.2871 27.0195 45.1931 27.2515C45.0994 27.4838 44.986 27.7618 44.9414 27.8691C44.8968 27.9767 44.8573 28.1549 44.8537 28.2647L44.8477 28.4651L46.1486 28.48C46.8642 28.4879 47.4992 28.4825 47.5601 28.468C47.6891 28.4366 47.7844 28.2543 48.1951 27.2515C48.3022 26.9904 48.4098 26.7292 48.4347 26.6713C48.4592 26.6134 48.5309 26.4352 48.594 26.2756C48.6571 26.1161 48.7288 25.9379 48.7536 25.8799C48.7788 25.822 48.861 25.6201 48.9365 25.4314C49.012 25.2428 49.0955 25.0411 49.1213 24.9832C49.3303 24.5182 49.5473 23.9763 49.5473 23.9184C49.5473 23.8604 50.2629 23.8506 53.6396 23.8617L57.7317 23.8753L57.8033 24.007C57.8425 24.0798 57.9627 24.3526 58.0704 24.6138C58.178 24.8749 58.2969 25.1598 58.3342 25.2469C58.3714 25.3339 58.4438 25.5118 58.4947 25.6425C58.6448 26.0268 58.6662 26.0794 58.7751 26.3285C58.8325 26.4589 58.9325 26.6963 58.9978 26.8558C59.0635 27.0154 59.1473 27.2173 59.1842 27.3044C59.2212 27.3914 59.3305 27.6526 59.427 27.8846C59.7033 28.5499 59.5452 28.4952 61.146 28.479C62.8133 28.4623 62.7515 28.537 62.1598 27.2515C62.1197 27.1645 62.0018 26.877 61.8976 26.6127C61.7934 26.3481 61.6589 26.0157 61.5984 25.8739C61.4579 25.5441 61.4222 25.4571 61.3091 25.1677C61.2581 25.037 61.1858 24.8591 61.1485 24.7721C61.1109 24.685 61.0395 24.5068 60.9895 24.3764C60.9395 24.2457 60.8787 24.0915 60.8541 24.0336C60.8299 23.9753 60.7467 23.7737 60.6696 23.585C60.5925 23.3964 60.4992 23.171 60.4619 23.084C60.4249 22.9969 60.3526 22.8187 60.301 22.6883C60.2497 22.5576 60.1771 22.3797 60.1395 22.2926C60.1022 22.2056 60.0305 22.0274 59.9805 21.897C59.9304 21.7662 59.8699 21.6121 59.8457 21.5538C59.8218 21.4959 59.715 21.2348 59.6086 20.9736C59.3655 20.3776 59.2164 20.0161 59.1301 19.8129C59.0928 19.7258 59.0214 19.5479 58.9711 19.4172C58.9211 19.2868 58.8471 19.1029 58.807 19.0085C58.7668 18.9142 58.7012 18.7597 58.6611 18.6654C58.6209 18.5711 58.5467 18.3872 58.496 18.2568C58.389 17.9798 58.2284 17.5901 58.0834 17.2543C57.9687 16.9881 57.9362 16.9077 57.8062 16.5684C57.7562 16.4379 57.6845 16.2597 57.6472 16.1727C57.6096 16.0856 57.543 15.9195 57.4991 15.8036C57.4162 15.5858 57.0791 14.7644 56.9574 14.4846C56.9198 14.3975 56.8478 14.2197 56.7975 14.0889C56.7474 13.9582 56.6758 13.7803 56.6382 13.6932C56.6009 13.6062 56.5279 13.428 56.4766 13.2976C56.4253 13.1668 56.3533 12.989 56.317 12.9019C56.2807 12.8149 56.186 12.579 56.1064 12.378C56.0267 12.177 55.9426 11.9751 55.9197 11.9295C55.8964 11.8839 55.8362 11.7399 55.7855 11.6095C55.7352 11.4788 55.6632 11.3009 55.6256 11.2138C55.5883 11.1268 55.5166 10.9486 55.4666 10.8181C55.4166 10.6874 55.3557 10.5333 55.3315 10.475C55.307 10.4171 55.2238 10.2158 55.1461 10.0277C54.7344 9.02938 53.9624 8.59098 53.1751 8.90878ZM53.8139 14.1813C53.8678 14.319 53.9439 14.503 53.9831 14.59C54.0226 14.677 54.1654 15.0214 54.3008 15.3551C54.4365 15.6887 54.6427 16.1872 54.7593 16.463C55.0279 17.0986 55.0224 17.0849 55.2534 17.65C55.5278 18.321 55.8509 19.0972 56.0054 19.4568C56.1797 19.8629 56.23 19.9844 56.3167 20.2085C56.367 20.3393 56.4327 20.4918 56.4626 20.5479C56.4922 20.6039 56.5352 20.7109 56.5579 20.7853C56.5805 20.86 56.6159 20.9625 56.6366 21.0132C56.6723 21.1005 56.5114 21.1056 53.6948 21.1056C50.4952 21.1056 50.6204 21.1164 50.7667 20.8543C50.7947 20.8039 50.9049 20.5488 51.0117 20.2877C51.1184 20.0265 51.3201 19.54 51.46 19.2064C51.5998 18.8724 51.8015 18.3859 51.9083 18.1248C52.015 17.8636 52.1217 17.6025 52.146 17.5446C52.1699 17.4863 52.2317 17.3322 52.2826 17.2014C52.3339 17.071 52.4244 16.8574 52.484 16.7266C52.5436 16.5962 52.6108 16.4417 52.6334 16.3838C52.6988 16.2154 53.0563 15.3453 53.1372 15.1572C53.2971 14.7866 53.3609 14.6337 53.4501 14.4055C53.6693 13.8436 53.6792 13.8376 53.8139 14.1813ZM119.564 14.0677C118.879 14.1199 117.694 14.4096 117.068 14.678C116.608 14.8746 116.077 15.1382 116.032 15.1917C116.017 15.2091 115.943 15.2557 115.866 15.2949C115.647 15.407 115.355 15.6855 115.315 15.822C115.279 15.9435 115.419 16.4095 115.492 16.4107C115.512 16.411 115.575 16.512 115.633 16.6351C115.691 16.758 115.753 16.8707 115.771 16.8849C115.79 16.8995 115.905 17.0938 116.027 17.3167C116.347 17.8975 116.478 17.9155 117.164 17.474C117.524 17.2423 117.649 17.1764 118.103 16.9814C118.802 16.681 119.434 16.5718 120.466 16.5725C120.934 16.5728 121.412 16.5934 121.528 16.6181C121.645 16.6431 121.866 16.6886 122.018 16.7197C123.19 16.9583 123.941 17.9387 123.882 19.1535L123.865 19.4963L121.369 19.5274C118.318 19.5653 117.906 19.6283 116.625 20.2554C113.992 21.5437 113.596 25.7328 115.919 27.7086C116.083 27.8485 116.235 27.9631 116.255 27.9634C116.276 27.9637 116.398 28.0349 116.528 28.122C116.658 28.209 116.782 28.2802 116.804 28.2802C116.826 28.2802 116.942 28.3249 117.062 28.379C118.326 28.951 120.767 28.969 122.113 28.4164C122.626 28.2055 123.36 27.7795 123.36 27.6928C123.36 27.6677 123.386 27.6472 123.417 27.6472C123.449 27.6472 123.56 27.5522 123.665 27.4364C123.873 27.2066 123.945 27.1755 123.945 27.3161C123.945 28.3486 124.539 28.6522 126.56 28.6506L127.715 28.6496V27.5747C127.715 26.3411 127.734 26.3905 127.238 26.3323C126.664 26.2652 126.711 26.62 126.688 22.1344C126.667 17.9273 126.645 17.6373 126.267 16.6741C125.484 14.6796 123.197 13.7904 119.564 14.0677ZM98.8799 14.1139C98.8359 14.1247 98.6091 14.1601 98.3755 14.1931C97.4949 14.3171 96.3386 14.7191 96.0082 15.0161C95.962 15.0575 95.9066 15.0914 95.8846 15.0914C95.8276 15.0914 95.2117 15.5672 95.0661 15.7238C94.9982 15.7966 94.8414 15.9631 94.7175 16.0936C94.3973 16.431 94.1418 16.8361 93.7524 17.6237C92.8813 19.3849 92.7975 23.0586 93.5848 24.9832C93.8547 25.6429 94.3256 26.4867 94.4237 26.4867C94.4505 26.4867 94.4725 26.5133 94.4725 26.5463C94.4725 26.6238 95.3433 27.4889 95.4213 27.4889C95.4545 27.4889 95.4812 27.5098 95.4812 27.5351C95.4812 27.6871 96.8369 28.3429 97.6055 28.5632C98.8028 28.906 100.692 28.9041 101.96 28.5591C102.667 28.3663 103.552 28.0182 103.703 27.8732C103.741 27.8358 103.795 27.8054 103.821 27.8054C103.96 27.8054 104.763 27.1895 105.239 26.7181C105.977 25.9876 105.98 25.9331 105.319 25.344C105.064 25.1165 104.793 24.8711 104.717 24.7983C104.124 24.2343 104.029 24.2352 103.446 24.8107C102.108 26.1319 99.9527 26.5478 98.1117 25.8407C97.8791 25.7511 97.6641 25.6587 97.6338 25.6346C97.6035 25.6109 97.5038 25.5318 97.412 25.4586C97.32 25.3858 97.2304 25.326 97.2126 25.326C97.0769 25.326 96.4804 24.5445 96.3045 24.1361C96.1583 23.7962 95.9553 23.0909 95.9834 23.0188C96.0038 22.9656 96.9886 22.952 100.826 22.952C104.41 22.952 105.688 22.9358 105.817 22.8893C106.055 22.8041 106.065 22.7275 106.025 21.3788C105.98 19.9119 105.883 19.2197 105.585 18.2302C105.453 17.7927 105.16 17.1565 104.95 16.8488C104.883 16.7501 104.828 16.6465 104.828 16.619C104.828 16.5912 104.805 16.5684 104.778 16.5684C104.751 16.5684 104.713 16.5221 104.696 16.4655C104.523 15.9264 102.918 14.7872 101.836 14.4365C101.1 14.1978 99.3324 14.005 98.8799 14.1139ZM70.0714 14.2076C68.9515 14.3583 67.8162 14.9328 67.1551 15.6836L66.912 15.96V15.2895V14.6191L66.7495 14.5359C66.4889 14.402 64.3669 14.4431 64.2092 14.5849L64.0973 14.6856V21.5013C64.0973 28.0371 64.1015 28.3204 64.1945 28.404C64.3369 28.5319 66.7001 28.536 66.8285 28.4084C66.9028 28.3347 66.912 27.8846 66.912 24.2501C66.912 19.4476 66.9126 19.4394 67.3807 18.4676C68.406 16.3389 72.0465 16.2221 73.069 18.2853C73.53 19.2156 73.546 19.4147 73.5482 24.2197C73.5495 27.7864 73.5593 28.2704 73.6323 28.3743C73.7139 28.4898 73.7323 28.4914 74.9734 28.4898L76.2316 28.4882L76.3262 28.3584C76.4505 28.1891 76.4396 19.2035 76.3144 18.5467C76.1421 17.6411 75.8426 16.865 75.4261 16.2445C75.1897 15.8922 74.5987 15.2497 74.511 15.2497C74.4852 15.2497 74.4502 15.2139 74.4333 15.1705C74.4164 15.1268 74.3661 15.0914 74.3215 15.0914C74.2769 15.0914 74.2402 15.0692 74.2402 15.042C74.2402 15.0151 74.1924 14.9778 74.1341 14.9594C74.0761 14.941 73.9977 14.898 73.9608 14.8635C73.8381 14.7505 73.4166 14.5653 72.8064 14.357C72.2568 14.1693 70.9046 14.0956 70.0714 14.2076ZM85.8166 16.6886C86.0065 16.7573 86.2333 16.8513 86.3209 16.8976C86.4086 16.9441 86.5561 17.0213 86.6488 17.0694C87.2003 17.3559 87.9201 18.2932 88.219 19.1143C88.4009 19.6134 88.4047 23.2014 88.2244 23.7465C87.2169 26.7878 83.2791 27.3329 81.5815 24.6654C81.5449 24.6081 81.4907 24.5017 81.4607 24.4293C81.4311 24.3568 81.3856 24.2498 81.3597 24.1918C81.0825 23.5702 80.9847 22.858 80.9863 21.4747C80.9889 19.4796 81.2846 18.5068 82.1789 17.5522C83.0255 16.6488 84.6441 16.2645 85.8166 16.6886ZM100.34 16.6991C102.045 16.9697 103.053 18.0789 103.232 19.8841C103.316 20.7242 103.771 20.6336 99.5503 20.6178L95.9327 20.6042L95.9499 20.1823C95.9757 19.5555 96.3023 18.503 96.5798 18.1517C97.5328 16.9469 98.8054 16.4554 100.34 16.6991ZM123.807 21.8232C123.935 21.8719 123.932 23.9158 123.803 24.2973C123.602 24.8958 123.176 25.476 122.75 25.7328C122.406 25.9401 121.941 26.1211 121.44 26.2424C120.675 26.4282 118.759 26.3095 118.504 26.061C118.477 26.0338 118.422 26.0119 118.383 26.0119C118.233 26.0119 117.603 25.4954 117.514 25.2997C117.488 25.2415 117.445 25.1586 117.419 25.1149C117.248 24.8256 117.2 24.6084 117.2 24.1219C117.2 22.6522 118.089 21.9536 120.094 21.8463C120.988 21.7985 123.698 21.7817 123.807 21.8232Z" fill="white"/>
</svg>
