<svg width="204" height="61" viewBox="0 0 204 61" fill="none" xmlns="http://www.w3.org/2000/svg">
<rect x="1" y="1" width="203" height="60" rx="8" fill="white" stroke="#CFCFCF"/>
<path fill-rule="evenodd" clip-rule="evenodd" d="M52.426 29.6321C52.39 25.3361 55.942 23.2481 56.098 23.1521C54.082 20.2241 50.962 19.8161 49.87 19.7801C47.254 19.5041 44.71 21.3521 43.378 21.3521C42.022 21.3521 39.958 19.8161 37.75 19.8521C34.906 19.9001 32.23 21.5441 30.778 24.1121C27.766 29.3321 30.01 37.0121 32.902 41.2361C34.354 43.3001 36.034 45.6161 38.254 45.5321C40.414 45.4481 41.23 44.1521 43.834 44.1521C46.426 44.1521 47.182 45.5321 49.438 45.4841C51.766 45.4481 53.218 43.4081 54.622 41.3201C56.29 38.9561 56.962 36.6161 56.986 36.4961C56.926 36.4721 52.474 34.7681 52.426 29.6321Z" fill="black"/>
<path fill-rule="evenodd" clip-rule="evenodd" d="M48.166 17.0081C49.33 15.5561 50.122 13.5761 49.906 11.5601C48.226 11.6321 46.114 12.7241 44.902 14.1521C43.834 15.4121 42.874 17.4641 43.114 19.3961C45.01 19.5401 46.954 18.4361 48.166 17.0081Z" fill="black"/>
<path fill-rule="evenodd" clip-rule="evenodd" d="M78.5979 37.8401L77.0979 33.2201C76.9419 32.7401 76.6419 31.6361 76.2099 29.8841H76.1499C75.9699 30.6401 75.6939 31.7561 75.3099 33.2201L73.8339 37.8401H78.5979ZM83.7699 45.2321H80.7459L79.0899 40.0241H73.3299L71.7579 45.2321H68.8179L74.5179 27.5081H78.0459L83.7699 45.2321Z" fill="black"/>
<path fill-rule="evenodd" clip-rule="evenodd" d="M95.5299 38.788C95.5299 37.54 95.2539 36.52 94.6899 35.716C94.0779 34.876 93.2499 34.456 92.2179 34.456C91.5219 34.456 90.8859 34.696 90.3099 35.152C89.7459 35.62 89.3619 36.22 89.1939 36.976C89.1099 37.324 89.0619 37.612 89.0619 37.84V39.976C89.0619 40.9 89.3499 41.692 89.9139 42.328C90.4779 42.964 91.2219 43.288 92.1339 43.288C93.2019 43.288 94.0299 42.868 94.6299 42.052C95.2299 41.224 95.5299 40.144 95.5299 38.788ZM98.4219 38.692C98.4219 40.864 97.8339 42.58 96.6459 43.84C95.5899 44.968 94.2699 45.52 92.7099 45.52C91.0179 45.52 89.8059 44.92 89.0619 43.708V50.416H86.2179V36.652C86.2179 35.284 86.1819 33.892 86.1099 32.452H88.6059L88.7619 34.48H88.8099C89.7579 32.956 91.1979 32.188 93.1179 32.188C94.6299 32.188 95.8779 32.788 96.8859 33.976C97.9179 35.176 98.4219 36.736 98.4219 38.692Z" fill="black"/>
<path fill-rule="evenodd" clip-rule="evenodd" d="M110.218 38.788C110.218 37.54 109.942 36.52 109.378 35.716C108.766 34.876 107.938 34.456 106.906 34.456C106.21 34.456 105.574 34.696 104.998 35.152C104.434 35.62 104.062 36.22 103.882 36.976C103.798 37.324 103.75 37.612 103.75 37.84V39.976C103.75 40.9 104.038 41.692 104.602 42.328C105.166 42.964 105.91 43.288 106.822 43.288C107.89 43.288 108.73 42.868 109.318 42.052C109.93 41.224 110.218 40.144 110.218 38.788ZM113.11 38.692C113.11 40.864 112.522 42.58 111.334 43.84C110.278 44.968 108.958 45.52 107.398 45.52C105.706 45.52 104.494 44.92 103.75 43.708V50.416H100.906V36.652C100.906 35.284 100.87 33.892 100.798 32.452H103.294L103.45 34.48H103.498C104.446 32.956 105.886 32.188 107.806 32.188C109.318 32.188 110.566 32.788 111.574 33.976C112.606 35.176 113.11 36.736 113.11 38.692Z" fill="black"/>
<path fill-rule="evenodd" clip-rule="evenodd" d="M129.55 40.2641C129.55 41.7761 129.022 43.0001 127.978 43.9481C126.826 44.9801 125.218 45.4961 123.154 45.4961C121.246 45.4961 119.722 45.1241 118.57 44.3921L119.23 42.0281C120.478 42.7601 121.846 43.1321 123.334 43.1321C124.402 43.1321 125.242 42.8921 125.83 42.4121C126.43 41.9321 126.73 41.2841 126.73 40.4801C126.73 39.7601 126.478 39.1601 125.998 38.6681C125.506 38.1761 124.69 37.7201 123.55 37.3001C120.418 36.1361 118.87 34.4441 118.87 32.2241C118.87 30.7721 119.422 29.5841 120.514 28.6481C121.606 27.7241 123.058 27.2561 124.87 27.2561C126.478 27.2561 127.822 27.5321 128.89 28.0961L128.17 30.4001C127.162 29.8601 126.034 29.5841 124.762 29.5841C123.766 29.5841 122.974 29.8361 122.41 30.3161C121.942 30.7601 121.702 31.2881 121.702 31.9241C121.702 32.6201 121.978 33.2081 122.518 33.6521C122.986 34.0721 123.85 34.5281 125.098 35.0201C126.622 35.6321 127.738 36.3521 128.458 37.1801C129.19 38.0081 129.55 39.0401 129.55 40.2641Z" fill="black"/>
<path fill-rule="evenodd" clip-rule="evenodd" d="M138.958 34.588H135.826V40.792C135.826 42.364 136.378 43.156 137.482 43.156C137.986 43.156 138.406 43.108 138.742 43.024L138.826 45.184C138.262 45.388 137.53 45.496 136.618 45.496C135.49 45.496 134.626 45.148 133.99 44.464C133.354 43.78 133.042 42.628 133.042 41.02V34.576H131.182V32.452H133.042V30.112L135.826 29.272V32.452H138.958V34.588Z" fill="black"/>
<path fill-rule="evenodd" clip-rule="evenodd" d="M150.106 38.8C150.106 37.624 149.854 36.628 149.35 35.788C148.75 34.768 147.898 34.264 146.794 34.264C145.654 34.264 144.778 34.768 144.19 35.788C143.674 36.628 143.434 37.648 143.434 38.86C143.434 40.036 143.686 41.044 144.19 41.872C144.802 42.892 145.666 43.396 146.77 43.396C147.85 43.396 148.702 42.88 149.326 41.848C149.842 40.984 150.106 39.976 150.106 38.8ZM153.046 38.74C153.046 40.708 152.482 42.316 151.366 43.576C150.19 44.872 148.63 45.52 146.686 45.52C144.814 45.52 143.314 44.896 142.198 43.66C141.082 42.424 140.53 40.852 140.53 38.956C140.53 36.976 141.106 35.356 142.246 34.096C143.398 32.836 144.946 32.2 146.89 32.2C148.762 32.2 150.274 32.824 151.414 34.072C152.506 35.272 153.046 36.832 153.046 38.74Z" fill="black"/>
<path fill-rule="evenodd" clip-rule="evenodd" d="M162.286 34.948C162.01 34.9 161.71 34.876 161.386 34.876C160.39 34.876 159.61 35.248 159.07 36.004C158.602 36.664 158.362 37.516 158.362 38.524V45.232H155.518V36.472C155.518 34.996 155.494 33.652 155.434 32.452H157.906L158.014 34.9H158.098C158.398 34.06 158.866 33.376 159.514 32.872C160.15 32.416 160.834 32.188 161.566 32.188C161.83 32.188 162.07 32.212 162.274 32.236L162.286 34.948Z" fill="black"/>
<path fill-rule="evenodd" clip-rule="evenodd" d="M172.27 37.5039C172.294 36.6639 172.102 35.9319 171.718 35.3199C171.226 34.5279 170.47 34.1319 169.462 34.1319C168.538 34.1319 167.782 34.5159 167.206 35.2839C166.738 35.8959 166.45 36.6399 166.366 37.4919L172.27 37.5039ZM174.982 38.2359C174.982 38.7399 174.946 39.1719 174.874 39.5199H166.354C166.39 40.7799 166.798 41.7519 167.59 42.4119C168.31 42.9999 169.234 43.2999 170.374 43.2999C171.634 43.2999 172.786 43.0959 173.818 42.6999L174.262 44.6679C173.05 45.1959 171.622 45.4599 169.978 45.4599C167.998 45.4599 166.438 44.8719 165.31 43.7079C164.182 42.5439 163.618 40.9719 163.618 39.0159C163.618 37.0959 164.146 35.4879 165.202 34.2039C166.306 32.8359 167.794 32.1519 169.666 32.1519C171.502 32.1519 172.906 32.8359 173.842 34.2039C174.598 35.3079 174.982 36.6399 174.982 38.2359Z" fill="black"/>
<path fill-rule="evenodd" clip-rule="evenodd" d="M74.6741 17.536L73.9421 15.256C73.8701 15.028 73.7261 14.476 73.4981 13.612H73.4741C73.3781 13.984 73.2581 14.524 73.0541 15.256L72.3341 17.536H74.6741ZM77.2301 21.172H75.7421L74.9261 18.616H72.0941L71.3141 21.172H69.8741L72.6701 12.46H74.3981L77.2301 21.172Z" fill="black"/>
<path fill-rule="evenodd" clip-rule="evenodd" d="M84.238 14.884L81.862 21.172H80.506L78.202 14.884H79.702L80.77 18.208C80.95 18.76 81.106 19.288 81.226 19.792H81.262C81.37 19.336 81.526 18.808 81.718 18.208L82.774 14.884H84.238Z" fill="black"/>
<path fill-rule="evenodd" clip-rule="evenodd" d="M89.11 18.0399C87.562 18.0399 86.782 18.4119 86.782 19.3119C86.782 19.9719 87.178 20.2959 87.742 20.2959C88.45 20.2959 89.11 19.7559 89.11 19.0119V18.0399ZM89.302 21.1719L89.194 20.4519H89.158C88.726 21.0279 88.114 21.3159 87.322 21.3159C86.194 21.3159 85.402 20.5239 85.402 19.4679C85.402 17.9199 86.746 17.1159 89.074 17.1159V16.9959C89.074 16.1679 88.63 15.7599 87.766 15.7599C87.142 15.7599 86.602 15.9159 86.122 16.2279L85.834 15.3159C86.41 14.9559 87.142 14.7759 87.994 14.7759C89.638 14.7759 90.466 15.6399 90.466 17.3799V19.6959C90.466 20.3319 90.49 20.8239 90.562 21.1959L89.302 21.1719Z" fill="black"/>
<mask id="mask0_236_3598" style="mask-type:alpha" maskUnits="userSpaceOnUse" x="1" y="1" width="203" height="60">
<path fill-rule="evenodd" clip-rule="evenodd" d="M1 61H203.5V1H1V61Z" fill="white"/>
</mask>
<g mask="url(#mask0_236_3598)">
<path fill-rule="evenodd" clip-rule="evenodd" d="M92.902 21.1601H94.294V14.8841H92.902V21.1601ZM93.574 13.8521C93.106 13.8521 92.746 13.4921 92.746 13.0121C92.746 12.5321 93.118 12.1841 93.598 12.1841C94.078 12.1841 94.462 12.5321 94.45 13.0121C94.45 13.5161 94.09 13.8521 93.574 13.8521Z" fill="black"/>
<path fill-rule="evenodd" clip-rule="evenodd" d="M96.778 21.1599H98.17V12.0039H96.778V21.1599Z" fill="black"/>
<path fill-rule="evenodd" clip-rule="evenodd" d="M103.906 18.0399C102.358 18.0399 101.578 18.4119 101.578 19.3119C101.578 19.9719 101.974 20.2959 102.538 20.2959C103.246 20.2959 103.906 19.7559 103.906 19.0119V18.0399ZM104.098 21.1719L103.99 20.4519H103.954C103.522 21.0279 102.91 21.3159 102.118 21.3159C100.99 21.3159 100.198 20.5239 100.198 19.4679C100.198 17.9199 101.542 17.1159 103.87 17.1159V16.9959C103.87 16.1679 103.426 15.7599 102.562 15.7599C101.938 15.7599 101.398 15.9159 100.918 16.2279L100.63 15.3039C101.206 14.9439 101.938 14.7639 102.79 14.7639C104.434 14.7639 105.262 15.6279 105.262 17.3679V19.6839C105.262 20.3199 105.286 20.8119 105.346 21.1839H104.098V21.1719Z" fill="black"/>
<path fill-rule="evenodd" clip-rule="evenodd" d="M110.638 15.8559C109.834 15.8559 109.102 16.5519 109.102 17.5239V18.6279C109.102 19.4919 109.762 20.1999 110.614 20.1999C111.658 20.1999 112.282 19.3479 112.282 17.9919C112.282 16.7199 111.634 15.8559 110.638 15.8559ZM110.926 21.3159C110.038 21.3159 109.378 20.9439 108.946 20.1999H108.922L108.838 21.1719H107.65C107.686 20.6679 107.698 20.1039 107.698 19.4799V12.0039H109.102V15.8079H109.126C109.546 15.1119 110.206 14.7639 111.13 14.7639C112.642 14.7639 113.698 16.0599 113.698 17.9439C113.698 19.8879 112.522 21.3159 110.926 21.3159Z" fill="black"/>
<path fill-rule="evenodd" clip-rule="evenodd" d="M115.762 21.1599H117.154V12.0039H115.762V21.1599Z" fill="black"/>
<path fill-rule="evenodd" clip-rule="evenodd" d="M123.478 17.368C123.478 16.396 122.986 15.712 122.098 15.712C121.294 15.712 120.67 16.408 120.574 17.368H123.478ZM124.75 18.364H120.562C120.586 19.552 121.378 20.224 122.542 20.224C123.166 20.224 123.73 20.116 124.234 19.924L124.45 20.896C123.862 21.16 123.166 21.28 122.35 21.28C120.382 21.28 119.218 20.044 119.218 18.112C119.218 16.192 120.406 14.74 122.194 14.74C123.79 14.74 124.81 15.928 124.81 17.728C124.81 17.98 124.798 18.196 124.75 18.364Z" fill="black"/>
<path fill-rule="evenodd" clip-rule="evenodd" d="M133.27 15.7839C132.262 15.7839 131.614 16.7319 131.614 18.0399C131.614 19.3359 132.274 20.2719 133.258 20.2719C134.242 20.2719 134.902 19.2639 134.902 18.0039C134.89 16.7319 134.254 15.7839 133.27 15.7839ZM133.21 21.3159C131.374 21.3159 130.186 19.9479 130.186 18.0879C130.186 16.1439 131.398 14.7639 133.318 14.7639C135.13 14.7639 136.342 16.0719 136.342 17.9799C136.342 19.9359 135.094 21.3159 133.21 21.3159Z" fill="black"/>
<path fill-rule="evenodd" clip-rule="evenodd" d="M143.842 21.172H142.45V17.56C142.45 16.444 142.018 15.892 141.178 15.892C140.35 15.892 139.786 16.6 139.786 17.428V21.16H138.394V16.684C138.394 16.132 138.382 15.532 138.346 14.884H139.57L139.63 15.856H139.666C140.038 15.184 140.806 14.752 141.658 14.752C142.978 14.752 143.842 15.76 143.842 17.404V21.172Z" fill="black"/>
<path fill-rule="evenodd" clip-rule="evenodd" d="M152.974 15.94H151.438V18.988C151.438 19.768 151.714 20.152 152.254 20.152C152.494 20.152 152.71 20.128 152.878 20.092L152.914 21.148C152.638 21.256 152.278 21.304 151.834 21.304C150.73 21.304 150.082 20.692 150.082 19.108V15.94H149.17V14.896H150.082V13.744L151.45 13.324V14.884H152.986V15.94" fill="black"/>
<path fill-rule="evenodd" clip-rule="evenodd" d="M160.366 21.1719H158.974V17.5839C158.974 16.4559 158.542 15.8919 157.702 15.8919C156.982 15.8919 156.31 16.3839 156.31 17.3799V21.1599H154.918V12.0039H156.31V15.7719H156.334C156.778 15.0879 157.402 14.7519 158.218 14.7519C159.55 14.7519 160.366 15.7839 160.366 17.4279V21.1719Z" fill="black"/>
<path fill-rule="evenodd" clip-rule="evenodd" d="M166.222 17.368C166.222 16.396 165.73 15.712 164.842 15.712C164.038 15.712 163.402 16.408 163.318 17.368H166.222ZM167.494 18.364H163.306C163.33 19.552 164.122 20.224 165.286 20.224C165.91 20.224 166.474 20.116 166.978 19.924L167.194 20.896C166.606 21.16 165.91 21.28 165.094 21.28C163.126 21.28 161.962 20.044 161.962 18.112C161.962 16.192 163.15 14.74 164.938 14.74C166.534 14.74 167.554 15.928 167.554 17.728C167.554 17.98 167.542 18.196 167.494 18.364Z" fill="black"/>
</g>
</svg>
