<svg width="167" height="31" viewBox="0 0 167 31" fill="none" xmlns="http://www.w3.org/2000/svg">
<path d="M17.5724 3.67648C16.636 2.52406 15.422 1.6071 14.0347 1.00442C12.5622 0.334807 10.7119 0 8.48387 0H0.33313V23.863H8.41277C10.4082 23.863 12.1319 23.5566 13.5836 22.9439C14.9705 22.3779 16.2036 21.5141 17.1879 20.419C18.1598 19.3135 18.8776 18.0237 19.2945 16.6337C19.7597 15.0958 19.9888 13.5009 19.9745 11.8995C19.9811 10.4137 19.8028 8.93251 19.4434 7.48731C19.1044 6.10696 18.4703 4.80925 17.5812 3.67648H17.5724ZM17.5546 17.0602C17.0512 18.3074 16.2586 19.4283 15.2369 20.3379C14.3193 21.1331 13.2318 21.7262 12.0504 22.076C10.9186 22.4146 9.74043 22.5885 8.55498 22.592H1.86639V1.27952H8.23944C8.91959 1.28462 9.599 1.32376 10.2749 1.39681C11.0454 1.47591 11.8047 1.63537 12.5392 1.87236C13.3152 2.12988 14.0526 2.48406 14.7325 2.92583C15.482 3.42518 16.1216 4.06143 16.6146 4.79819C17.2143 5.70053 17.6641 6.68688 17.9479 7.72189C18.3061 9.08702 18.4721 10.4921 18.4412 11.8995C18.4412 13.9723 18.1449 15.6926 17.5524 17.0602" fill="white"/>
<path d="M34.2517 8.77568C33.5969 8.00284 32.77 7.38055 31.8318 6.9545C30.788 6.492 29.6481 6.26374 28.4987 6.28702C27.2657 6.26045 26.044 6.51863 24.9367 7.0398C23.9513 7.52092 23.0892 8.20551 22.4124 9.04438C21.7211 9.91073 21.2069 10.8948 20.8969 11.9446C20.5579 13.0687 20.388 14.2334 20.3925 15.4036C20.3817 16.5835 20.5456 17.7588 20.8791 18.8945C21.1724 19.9154 21.6756 20.8696 22.359 21.7009C23.0251 22.4972 23.8707 23.1381 24.8322 23.5754C25.9194 24.0505 27.1044 24.2838 28.2987 24.2579C30.4541 24.2579 32.1896 23.724 33.5051 22.6563C34.8206 21.5886 35.6731 20.0511 36.0627 18.0437H34.7295C34.3339 19.6502 33.6125 20.9034 32.5651 21.8033C31.5178 22.7032 30.0979 23.1546 28.3054 23.1575C27.3065 23.1785 26.3166 22.9724 25.4166 22.5561C24.6077 22.1688 23.9022 21.6085 23.3545 20.9183C22.791 20.1958 22.3714 19.3795 22.1168 18.5107C21.8337 17.5768 21.6922 16.6086 21.6968 15.636V15.442H36.1849C36.1849 15.3545 36.1849 15.2287 36.2005 15.0901C36.2161 14.9515 36.2183 14.8193 36.2183 14.7084C36.2274 13.6037 36.0573 12.5043 35.7139 11.4499C35.3992 10.4775 34.8972 9.57038 34.2339 8.77568H34.2517ZM21.7502 14.3416C21.8193 13.4521 22.0075 12.5748 22.3101 11.7314C22.5909 10.9197 23.0281 10.1659 23.599 9.50927C24.1704 8.86644 24.8739 8.34373 25.6655 7.97385C26.5484 7.57108 27.5169 7.37104 28.4942 7.38954C29.4172 7.37433 30.3309 7.56869 31.1608 7.95679C31.9303 8.3247 32.6114 8.84255 33.1607 9.47728C33.717 10.1306 34.1386 10.8797 34.4028 11.6845C34.6865 12.5457 34.8501 13.4391 34.8895 14.3416H21.7502Z" fill="white"/>
<path d="M58.4688 6.83394C57.7469 7.01072 57.0554 7.28653 56.4156 7.65283C55.8226 7.99332 55.2925 8.42567 54.8468 8.93235C54.4366 9.3891 54.1335 9.92509 53.9579 10.504H53.8535V6.68466H52.5202V22.6658C52.2096 22.718 51.8955 22.7486 51.5803 22.7575C51.3332 22.7725 51.088 22.7088 50.8825 22.5763C50.7198 22.4498 50.5987 22.281 50.5336 22.0901C50.4634 21.8735 50.4223 21.6492 50.4114 21.4226C50.4114 21.1773 50.3959 20.9321 50.3959 20.6869V10.696C50.4176 10.09 50.2956 9.4873 50.0393 8.93319C49.7829 8.37909 49.3988 7.88806 48.9159 7.49715C47.9293 6.68253 46.3568 6.27593 44.1984 6.27735C42.04 6.27877 40.38 6.75432 39.2186 7.70401C38.0453 8.65085 37.4128 10.0725 37.3209 11.9691H38.6542C38.7342 10.428 39.2682 9.28137 40.2563 8.5293C41.2444 7.77723 42.5384 7.39835 44.1384 7.39266C44.9135 7.3771 45.6871 7.46685 46.436 7.65923C46.9933 7.80349 47.5147 8.05368 47.9693 8.39495C48.3431 8.67956 48.6416 9.0449 48.8404 9.46121C49.0292 9.87074 49.1247 10.3143 49.1204 10.7621C49.1261 11.2657 49.0912 11.7691 49.0159 12.2676C48.9595 12.6433 48.7751 12.9905 48.4915 13.255C48.1377 13.5511 47.7134 13.7591 47.256 13.8606C46.5198 14.0323 45.7684 14.1372 45.0117 14.1741L42.9562 14.3426C42.2016 14.4154 41.4517 14.5272 40.7096 14.6774C39.9602 14.8224 39.2419 15.0885 38.5853 15.4643C37.9396 15.8354 37.395 16.3485 36.9965 16.9613C36.5809 17.6011 36.3721 18.4136 36.3721 19.418C36.3721 21.0672 36.8943 22.2863 37.9387 23.0753C38.9831 23.8643 40.4578 24.2596 42.3629 24.261C43.1618 24.2693 43.9578 24.1688 44.7272 23.9624C45.4109 23.7763 46.0623 23.4946 46.6605 23.1265C47.2047 22.7922 47.6925 22.3801 48.1071 21.9045C48.4872 21.4694 48.7932 20.9792 49.0137 20.4523H49.0804V21.3522C49.0785 21.6832 49.1083 22.0137 49.1693 22.3396C49.2171 22.6223 49.3302 22.8912 49.5003 23.1265C49.6823 23.3639 49.9292 23.5485 50.2136 23.6596C50.6189 23.8081 51.0513 23.8763 51.4847 23.8601C51.837 23.8605 52.1879 23.8183 52.5291 23.7342V23.8601H53.8624V14.4769C53.8761 13.9168 53.9348 13.3586 54.0379 12.8072C54.1183 12.369 54.2464 11.9401 54.4201 11.5276C54.5772 11.1598 54.7817 10.8123 55.029 10.4934C55.2954 10.1551 55.581 9.83117 55.8845 9.52306C56.5898 8.82764 57.4723 8.32114 58.4444 8.05375C59.2191 7.84052 60.0294 7.77246 60.8309 7.85329V6.57377C60.0381 6.55082 59.2458 6.63554 58.4777 6.82541L58.4688 6.83394ZM49.0826 17.3132C49.0538 17.7437 48.9906 18.1715 48.8937 18.5927C48.7349 19.2997 48.4329 19.97 48.0049 20.5653C47.4789 21.3013 46.7899 21.9166 45.9872 22.3673C45.0983 22.8919 43.9028 23.1542 42.4007 23.1542C40.9385 23.1542 39.7897 22.8478 38.9542 22.2351C38.1187 21.6223 37.7002 20.6812 37.6987 19.4116C37.6676 18.7289 37.8362 18.0516 38.1853 17.4561C38.4996 16.9647 38.9374 16.557 39.4586 16.2704C40.0059 15.9739 40.6006 15.7664 41.2185 15.6562C41.8674 15.5347 42.5185 15.443 43.1673 15.3747L45.3894 15.1721C46.1315 15.1172 46.8692 15.0175 47.5982 14.8736C48.169 14.7875 48.6915 14.5157 49.0781 14.1037L49.0826 17.3132Z" fill="white"/>
<path d="M69.4249 0H60.892V23.863H69.4249C71.4914 23.863 73.2787 23.5844 74.7868 23.0271C76.216 22.5229 77.4953 21.6912 78.5133 20.6045C79.5302 19.473 80.2684 18.1363 80.6732 16.6934C81.1628 14.9561 81.3969 13.1617 81.3687 11.3621C81.3687 7.52357 80.3317 4.67237 78.2577 2.80854C76.1838 0.944711 73.2395 0.00853012 69.4249 0ZM77.5933 15.5675C77.3339 16.4853 76.9284 17.3593 76.3912 18.1585C75.9521 18.7999 75.3904 19.3556 74.7357 19.7963C74.1585 20.1778 73.5327 20.4867 72.8736 20.7154C72.2994 20.915 71.7027 21.0489 71.0959 21.1142C70.6333 21.1658 70.1683 21.1943 69.7026 21.1995H64.2007V2.67419H69.7737C71.307 2.67419 72.5951 2.88034 73.638 3.29263C74.6387 3.6728 75.5204 4.29418 76.1979 5.09675C76.8868 5.94357 77.3744 6.92469 77.6267 7.9714C77.9306 9.22606 78.0761 10.5113 78.06 11.7993C78.0873 13.07 77.9303 14.3383 77.5933 15.5675Z" fill="white"/>
<path d="M111.412 15.3539C110.834 14.9714 110.2 14.6725 109.532 14.4668C108.817 14.2427 108.091 14.0534 107.356 13.8996C106.659 13.7439 105.963 13.5946 105.265 13.4475C104.625 13.3188 103.996 13.1405 103.385 12.9143C102.878 12.7314 102.411 12.4595 102.008 12.1125C101.832 11.9576 101.693 11.7683 101.601 11.5575C101.508 11.3467 101.463 11.1193 101.47 10.8906C101.452 10.5022 101.575 10.12 101.819 9.80936C102.063 9.5236 102.373 9.29528 102.723 9.14188C103.117 8.96928 103.533 8.85083 103.961 8.79001C104.402 8.72452 104.848 8.69101 105.294 8.68978C105.781 8.68988 106.266 8.74065 106.741 8.84119C107.199 8.93479 107.639 9.09822 108.043 9.32528C108.464 9.55443 108.817 9.88371 109.067 10.2815C109.317 10.6792 109.457 11.132 109.472 11.5964H112.434C112.399 10.6849 112.162 9.7912 111.736 8.97554C111.364 8.29778 110.819 7.72177 110.152 7.30151C109.458 6.87816 108.688 6.58441 107.881 6.4357C106.951 6.26082 106.004 6.17651 105.057 6.18406C104.253 6.18648 103.452 6.28171 102.672 6.46769C101.907 6.64139 101.177 6.93538 100.512 7.33776C99.8803 7.72475 99.3484 8.24471 98.9568 8.85825C98.5292 9.52887 98.3102 10.3028 98.3257 11.0889C98.3257 12.2035 98.6161 13.0721 99.1968 13.6948C99.7974 14.332 100.541 14.8294 101.372 15.1492C102.289 15.5082 103.241 15.7775 104.214 15.9532C105.234 16.143 106.179 16.352 107.05 16.5929C107.822 16.7846 108.557 17.095 109.225 17.5121C109.511 17.6946 109.743 17.9457 109.897 18.2404C110.051 18.5351 110.122 18.8633 110.103 19.1925C110.122 19.6641 109.976 20.1282 109.687 20.5104C109.409 20.8555 109.042 21.1258 108.623 21.2952C108.173 21.4785 107.699 21.6026 107.214 21.6641C106.729 21.7288 106.24 21.7623 105.75 21.7643C105.159 21.7659 104.571 21.7094 103.992 21.5959C103.453 21.4969 102.935 21.3109 102.461 21.0457C102.011 20.7932 101.634 20.437 101.363 20.0093C101.073 19.5259 100.92 18.9782 100.919 18.4205H95.2525C94.9925 19.5401 94.4726 20.3782 93.6815 20.9284C92.8904 21.4786 91.846 21.7515 90.5927 21.7515C89.7202 21.7714 88.8533 21.6114 88.0506 21.2824C87.367 20.9985 86.7593 20.5698 86.2729 20.0284C85.8058 19.5034 85.4617 18.8882 85.2641 18.2243C85.0541 17.5271 84.9626 16.802 84.993 16.0769H98.4702C98.5098 14.9655 98.4098 13.8535 98.1724 12.765C97.9355 11.6295 97.4836 10.5453 96.8391 9.56625C96.1986 8.58077 95.3284 7.75148 94.297 7.1437C93.2437 6.50394 91.9156 6.18406 90.3127 6.18406C89.1444 6.17281 87.987 6.40035 86.9173 6.85154C85.8976 7.28925 84.9847 7.92706 84.2375 8.7239C83.4653 9.55252 82.8684 10.5172 82.4798 11.5644C82.0483 12.7218 81.8354 13.9436 81.8509 15.1727C81.8848 16.408 82.0896 17.6336 82.4598 18.8172C82.7879 19.8719 83.3403 20.85 84.0819 21.6897C84.811 22.4996 85.723 23.1392 86.7485 23.5599C87.9338 24.0301 89.2082 24.2582 90.4905 24.2295C92.5319 24.2295 94.2266 23.739 95.5747 22.7581C96.7547 21.9051 97.5746 20.6682 98.0191 19.0731C98.0938 19.7944 98.3102 20.4955 98.6568 21.1395C99.0524 21.8632 99.6269 22.4827 100.33 22.9436C101.058 23.4147 101.872 23.7497 102.73 23.931C103.668 24.133 104.626 24.2332 105.588 24.2295C106.505 24.2284 107.42 24.1448 108.321 23.98C109.193 23.829 110.03 23.5285 110.792 23.0929C111.514 22.6801 112.124 22.1076 112.57 21.4231C113.014 20.7322 113.247 19.8664 113.247 18.8172C113.274 18.0962 113.1 17.3813 112.743 16.7465C112.411 16.1948 111.956 15.7207 111.41 15.3582L111.412 15.3539ZM85.4374 11.6817C85.683 11.1065 86.0379 10.58 86.484 10.1292C86.9313 9.67751 87.4706 9.31892 88.0684 9.07577C88.7234 8.81064 89.4286 8.67919 90.1394 8.68978C90.8392 8.68102 91.5332 8.81249 92.1771 9.07577C92.7744 9.32043 93.318 9.67137 93.7793 10.11C94.241 10.5561 94.6078 11.0841 94.8592 11.6647C95.1263 12.2695 95.2848 12.9134 95.3281 13.569H84.993C85.0332 12.9209 85.1833 12.2834 85.4374 11.6817Z" fill="white"/>
<path d="M116.891 17.7469L117.76 7.3551V0H114.454V7.3551L115.325 17.7469H116.891Z" fill="white"/>
<path d="M118.037 20.1523H114.173V23.8629H118.037V20.1523Z" fill="white"/>
<path d="M132.693 9.05654H132.658C132.164 8.13757 131.388 7.38589 130.436 6.90268C129.466 6.41873 128.387 6.17188 127.294 6.18402C125.738 6.18402 124.427 6.46836 123.361 7.03703C122.338 7.56357 121.453 8.30582 120.772 9.20795C120.121 10.0979 119.653 11.0978 119.39 12.1551C119.119 13.188 118.979 14.2484 118.972 15.3134C118.965 16.4509 119.136 17.5831 119.479 18.6721C119.789 19.6823 120.303 20.6242 120.992 21.4444C121.675 22.2413 122.531 22.8855 123.501 23.3317C124.602 23.8204 125.805 24.0604 127.018 24.0333C128.161 24.0374 129.288 23.7801 130.307 23.2826C131.34 22.7836 132.159 21.9539 132.622 20.9369H132.693V22.0714C132.701 22.9595 132.601 23.8455 132.396 24.7114C132.228 25.453 131.902 26.1531 131.438 26.7672C131.001 27.334 130.428 27.7924 129.769 28.1043C128.993 28.4427 128.146 28.604 127.294 28.5756C126.78 28.5719 126.268 28.5205 125.765 28.422C125.249 28.3283 124.75 28.1646 124.283 27.9358C123.843 27.7229 123.453 27.4278 123.134 27.0679C122.815 26.7012 122.637 26.2404 122.629 25.7628H119.661C119.677 26.6125 119.946 27.4402 120.434 28.1491C120.894 28.7896 121.495 29.3255 122.194 29.7186C122.93 30.1293 123.729 30.4231 124.563 30.5887C125.403 30.7631 126.26 30.8524 127.12 30.8553C129.997 30.8553 132.11 30.1537 133.458 28.7505C134.806 27.3473 135.479 25.2275 135.478 22.3912V6.58494H132.693V9.05654ZM132.249 17.2774C132.069 18.0408 131.758 18.7701 131.329 19.4356C130.912 20.0666 130.345 20.593 129.674 20.971C128.914 21.3799 128.053 21.5819 127.183 21.5553C126.326 21.5882 125.478 21.3854 124.738 20.971C124.099 20.5866 123.565 20.0599 123.183 19.4356C122.779 18.7757 122.496 18.0545 122.345 17.303C122.185 16.5305 122.104 15.7449 122.103 14.9572C122.1 14.1581 122.2 13.3616 122.401 12.5859C122.578 11.8664 122.897 11.186 123.341 10.5813C123.772 10.0054 124.338 9.53489 124.994 9.20795C125.751 8.84343 126.591 8.66536 127.438 8.68974C128.262 8.66596 129.078 8.85055 129.805 9.22501C130.443 9.57052 130.986 10.0575 131.389 10.6453C131.804 11.2529 132.105 11.9256 132.278 12.6328C132.461 13.3668 132.552 14.1193 132.549 14.8741C132.549 15.682 132.45 16.4871 132.256 17.2732" fill="white"/>
<path d="M150.833 7.95302C150.315 7.37504 149.658 6.92768 148.918 6.65004C147.971 6.31277 146.965 6.15419 145.956 6.18302C143.289 6.18302 141.34 7.23009 140.107 9.32423H140.036V6.58393H137.252V23.8574H140.214V14.1032C140.206 13.37 140.319 12.6401 140.549 11.9408C140.755 11.3141 141.09 10.7338 141.536 10.2348C141.987 9.73745 142.554 9.34944 143.191 9.10245C143.938 8.81719 144.737 8.68008 145.54 8.6994C146.676 8.6994 147.571 9.01288 148.22 9.63558C148.869 10.2583 149.195 11.107 149.195 12.1754V23.8617H152.158V12.4996C152.166 11.6382 152.066 10.7789 151.86 9.94054C151.684 9.2096 151.332 8.52826 150.833 7.95088" fill="white"/>
<path d="M168.042 9.55979C167.4 8.57528 166.53 7.74624 165.5 7.13723C164.442 6.49747 163.115 6.18399 161.511 6.18399C160.343 6.17273 159.187 6.40027 158.118 6.85147C157.098 7.28891 156.186 7.92761 155.44 8.72597C154.668 9.55347 154.07 10.5176 153.682 11.5644C153.252 12.722 153.039 13.9436 153.054 15.1726C153.087 16.408 153.292 17.6335 153.662 18.8171C153.99 19.8721 154.542 20.8502 155.285 21.6896C156.014 22.4995 156.926 23.1391 157.951 23.5599C159.137 24.0307 160.412 24.2587 161.695 24.2295C163.74 24.2295 165.434 23.739 166.78 22.758C168.125 21.7771 168.992 20.3184 169.382 18.3821H166.455C166.202 19.5194 165.674 20.366 164.873 20.9219C164.072 21.4778 163.044 21.7543 161.791 21.7515C160.919 21.7711 160.053 21.6119 159.251 21.2844C158.578 21.0057 157.979 20.5862 157.497 20.0568C157.015 19.5274 156.662 18.9013 156.464 18.2243C156.252 17.5252 156.157 16.7981 156.184 16.0704H169.662C169.702 14.9598 169.603 13.8485 169.366 12.7607C169.127 11.6258 168.675 10.542 168.033 9.56192L168.042 9.55979ZM156.176 13.5711C156.215 12.9228 156.365 12.2852 156.62 11.6838C156.865 11.1086 157.219 10.5822 157.664 10.1313C158.112 9.67957 158.651 9.32098 159.249 9.07784C159.904 8.81254 160.611 8.68109 161.322 8.69185C162.021 8.68307 162.714 8.81454 163.357 9.07784C163.955 9.3225 164.498 9.67343 164.96 10.1121C165.421 10.5585 165.788 11.0864 166.04 11.6667C166.306 12.2718 166.466 12.9155 166.511 13.5711H156.176Z" fill="white"/>
</svg>
