<svg width="168" height="240" viewBox="0 0 168 240" fill="none" xmlns="http://www.w3.org/2000/svg">
<g opacity="0.4">
<path opacity="0.4" fill-rule="evenodd" clip-rule="evenodd" d="M2.093 4.19C3.24893 4.19 4.186 3.25 4.186 2.09C4.186 0.94 3.24893 0 2.093 0C0.937068 0 0 0.94 0 2.09C0 3.25 0.937068 4.19 2.093 4.19ZM2.093 22.33C3.24893 22.33 4.186 21.39 4.186 20.23C4.186 19.08 3.24893 18.14 2.093 18.14C0.937068 18.14 0 19.08 0 20.23C0 21.39 0.937068 22.33 2.093 22.33ZM4.186 38.37C4.186 39.53 3.24893 40.46 2.093 40.46C0.937068 40.46 0 39.53 0 38.37C0 37.22 0.937068 36.28 2.093 36.28C3.24893 36.28 4.186 37.22 4.186 38.37ZM2.093 58.6C3.24893 58.6 4.186 57.67 4.186 56.51C4.186 55.35 3.24893 54.42 2.093 54.42C0.937068 54.42 0 55.35 0 56.51C0 57.67 0.937068 58.6 2.093 58.6ZM4.186 74.65C4.186 75.81 3.24893 76.74 2.093 76.74C0.937068 76.74 0 75.81 0 74.65C0 73.49 0.937068 72.56 2.093 72.56C3.24893 72.56 4.186 73.49 4.186 74.65ZM2.093 94.88C3.24893 94.88 4.186 93.95 4.186 92.79C4.186 91.63 3.24893 90.7 2.093 90.7C0.937068 90.7 0 91.63 0 92.79C0 93.95 0.937068 94.88 2.093 94.88ZM4.186 110.93C4.186 112.09 3.24893 113.02 2.093 113.02C0.937068 113.02 0 112.09 0 110.93C0 109.77 0.937068 108.84 2.093 108.84C3.24893 108.84 4.186 109.77 4.186 110.93ZM2.093 131.16C3.24893 131.16 4.186 130.22 4.186 129.07C4.186 127.91 3.24893 126.98 2.093 126.98C0.937068 126.98 0 127.91 0 129.07C0 130.22 0.937068 131.16 2.093 131.16ZM4.186 147.21C4.186 148.36 3.24893 149.3 2.093 149.3C0.937068 149.3 0 148.36 0 147.21C0 146.05 0.937068 145.11 2.093 145.11C3.24893 145.11 4.186 146.05 4.186 147.21ZM2.093 167.44C3.24893 167.44 4.186 166.5 4.186 165.35C4.186 164.19 3.24893 163.25 2.093 163.25C0.937068 163.25 0 164.19 0 165.35C0 166.5 0.937068 167.44 2.093 167.44ZM4.186 183.49C4.186 184.64 3.24893 185.58 2.093 185.58C0.937068 185.58 0 184.64 0 183.49C0 182.33 0.937068 181.39 2.093 181.39C3.24893 181.39 4.186 182.33 4.186 183.49ZM2.093 203.72C3.24893 203.72 4.186 202.78 4.186 201.63C4.186 200.47 3.24893 199.53 2.093 199.53C0.937068 199.53 0 200.47 0 201.63C0 202.78 0.937068 203.72 2.093 203.72ZM4.186 219.76C4.186 220.92 3.24893 221.86 2.093 221.86C0.937068 221.86 0 220.92 0 219.76C0 218.61 0.937068 217.67 2.093 217.67C3.24893 217.67 4.186 218.61 4.186 219.76ZM2.093 240C3.24893 240 4.186 239.06 4.186 237.9C4.186 236.75 3.24893 235.81 2.093 235.81C0.937068 235.81 0 236.75 0 237.9C0 239.06 0.937068 240 2.093 240ZM22.3253 2.09C22.3253 3.25 21.3882 4.19 20.2323 4.19C19.0764 4.19 18.1393 3.25 18.1393 2.09C18.1393 0.94 19.0764 0 20.2323 0C21.3882 0 22.3253 0.94 22.3253 2.09ZM20.2323 22.33C21.3882 22.33 22.3253 21.39 22.3253 20.23C22.3253 19.08 21.3882 18.14 20.2323 18.14C19.0764 18.14 18.1393 19.08 18.1393 20.23C18.1393 21.39 19.0764 22.33 20.2323 22.33ZM22.3253 38.37C22.3253 39.53 21.3882 40.46 20.2323 40.46C19.0764 40.46 18.1393 39.53 18.1393 38.37C18.1393 37.22 19.0764 36.28 20.2323 36.28C21.3882 36.28 22.3253 37.22 22.3253 38.37ZM20.2323 58.6C21.3882 58.6 22.3253 57.67 22.3253 56.51C22.3253 55.35 21.3882 54.42 20.2323 54.42C19.0764 54.42 18.1393 55.35 18.1393 56.51C18.1393 57.67 19.0764 58.6 20.2323 58.6ZM22.3253 74.65C22.3253 75.81 21.3882 76.74 20.2323 76.74C19.0764 76.74 18.1393 75.81 18.1393 74.65C18.1393 73.49 19.0764 72.56 20.2323 72.56C21.3882 72.56 22.3253 73.49 22.3253 74.65ZM20.2323 94.88C21.3882 94.88 22.3253 93.95 22.3253 92.79C22.3253 91.63 21.3882 90.7 20.2323 90.7C19.0764 90.7 18.1393 91.63 18.1393 92.79C18.1393 93.95 19.0764 94.88 20.2323 94.88ZM22.3253 110.93C22.3253 112.09 21.3882 113.02 20.2323 113.02C19.0764 113.02 18.1393 112.09 18.1393 110.93C18.1393 109.77 19.0764 108.84 20.2323 108.84C21.3882 108.84 22.3253 109.77 22.3253 110.93ZM20.2323 131.16C21.3882 131.16 22.3253 130.22 22.3253 129.07C22.3253 127.91 21.3882 126.98 20.2323 126.98C19.0764 126.98 18.1393 127.91 18.1393 129.07C18.1393 130.22 19.0764 131.16 20.2323 131.16ZM22.3253 147.21C22.3253 148.36 21.3882 149.3 20.2323 149.3C19.0764 149.3 18.1393 148.36 18.1393 147.21C18.1393 146.05 19.0764 145.11 20.2323 145.11C21.3882 145.11 22.3253 146.05 22.3253 147.21ZM20.2323 167.44C21.3882 167.44 22.3253 166.5 22.3253 165.35C22.3253 164.19 21.3882 163.25 20.2323 163.25C19.0764 163.25 18.1393 164.19 18.1393 165.35C18.1393 166.5 19.0764 167.44 20.2323 167.44ZM22.3253 183.49C22.3253 184.64 21.3882 185.58 20.2323 185.58C19.0764 185.58 18.1393 184.64 18.1393 183.49C18.1393 182.33 19.0764 181.39 20.2323 181.39C21.3882 181.39 22.3253 182.33 22.3253 183.49ZM20.2323 203.72C21.3882 203.72 22.3253 202.78 22.3253 201.63C22.3253 200.47 21.3882 199.53 20.2323 199.53C19.0764 199.53 18.1393 200.47 18.1393 201.63C18.1393 202.78 19.0764 203.72 20.2323 203.72ZM22.3253 219.76C22.3253 220.92 21.3882 221.86 20.2323 221.86C19.0764 221.86 18.1393 220.92 18.1393 219.76C18.1393 218.61 19.0764 217.67 20.2323 217.67C21.3882 217.67 22.3253 218.61 22.3253 219.76ZM20.2323 240C21.3882 240 22.3253 239.06 22.3253 237.9C22.3253 236.75 21.3882 235.81 20.2323 235.81C19.0764 235.81 18.1393 236.75 18.1393 237.9C18.1393 239.06 19.0764 240 20.2323 240ZM40.4646 2.09C40.4646 3.25 39.5275 4.19 38.3716 4.19C37.2156 4.19 36.2786 3.25 36.2786 2.09C36.2786 0.94 37.2156 0 38.3716 0C39.5275 0 40.4646 0.94 40.4646 2.09ZM38.3716 22.33C39.5275 22.33 40.4646 21.39 40.4646 20.23C40.4646 19.08 39.5275 18.14 38.3716 18.14C37.2156 18.14 36.2786 19.08 36.2786 20.23C36.2786 21.39 37.2156 22.33 38.3716 22.33ZM40.4646 38.37C40.4646 39.53 39.5275 40.46 38.3716 40.46C37.2156 40.46 36.2786 39.53 36.2786 38.37C36.2786 37.22 37.2156 36.28 38.3716 36.28C39.5275 36.28 40.4646 37.22 40.4646 38.37ZM38.3716 58.6C39.5275 58.6 40.4646 57.67 40.4646 56.51C40.4646 55.35 39.5275 54.42 38.3716 54.42C37.2156 54.42 36.2786 55.35 36.2786 56.51C36.2786 57.67 37.2156 58.6 38.3716 58.6ZM40.4646 74.65C40.4646 75.81 39.5275 76.74 38.3716 76.74C37.2156 76.74 36.2786 75.81 36.2786 74.65C36.2786 73.49 37.2156 72.56 38.3716 72.56C39.5275 72.56 40.4646 73.49 40.4646 74.65ZM38.3716 94.88C39.5275 94.88 40.4646 93.95 40.4646 92.79C40.4646 91.63 39.5275 90.7 38.3716 90.7C37.2156 90.7 36.2786 91.63 36.2786 92.79C36.2786 93.95 37.2156 94.88 38.3716 94.88ZM40.4646 110.93C40.4646 112.09 39.5275 113.02 38.3716 113.02C37.2156 113.02 36.2786 112.09 36.2786 110.93C36.2786 109.77 37.2156 108.84 38.3716 108.84C39.5275 108.84 40.4646 109.77 40.4646 110.93ZM38.3716 131.16C39.5275 131.16 40.4646 130.22 40.4646 129.07C40.4646 127.91 39.5275 126.98 38.3716 126.98C37.2156 126.98 36.2786 127.91 36.2786 129.07C36.2786 130.22 37.2156 131.16 38.3716 131.16ZM40.4646 147.21C40.4646 148.36 39.5275 149.3 38.3716 149.3C37.2156 149.3 36.2786 148.36 36.2786 147.21C36.2786 146.05 37.2156 145.11 38.3716 145.11C39.5275 145.11 40.4646 146.05 40.4646 147.21ZM38.3716 167.44C39.5275 167.44 40.4646 166.5 40.4646 165.35C40.4646 164.19 39.5275 163.25 38.3716 163.25C37.2156 163.25 36.2786 164.19 36.2786 165.35C36.2786 166.5 37.2156 167.44 38.3716 167.44ZM40.4646 183.49C40.4646 184.64 39.5275 185.58 38.3716 185.58C37.2156 185.58 36.2786 184.64 36.2786 183.49C36.2786 182.33 37.2156 181.39 38.3716 181.39C39.5275 181.39 40.4646 182.33 40.4646 183.49ZM38.3716 203.72C39.5275 203.72 40.4646 202.78 40.4646 201.63C40.4646 200.47 39.5275 199.53 38.3716 199.53C37.2156 199.53 36.2786 200.47 36.2786 201.63C36.2786 202.78 37.2156 203.72 38.3716 203.72ZM40.4646 219.76C40.4646 220.92 39.5275 221.86 38.3716 221.86C37.2156 221.86 36.2786 220.92 36.2786 219.76C36.2786 218.61 37.2156 217.67 38.3716 217.67C39.5275 217.67 40.4646 218.61 40.4646 219.76ZM38.3716 240C39.5275 240 40.4646 239.06 40.4646 237.9C40.4646 236.75 39.5275 235.81 38.3716 235.81C37.2156 235.81 36.2786 236.75 36.2786 237.9C36.2786 239.06 37.2156 240 38.3716 240ZM58.6042 2.09C58.6042 3.25 57.6671 4.19 56.5112 4.19C55.3553 4.19 54.4182 3.25 54.4182 2.09C54.4182 0.94 55.3553 0 56.5112 0C57.6671 0 58.6042 0.94 58.6042 2.09ZM56.5112 22.33C57.6671 22.33 58.6042 21.39 58.6042 20.23C58.6042 19.08 57.6671 18.14 56.5112 18.14C55.3553 18.14 54.4182 19.08 54.4182 20.23C54.4182 21.39 55.3553 22.33 56.5112 22.33ZM58.6042 38.37C58.6042 39.53 57.6671 40.46 56.5112 40.46C55.3553 40.46 54.4182 39.53 54.4182 38.37C54.4182 37.22 55.3553 36.28 56.5112 36.28C57.6671 36.28 58.6042 37.22 58.6042 38.37ZM56.5112 58.6C57.6671 58.6 58.6042 57.67 58.6042 56.51C58.6042 55.35 57.6671 54.42 56.5112 54.42C55.3553 54.42 54.4182 55.35 54.4182 56.51C54.4182 57.67 55.3553 58.6 56.5112 58.6ZM58.6042 74.65C58.6042 75.81 57.6671 76.74 56.5112 76.74C55.3553 76.74 54.4182 75.81 54.4182 74.65C54.4182 73.49 55.3553 72.56 56.5112 72.56C57.6671 72.56 58.6042 73.49 58.6042 74.65ZM56.5112 94.88C57.6671 94.88 58.6042 93.95 58.6042 92.79C58.6042 91.63 57.6671 90.7 56.5112 90.7C55.3553 90.7 54.4182 91.63 54.4182 92.79C54.4182 93.95 55.3553 94.88 56.5112 94.88ZM58.6042 110.93C58.6042 112.09 57.6671 113.02 56.5112 113.02C55.3553 113.02 54.4182 112.09 54.4182 110.93C54.4182 109.77 55.3553 108.84 56.5112 108.84C57.6671 108.84 58.6042 109.77 58.6042 110.93ZM56.5112 131.16C57.6671 131.16 58.6042 130.22 58.6042 129.07C58.6042 127.91 57.6671 126.98 56.5112 126.98C55.3553 126.98 54.4182 127.91 54.4182 129.07C54.4182 130.22 55.3553 131.16 56.5112 131.16ZM58.6042 147.21C58.6042 148.36 57.6671 149.3 56.5112 149.3C55.3553 149.3 54.4182 148.36 54.4182 147.21C54.4182 146.05 55.3553 145.11 56.5112 145.11C57.6671 145.11 58.6042 146.05 58.6042 147.21ZM56.5112 167.44C57.6671 167.44 58.6042 166.5 58.6042 165.35C58.6042 164.19 57.6671 163.25 56.5112 163.25C55.3553 163.25 54.4182 164.19 54.4182 165.35C54.4182 166.5 55.3553 167.44 56.5112 167.44ZM58.6042 183.49C58.6042 184.64 57.6671 185.58 56.5112 185.58C55.3553 185.58 54.4182 184.64 54.4182 183.49C54.4182 182.33 55.3553 181.39 56.5112 181.39C57.6671 181.39 58.6042 182.33 58.6042 183.49ZM56.5112 203.72C57.6671 203.72 58.6042 202.78 58.6042 201.63C58.6042 200.47 57.6671 199.53 56.5112 199.53C55.3553 199.53 54.4182 200.47 54.4182 201.63C54.4182 202.78 55.3553 203.72 56.5112 203.72ZM58.6042 219.76C58.6042 220.92 57.6671 221.86 56.5112 221.86C55.3553 221.86 54.4182 220.92 54.4182 219.76C54.4182 218.61 55.3553 217.67 56.5112 217.67C57.6671 217.67 58.6042 218.61 58.6042 219.76ZM56.5112 240C57.6671 240 58.6042 239.06 58.6042 237.9C58.6042 236.75 57.6671 235.81 56.5112 235.81C55.3553 235.81 54.4182 236.75 54.4182 237.9C54.4182 239.06 55.3553 240 56.5112 240ZM76.7434 2.09C76.7434 3.25 75.8063 4.19 74.6504 4.19C73.4944 4.19 72.5574 3.25 72.5574 2.09C72.5574 0.94 73.4944 0 74.6504 0C75.8063 0 76.7434 0.94 76.7434 2.09ZM74.6504 22.33C75.8063 22.33 76.7434 21.39 76.7434 20.23C76.7434 19.08 75.8063 18.14 74.6504 18.14C73.4944 18.14 72.5574 19.08 72.5574 20.23C72.5574 21.39 73.4944 22.33 74.6504 22.33ZM76.7434 38.37C76.7434 39.53 75.8063 40.46 74.6504 40.46C73.4944 40.46 72.5574 39.53 72.5574 38.37C72.5574 37.22 73.4944 36.28 74.6504 36.28C75.8063 36.28 76.7434 37.22 76.7434 38.37ZM74.6504 58.6C75.8063 58.6 76.7434 57.67 76.7434 56.51C76.7434 55.35 75.8063 54.42 74.6504 54.42C73.4944 54.42 72.5574 55.35 72.5574 56.51C72.5574 57.67 73.4944 58.6 74.6504 58.6ZM76.7434 74.65C76.7434 75.81 75.8063 76.74 74.6504 76.74C73.4944 76.74 72.5574 75.81 72.5574 74.65C72.5574 73.49 73.4944 72.56 74.6504 72.56C75.8063 72.56 76.7434 73.49 76.7434 74.65ZM74.6504 94.88C75.8063 94.88 76.7434 93.95 76.7434 92.79C76.7434 91.63 75.8063 90.7 74.6504 90.7C73.4944 90.7 72.5574 91.63 72.5574 92.79C72.5574 93.95 73.4944 94.88 74.6504 94.88ZM76.7434 110.93C76.7434 112.09 75.8063 113.02 74.6504 113.02C73.4944 113.02 72.5574 112.09 72.5574 110.93C72.5574 109.77 73.4944 108.84 74.6504 108.84C75.8063 108.84 76.7434 109.77 76.7434 110.93ZM74.6504 131.16C75.8063 131.16 76.7434 130.22 76.7434 129.07C76.7434 127.91 75.8063 126.98 74.6504 126.98C73.4944 126.98 72.5574 127.91 72.5574 129.07C72.5574 130.22 73.4944 131.16 74.6504 131.16ZM76.7434 147.21C76.7434 148.36 75.8063 149.3 74.6504 149.3C73.4944 149.3 72.5574 148.36 72.5574 147.21C72.5574 146.05 73.4944 145.11 74.6504 145.11C75.8063 145.11 76.7434 146.05 76.7434 147.21ZM74.6504 167.44C75.8063 167.44 76.7434 166.5 76.7434 165.35C76.7434 164.19 75.8063 163.25 74.6504 163.25C73.4944 163.25 72.5574 164.19 72.5574 165.35C72.5574 166.5 73.4944 167.44 74.6504 167.44ZM76.7434 183.49C76.7434 184.64 75.8063 185.58 74.6504 185.58C73.4944 185.58 72.5574 184.64 72.5574 183.49C72.5574 182.33 73.4944 181.39 74.6504 181.39C75.8063 181.39 76.7434 182.33 76.7434 183.49ZM74.6504 203.72C75.8063 203.72 76.7434 202.78 76.7434 201.63C76.7434 200.47 75.8063 199.53 74.6504 199.53C73.4944 199.53 72.5574 200.47 72.5574 201.63C72.5574 202.78 73.4944 203.72 74.6504 203.72ZM76.7434 219.76C76.7434 220.92 75.8063 221.86 74.6504 221.86C73.4944 221.86 72.5574 220.92 72.5574 219.76C72.5574 218.61 73.4944 217.67 74.6504 217.67C75.8063 217.67 76.7434 218.61 76.7434 219.76ZM74.6504 240C75.8063 240 76.7434 239.06 76.7434 237.9C76.7434 236.75 75.8063 235.81 74.6504 235.81C73.4944 235.81 72.5574 236.75 72.5574 237.9C72.5574 239.06 73.4944 240 74.6504 240ZM94.8827 2.09C94.8827 3.25 93.9456 4.19 92.7897 4.19C91.6337 4.19 90.6967 3.25 90.6967 2.09C90.6967 0.94 91.6337 0 92.7897 0C93.9456 0 94.8827 0.94 94.8827 2.09ZM92.7897 22.33C93.9456 22.33 94.8827 21.39 94.8827 20.23C94.8827 19.08 93.9456 18.14 92.7897 18.14C91.6337 18.14 90.6967 19.08 90.6967 20.23C90.6967 21.39 91.6337 22.33 92.7897 22.33ZM94.8827 38.37C94.8827 39.53 93.9456 40.46 92.7897 40.46C91.6337 40.46 90.6967 39.53 90.6967 38.37C90.6967 37.22 91.6337 36.28 92.7897 36.28C93.9456 36.28 94.8827 37.22 94.8827 38.37ZM92.7897 58.6C93.9456 58.6 94.8827 57.67 94.8827 56.51C94.8827 55.35 93.9456 54.42 92.7897 54.42C91.6337 54.42 90.6967 55.35 90.6967 56.51C90.6967 57.67 91.6337 58.6 92.7897 58.6ZM94.8827 74.65C94.8827 75.81 93.9456 76.74 92.7897 76.74C91.6337 76.74 90.6967 75.81 90.6967 74.65C90.6967 73.49 91.6337 72.56 92.7897 72.56C93.9456 72.56 94.8827 73.49 94.8827 74.65ZM92.7897 94.88C93.9456 94.88 94.8827 93.95 94.8827 92.79C94.8827 91.63 93.9456 90.7 92.7897 90.7C91.6337 90.7 90.6967 91.63 90.6967 92.79C90.6967 93.95 91.6337 94.88 92.7897 94.88ZM94.8827 110.93C94.8827 112.09 93.9456 113.02 92.7897 113.02C91.6337 113.02 90.6967 112.09 90.6967 110.93C90.6967 109.77 91.6337 108.84 92.7897 108.84C93.9456 108.84 94.8827 109.77 94.8827 110.93ZM92.7897 131.16C93.9456 131.16 94.8827 130.22 94.8827 129.07C94.8827 127.91 93.9456 126.98 92.7897 126.98C91.6337 126.98 90.6967 127.91 90.6967 129.07C90.6967 130.22 91.6337 131.16 92.7897 131.16ZM94.8827 147.21C94.8827 148.36 93.9456 149.3 92.7897 149.3C91.6337 149.3 90.6967 148.36 90.6967 147.21C90.6967 146.05 91.6337 145.11 92.7897 145.11C93.9456 145.11 94.8827 146.05 94.8827 147.21ZM92.7897 167.44C93.9456 167.44 94.8827 166.5 94.8827 165.35C94.8827 164.19 93.9456 163.25 92.7897 163.25C91.6337 163.25 90.6967 164.19 90.6967 165.35C90.6967 166.5 91.6337 167.44 92.7897 167.44ZM94.8827 183.49C94.8827 184.64 93.9456 185.58 92.7897 185.58C91.6337 185.58 90.6967 184.64 90.6967 183.49C90.6967 182.33 91.6337 181.39 92.7897 181.39C93.9456 181.39 94.8827 182.33 94.8827 183.49ZM92.7897 203.72C93.9456 203.72 94.8827 202.78 94.8827 201.63C94.8827 200.47 93.9456 199.53 92.7897 199.53C91.6337 199.53 90.6967 200.47 90.6967 201.63C90.6967 202.78 91.6337 203.72 92.7897 203.72ZM94.8827 219.76C94.8827 220.92 93.9456 221.86 92.7897 221.86C91.6337 221.86 90.6967 220.92 90.6967 219.76C90.6967 218.61 91.6337 217.67 92.7897 217.67C93.9456 217.67 94.8827 218.61 94.8827 219.76ZM92.7897 240C93.9456 240 94.8827 239.06 94.8827 237.9C94.8827 236.75 93.9456 235.81 92.7897 235.81C91.6337 235.81 90.6967 236.75 90.6967 237.9C90.6967 239.06 91.6337 240 92.7897 240ZM113.022 2.09C113.022 3.25 112.085 4.19 110.929 4.19C109.773 4.19 108.836 3.25 108.836 2.09C108.836 0.94 109.773 0 110.929 0C112.085 0 113.022 0.94 113.022 2.09ZM110.929 22.33C112.085 22.33 113.022 21.39 113.022 20.23C113.022 19.08 112.085 18.14 110.929 18.14C109.773 18.14 108.836 19.08 108.836 20.23C108.836 21.39 109.773 22.33 110.929 22.33ZM113.022 38.37C113.022 39.53 112.085 40.46 110.929 40.46C109.773 40.46 108.836 39.53 108.836 38.37C108.836 37.22 109.773 36.28 110.929 36.28C112.085 36.28 113.022 37.22 113.022 38.37ZM110.929 58.6C112.085 58.6 113.022 57.67 113.022 56.51C113.022 55.35 112.085 54.42 110.929 54.42C109.773 54.42 108.836 55.35 108.836 56.51C108.836 57.67 109.773 58.6 110.929 58.6ZM113.022 74.65C113.022 75.81 112.085 76.74 110.929 76.74C109.773 76.74 108.836 75.81 108.836 74.65C108.836 73.49 109.773 72.56 110.929 72.56C112.085 72.56 113.022 73.49 113.022 74.65ZM110.929 94.88C112.085 94.88 113.022 93.95 113.022 92.79C113.022 91.63 112.085 90.7 110.929 90.7C109.773 90.7 108.836 91.63 108.836 92.79C108.836 93.95 109.773 94.88 110.929 94.88ZM113.022 110.93C113.022 112.09 112.085 113.02 110.929 113.02C109.773 113.02 108.836 112.09 108.836 110.93C108.836 109.77 109.773 108.84 110.929 108.84C112.085 108.84 113.022 109.77 113.022 110.93ZM110.929 131.16C112.085 131.16 113.022 130.22 113.022 129.07C113.022 127.91 112.085 126.98 110.929 126.98C109.773 126.98 108.836 127.91 108.836 129.07C108.836 130.22 109.773 131.16 110.929 131.16ZM113.022 147.21C113.022 148.36 112.085 149.3 110.929 149.3C109.773 149.3 108.836 148.36 108.836 147.21C108.836 146.05 109.773 145.11 110.929 145.11C112.085 145.11 113.022 146.05 113.022 147.21ZM110.929 167.44C112.085 167.44 113.022 166.5 113.022 165.35C113.022 164.19 112.085 163.25 110.929 163.25C109.773 163.25 108.836 164.19 108.836 165.35C108.836 166.5 109.773 167.44 110.929 167.44ZM113.022 183.49C113.022 184.64 112.085 185.58 110.929 185.58C109.773 185.58 108.836 184.64 108.836 183.49C108.836 182.33 109.773 181.39 110.929 181.39C112.085 181.39 113.022 182.33 113.022 183.49ZM110.929 203.72C112.085 203.72 113.022 202.78 113.022 201.63C113.022 200.47 112.085 199.53 110.929 199.53C109.773 199.53 108.836 200.47 108.836 201.63C108.836 202.78 109.773 203.72 110.929 203.72ZM113.022 219.76C113.022 220.92 112.085 221.86 110.929 221.86C109.773 221.86 108.836 220.92 108.836 219.76C108.836 218.61 109.773 217.67 110.929 217.67C112.085 217.67 113.022 218.61 113.022 219.76ZM110.929 240C112.085 240 113.022 239.06 113.022 237.9C113.022 236.75 112.085 235.81 110.929 235.81C109.773 235.81 108.836 236.75 108.836 237.9C108.836 239.06 109.773 240 110.929 240ZM131.161 2.09C131.161 3.25 130.224 4.19 129.068 4.19C127.912 4.19 126.975 3.25 126.975 2.09C126.975 0.94 127.912 0 129.068 0C130.224 0 131.161 0.94 131.161 2.09ZM129.068 22.33C130.224 22.33 131.161 21.39 131.161 20.23C131.161 19.08 130.224 18.14 129.068 18.14C127.912 18.14 126.975 19.08 126.975 20.23C126.975 21.39 127.912 22.33 129.068 22.33ZM131.161 38.37C131.161 39.53 130.224 40.46 129.068 40.46C127.912 40.46 126.975 39.53 126.975 38.37C126.975 37.22 127.912 36.28 129.068 36.28C130.224 36.28 131.161 37.22 131.161 38.37ZM129.068 58.6C130.224 58.6 131.161 57.67 131.161 56.51C131.161 55.35 130.224 54.42 129.068 54.42C127.912 54.42 126.975 55.35 126.975 56.51C126.975 57.67 127.912 58.6 129.068 58.6ZM131.161 74.65C131.161 75.81 130.224 76.74 129.068 76.74C127.912 76.74 126.975 75.81 126.975 74.65C126.975 73.49 127.912 72.56 129.068 72.56C130.224 72.56 131.161 73.49 131.161 74.65ZM129.068 94.88C130.224 94.88 131.161 93.95 131.161 92.79C131.161 91.63 130.224 90.7 129.068 90.7C127.912 90.7 126.975 91.63 126.975 92.79C126.975 93.95 127.912 94.88 129.068 94.88ZM131.161 110.93C131.161 112.09 130.224 113.02 129.068 113.02C127.912 113.02 126.975 112.09 126.975 110.93C126.975 109.77 127.912 108.84 129.068 108.84C130.224 108.84 131.161 109.77 131.161 110.93ZM129.068 131.16C130.224 131.16 131.161 130.22 131.161 129.07C131.161 127.91 130.224 126.98 129.068 126.98C127.912 126.98 126.975 127.91 126.975 129.07C126.975 130.22 127.912 131.16 129.068 131.16ZM131.161 147.21C131.161 148.36 130.224 149.3 129.068 149.3C127.912 149.3 126.975 148.36 126.975 147.21C126.975 146.05 127.912 145.11 129.068 145.11C130.224 145.11 131.161 146.05 131.161 147.21ZM129.068 167.44C130.224 167.44 131.161 166.5 131.161 165.35C131.161 164.19 130.224 163.25 129.068 163.25C127.912 163.25 126.975 164.19 126.975 165.35C126.975 166.5 127.912 167.44 129.068 167.44ZM131.161 183.49C131.161 184.64 130.224 185.58 129.068 185.58C127.912 185.58 126.975 184.64 126.975 183.49C126.975 182.33 127.912 181.39 129.068 181.39C130.224 181.39 131.161 182.33 131.161 183.49ZM129.068 203.72C130.224 203.72 131.161 202.78 131.161 201.63C131.161 200.47 130.224 199.53 129.068 199.53C127.912 199.53 126.975 200.47 126.975 201.63C126.975 202.78 127.912 203.72 129.068 203.72ZM131.161 219.76C131.161 220.92 130.224 221.86 129.068 221.86C127.912 221.86 126.975 220.92 126.975 219.76C126.975 218.61 127.912 217.67 129.068 217.67C130.224 217.67 131.161 218.61 131.161 219.76ZM129.068 240C130.224 240 131.161 239.06 131.161 237.9C131.161 236.75 130.224 235.81 129.068 235.81C127.912 235.81 126.975 236.75 126.975 237.9C126.975 239.06 127.912 240 129.068 240ZM149.301 2.09C149.301 3.25 148.364 4.19 147.208 4.19C146.052 4.19 145.115 3.25 145.115 2.09C145.115 0.94 146.052 0 147.208 0C148.364 0 149.301 0.94 149.301 2.09ZM147.208 22.33C148.364 22.33 149.301 21.39 149.301 20.23C149.301 19.08 148.364 18.14 147.208 18.14C146.052 18.14 145.115 19.08 145.115 20.23C145.115 21.39 146.052 22.33 147.208 22.33ZM149.301 38.37C149.301 39.53 148.364 40.46 147.208 40.46C146.052 40.46 145.115 39.53 145.115 38.37C145.115 37.22 146.052 36.28 147.208 36.28C148.364 36.28 149.301 37.22 149.301 38.37ZM147.208 58.6C148.364 58.6 149.301 57.67 149.301 56.51C149.301 55.35 148.364 54.42 147.208 54.42C146.052 54.42 145.115 55.35 145.115 56.51C145.115 57.67 146.052 58.6 147.208 58.6ZM149.301 74.65C149.301 75.81 148.364 76.74 147.208 76.74C146.052 76.74 145.115 75.81 145.115 74.65C145.115 73.49 146.052 72.56 147.208 72.56C148.364 72.56 149.301 73.49 149.301 74.65ZM147.208 94.88C148.364 94.88 149.301 93.95 149.301 92.79C149.301 91.63 148.364 90.7 147.208 90.7C146.052 90.7 145.115 91.63 145.115 92.79C145.115 93.95 146.052 94.88 147.208 94.88ZM149.301 110.93C149.301 112.09 148.364 113.02 147.208 113.02C146.052 113.02 145.115 112.09 145.115 110.93C145.115 109.77 146.052 108.84 147.208 108.84C148.364 108.84 149.301 109.77 149.301 110.93ZM147.208 131.16C148.364 131.16 149.301 130.22 149.301 129.07C149.301 127.91 148.364 126.98 147.208 126.98C146.052 126.98 145.115 127.91 145.115 129.07C145.115 130.22 146.052 131.16 147.208 131.16ZM149.301 147.21C149.301 148.36 148.364 149.3 147.208 149.3C146.052 149.3 145.115 148.36 145.115 147.21C145.115 146.05 146.052 145.11 147.208 145.11C148.364 145.11 149.301 146.05 149.301 147.21ZM147.208 167.44C148.364 167.44 149.301 166.5 149.301 165.35C149.301 164.19 148.364 163.25 147.208 163.25C146.052 163.25 145.115 164.19 145.115 165.35C145.115 166.5 146.052 167.44 147.208 167.44ZM149.301 183.49C149.301 184.64 148.364 185.58 147.208 185.58C146.052 185.58 145.115 184.64 145.115 183.49C145.115 182.33 146.052 181.39 147.208 181.39C148.364 181.39 149.301 182.33 149.301 183.49ZM147.208 203.72C148.364 203.72 149.301 202.78 149.301 201.63C149.301 200.47 148.364 199.53 147.208 199.53C146.052 199.53 145.115 200.47 145.115 201.63C145.115 202.78 146.052 203.72 147.208 203.72ZM149.301 219.76C149.301 220.92 148.364 221.86 147.208 221.86C146.052 221.86 145.115 220.92 145.115 219.76C145.115 218.61 146.052 217.67 147.208 217.67C148.364 217.67 149.301 218.61 149.301 219.76ZM147.208 240C148.364 240 149.301 239.06 149.301 237.9C149.301 236.75 148.364 235.81 147.208 235.81C146.052 235.81 145.115 236.75 145.115 237.9C145.115 239.06 146.052 240 147.208 240ZM167.44 2.09C167.44 3.25 166.503 4.19 165.347 4.19C164.191 4.19 163.254 3.25 163.254 2.09C163.254 0.94 164.191 0 165.347 0C166.503 0 167.44 0.94 167.44 2.09ZM165.347 22.33C166.503 22.33 167.44 21.39 167.44 20.23C167.44 19.08 166.503 18.14 165.347 18.14C164.191 18.14 163.254 19.08 163.254 20.23C163.254 21.39 164.191 22.33 165.347 22.33ZM167.44 38.37C167.44 39.53 166.503 40.46 165.347 40.46C164.191 40.46 163.254 39.53 163.254 38.37C163.254 37.22 164.191 36.28 165.347 36.28C166.503 36.28 167.44 37.22 167.44 38.37ZM165.347 58.6C166.503 58.6 167.44 57.67 167.44 56.51C167.44 55.35 166.503 54.42 165.347 54.42C164.191 54.42 163.254 55.35 163.254 56.51C163.254 57.67 164.191 58.6 165.347 58.6ZM167.44 74.65C167.44 75.81 166.503 76.74 165.347 76.74C164.191 76.74 163.254 75.81 163.254 74.65C163.254 73.49 164.191 72.56 165.347 72.56C166.503 72.56 167.44 73.49 167.44 74.65ZM165.347 94.88C166.503 94.88 167.44 93.95 167.44 92.79C167.44 91.63 166.503 90.7 165.347 90.7C164.191 90.7 163.254 91.63 163.254 92.79C163.254 93.95 164.191 94.88 165.347 94.88ZM167.44 110.93C167.44 112.09 166.503 113.02 165.347 113.02C164.191 113.02 163.254 112.09 163.254 110.93C163.254 109.77 164.191 108.84 165.347 108.84C166.503 108.84 167.44 109.77 167.44 110.93ZM165.347 131.16C166.503 131.16 167.44 130.22 167.44 129.07C167.44 127.91 166.503 126.98 165.347 126.98C164.191 126.98 163.254 127.91 163.254 129.07C163.254 130.22 164.191 131.16 165.347 131.16ZM167.44 147.21C167.44 148.36 166.503 149.3 165.347 149.3C164.191 149.3 163.254 148.36 163.254 147.21C163.254 146.05 164.191 145.11 165.347 145.11C166.503 145.11 167.44 146.05 167.44 147.21ZM165.347 167.44C166.503 167.44 167.44 166.5 167.44 165.35C167.44 164.19 166.503 163.25 165.347 163.25C164.191 163.25 163.254 164.19 163.254 165.35C163.254 166.5 164.191 167.44 165.347 167.44ZM167.44 183.49C167.44 184.64 166.503 185.58 165.347 185.58C164.191 185.58 163.254 184.64 163.254 183.49C163.254 182.33 164.191 181.39 165.347 181.39C166.503 181.39 167.44 182.33 167.44 183.49ZM165.347 203.72C166.503 203.72 167.44 202.78 167.44 201.63C167.44 200.47 166.503 199.53 165.347 199.53C164.191 199.53 163.254 200.47 163.254 201.63C163.254 202.78 164.191 203.72 165.347 203.72ZM167.44 219.76C167.44 220.92 166.503 221.86 165.347 221.86C164.191 221.86 163.254 220.92 163.254 219.76C163.254 218.61 164.191 217.67 165.347 217.67C166.503 217.67 167.44 218.61 167.44 219.76ZM165.347 240C166.503 240 167.44 239.06 167.44 237.9C167.44 236.75 166.503 235.81 165.347 235.81C164.191 235.81 163.254 236.75 163.254 237.9C163.254 239.06 164.191 240 165.347 240Z" fill="#262B35"/>
</g>
</svg>
