<svg width="196" height="54" viewBox="0 0 196 54" fill="none" xmlns="http://www.w3.org/2000/svg">
<path d="M55.8048 29.9075H41.6993H41.6719L41.5998 29.9799L41.6376 30.0391L41.4318 30.1082L41.3186 30.2563H41.154L41.0786 30.2794V30.3222L40.9928 30.4176V30.4867L41.034 30.5163L40.9311 30.6644L40.8351 30.7829V30.9376L40.7459 31.1219L40.5264 31.428L40.3961 31.4807H40.3206L40.3515 31.5136V31.6024L40.3103 31.6617L40.18 32.0468L40.0806 32.2903V32.4253L40.252 32.5668L40.3789 32.705H40.4612L40.5401 32.9189L40.5058 32.9881L40.4544 32.9716L40.3824 33.0177L40.3446 33.1592V33.3731L40.4338 33.4587V33.5969L40.3515 33.6628L40.3721 33.7911L40.4372 33.9458H40.4029L40.4407 34.0182L40.4647 34.1301L40.5367 34.1894L40.475 34.2848L40.5333 34.3506L40.595 34.5251L40.5744 34.6139L40.7905 34.8114L40.9482 34.8344L41.0786 34.9398V34.999L41.1231 35.0253L41.1026 35.1636L41.0683 35.2327L41.1026 35.259L40.9757 35.4302V35.4927L40.9997 35.5355V35.5717L40.9517 35.6145L40.9791 35.8218L41.0477 35.9469L41.0134 35.9831V36.1312L41.0477 36.1674V36.3122L40.9825 36.3714L41.0065 36.5261L40.962 36.8158H40.9379L40.9722 36.8651V37.1251H40.8796V37.1581L40.9105 37.2008H41.0305L41.0648 37.2272L41.0923 37.451L41.0305 37.5365L40.9654 37.5695L41.0031 37.6221V37.6781H40.9242L40.8385 37.7636L40.8625 37.7933L40.8899 37.7702H40.9654L40.9105 37.8459V37.9644H40.8351L40.7013 38.1257V38.1981L40.5813 38.3561H40.4818V38.4647L40.0771 38.6753H40.0188L39.988 38.7576L39.6004 38.9551H39.453V38.9847L39.2746 39.0637L39.0311 39.2184L38.9728 39.1789V39.2513L38.8254 39.4257L38.7499 39.4586L38.7088 39.3632L38.6813 39.5146L38.6127 39.5343L38.5887 39.6199L38.3452 39.7614V39.8207L38.2835 39.8733L38.2252 39.8898V39.9721H38.0675L37.7245 40.1794V40.3111L37.6182 40.3868H37.4742L37.4124 40.4625L37.2992 40.3933H37.2341V40.4822L37.2924 40.548V40.6402L37.2478 40.6994V40.785L37.1826 40.8771L37.3575 41.1042V41.1832L37.2821 41.2425L37.3404 41.2688L37.4056 41.3708V41.5091L37.4776 41.6374L37.4467 41.9995L37.481 42.1278H37.5256V42.0258L37.5942 41.8876V42.0093H37.6216V42.1673L37.5736 42.2266V42.3845L37.601 42.4076L37.529 42.5919V42.6906L37.4742 42.7564V42.8749H37.4399L37.4639 42.977L37.5565 42.9243L37.577 42.9901L37.5016 43.0987L37.4639 43.2501L37.2444 43.4739L36.85 43.6451L36.3184 43.7471L36.1126 43.9347L35.9583 43.9709L35.9103 44.04L35.8349 44.0993L35.7903 44.2441H35.7285L35.6702 44.2803L35.6977 44.3132L35.756 44.4185V44.5238L35.8108 44.4547L35.8966 44.4811L35.924 44.3823H35.9652V44.4317L35.9412 44.5962L35.8794 44.6917V44.8102L35.8074 44.9023H35.8417L35.7697 45.113L35.7491 45.294L35.6599 45.4684L35.6016 45.6922L35.5125 45.7943L35.485 45.8963L35.3239 46.0773H35.269L35.2347 46.1267L35.1112 46.1826L35.0529 46.2484L34.9055 46.3406L34.8334 46.4788L34.7134 46.6105V46.6664L34.6448 46.7915H34.5282L34.4356 46.9626L34.1955 47.3938L34.0001 47.5682L33.9692 47.7328L33.856 47.7789L33.7497 47.9006H33.688L33.6605 47.9467L33.0261 48.5457H32.9506V48.5753L32.8478 48.6872L32.4328 48.944L32.3436 49.0361L32.1961 49.0789V49.1151L31.9629 49.1744L31.8326 49.2533H31.6954L31.6269 49.204H31.4417L31.2908 49.2501L31.2256 49.3554L31.3148 49.4278V49.4607H31.1021L30.9787 49.4015H30.8792L30.7935 49.4837L30.8312 49.5561L30.7935 49.5923L30.502 49.5331L30.4197 49.4706L30.1384 49.4047L29.9567 49.4377V49.4804L29.8607 49.5134L29.7201 49.4409H29.3942L29.2982 49.4837L29.2708 49.5825L29.2056 49.5528L29.1302 49.5726L29.0616 49.6253L29.0273 49.6713H28.8833L28.7872 49.7108L28.6089 49.6483L28.4649 49.6977L28.4374 49.7372L28.2899 49.7075L28.1596 49.8491L28.0499 49.8688L28.0122 49.9544L27.947 49.9313L27.8887 49.9577L27.5869 49.8227L27.5252 49.8556V49.7174L27.412 49.6582L27.3228 49.701L27.268 49.6779L27.316 49.6384L27.2851 49.5166L27.1445 49.4936L27.0416 49.5792V49.6845L26.9662 49.6285V49.5101L27.0073 49.4113L26.9799 49.2665L27.0622 49.1349L26.9559 48.9506L26.8496 48.8584L26.7501 48.7103V48.5589L26.8153 48.5029L26.8736 48.5622H26.9284L27.0005 48.4865L27.0348 48.3088L26.9696 48.1113V48.0224L26.7981 47.746V47.6176L26.6301 47.407L26.5512 47.0778L26.4072 46.7355V46.571L26.2768 46.2155L26.0814 46.0773L26.0471 45.8897L25.8413 45.7482L25.807 45.6659L25.663 45.5277L25.5155 45.2479L25.4057 45.1031V44.8793L25.3097 44.7773V44.6588L25.3749 44.6127L25.32 44.5074L25.2377 44.4646L25.1931 44.1618L25.1211 44.0729L25.2068 44.0203L25.152 43.8524L25.1725 43.6056L24.9908 43.1481V42.7005L24.905 42.401L24.9805 42.3681V42.1278L24.6615 41.6835V41.5189L24.3563 41.1042L24.3117 40.8442L24.0099 40.186L23.8179 39.8569L23.4749 39.5047L23.4406 39.0077V38.9485L23.4681 38.7642V38.4811L23.4955 38.2968V38.0862L23.6636 37.892L23.6978 37.6715L23.8453 37.4839V37.0165L23.9002 36.9737V36.7796L24.2431 36.4965V36.355L24.5106 36.1608H24.5827L24.8227 35.7297V35.2195L24.7473 35.1306V35.0352L24.5175 34.6732V34.5218L24.4249 34.3802V34.1696L24.3152 34.117L24.5072 33.88L24.5346 33.6496L24.3529 33.4028V32.9486L24.0099 32.5865V32.5042L23.9448 32.4285L24.1197 32.3364L24.0065 32.3002H23.8316L23.8007 32.2311L23.7699 32.162L23.8385 32.0402L23.7973 31.8723L23.7219 31.7966L23.6533 31.7209L23.6636 31.5959L23.5675 31.4938V31.3885L23.3858 31.2766L23.3206 31.2141L23.2006 31.1022L23.1731 31.0758L23.0668 31.0364L23.06 30.9376L22.8405 30.8356L22.7822 30.7072L22.5078 30.4966L22.3432 30.3287L22.3878 30.2991L22.2335 30.1741L22.1683 30.0391L22.0757 29.9502V29.7725L21.966 29.6376V29.5454L21.8974 29.4928L21.7705 29.236V29.1768L21.9179 29.2229L22.0345 29.1307L22.062 28.8016L22.0791 28.6403L22.1477 28.7062L22.4152 28.6436L22.2266 28.6008L22.1066 28.4165L22.2369 28.3968V28.2586V28.2256L22.086 28.1499L22.2369 27.8735L22.4289 27.6661L22.3843 27.5641L22.4084 27.5411L22.5044 27.4522L22.4152 27.3633L22.4975 27.1593L22.4769 26.9355L22.3672 26.7874V26.6228L22.4084 26.5471L22.3158 26.4089L22.1374 26.4813L22.0826 26.422H21.9762L21.9042 26.0633L21.8082 26.1127L21.7259 26.0765L21.6813 26.1028L21.5784 26.0008L21.5167 26.1653L21.3624 26.1949L21.2629 26.139L20.9817 26.2377L20.92 26.2015L20.7999 26.2706L20.2135 26.3036L19.994 26.2443L19.8362 26.1094L19.7676 25.9053L19.6853 25.8658V25.6716L19.5344 25.3886L19.2875 25.1582L18.8417 24.9311L18.6496 25.0068L18.413 24.9607H18.389L17.9706 25.0957L17.7545 25.0693H17.6894L17.3636 25.2635H17.3121L16.9692 25.303L16.6811 25.438L16.3656 25.6914L15.9986 25.7243L15.4739 25.9646L15.2373 25.8625L14.8943 25.8197L14.8635 25.7671L14.7777 25.6124L14.6611 25.6387L14.6337 25.7835L14.3696 25.6716L14.0644 25.7671H13.2619L13.0321 25.7967V25.8559L12.6103 26.0008L12.5657 26.06H12.4319L12.2193 26.2344L12.1644 26.2147L11.5643 26.0008L11.1013 25.6716H10.9744L10.5972 25.3096H10.5697L10.3434 25.1648H10.2508L10.0964 24.9509L9.99699 24.9081L10.0416 24.8258H10.0244L9.94555 24.7402H9.71577L9.3934 24.5789L9.25622 24.546L9.29052 24.4736L9.20135 24.3815L9.1259 24.3091L9.17734 24.2103V24.184L9.05388 24.2268L8.9167 24.0853V23.9536L8.85497 23.7693H8.73837L8.69378 23.6772L8.77609 23.529L8.69035 23.483V23.3941L8.75552 23.2855L8.66635 23.2164L8.50173 23.1341L8.45372 22.9564H8.32683L8.27196 22.9037V22.8116L8.31997 22.7655L8.2308 22.7095L8.17593 22.7852L8.08333 22.749H7.94615L7.80897 22.568L7.86384 22.3541L7.76782 22.252L7.62378 22.2915L7.59291 22.2586V22.1599L7.3357 22.1862L7.47974 22.0381H7.41115L7.44545 21.9855L7.39057 21.9262H7.29112L7.25339 21.8768H7.5449L7.59634 21.8406L7.43516 21.7222L7.28769 21.7518L7.13336 21.8044H7.06477L7.03048 21.7222H6.90701L6.79727 21.6168L6.90701 21.5346H6.82471H6.62236L6.57092 21.4457V21.3338L6.51605 21.2713L6.61894 21.2976L6.6841 21.3173L6.81442 21.2383L6.60865 21.1692L6.47147 21.2383L6.4406 21.1956L6.4989 21.133V20.9586L6.43031 20.873L6.53663 20.771L6.66009 20.9224H6.82471L6.9173 20.8401L6.78012 20.8763L6.62236 20.8006L6.59493 20.7117L6.57778 20.6657L6.66009 20.6064L6.51605 20.5077H6.56406V20.3892L6.45089 20.3728L6.31714 20.1489L6.11137 19.9877L6.49204 19.6586L6.6498 19.3854L6.67381 19.1945L6.7081 18.9575L6.80413 18.5955L6.9516 18.398L6.99275 17.98L6.87272 17.3777L6.70467 17.1144L6.77326 17.0651H6.859L6.90358 16.8676L6.859 16.7392L6.93788 16.6635L6.76297 16.4134L6.69096 16.4693L6.63265 16.4562L6.58121 16.3147L6.44746 16.4562V16.2324L6.51605 16.0941V16.0711V15.8802L6.58121 15.7551V15.6103L6.66695 15.5215H6.7424L6.93445 15.1923L7.04076 15.1529L6.96532 15.1002V15.0442L7.20881 14.7349V14.646L7.35971 14.3169L7.44887 14.2708L7.73352 14.0174L7.7541 13.8495L8.12792 13.3295L8.03189 13.1649L8.19651 13.0728L8.23766 12.9576L8.65949 12.747H8.76923V12.5067L9.00587 12.1776L9.14991 11.9801L9.74321 11.8748L10.165 11.5193H10.3571L10.532 11.3383L10.5731 11.177L10.9538 10.7623L10.995 10.5945L10.9264 10.5122L10.8749 10.4628L10.9538 10.2456L10.8544 10.0514V9.92637L11.0121 9.61699L11.2556 9.40635V9.26483L11.1596 9.06406L11.434 8.87317L11.5197 8.74811L11.6672 8.70203L11.9072 8.54734H12.0033L12.1713 8.3762L12.3942 8.30379L12.528 8.21492H12.5931L12.8675 7.97137L12.9498 7.81998L12.9772 7.57972L13.1076 7.41515L13.1316 7.08603L13.2482 6.96096H13.3442L13.3922 6.91818L13.5122 6.87868L13.5465 6.92147L13.5259 6.95438V7.02021L13.5534 7.11236L13.6185 7.16173L13.7866 7.33287L13.9169 7.3592L14.1021 7.33287L14.229 7.26705H14.3285L14.5239 7.31971L14.7194 7.28021L14.8257 7.16831H14.8703L14.9012 7.28021L14.9766 7.35262L15.3196 7.37895H15.4053H15.5665L15.7517 7.323L15.8683 7.20122L15.8889 7.13211L15.9643 7.06628L16.1084 6.99388H16.2798L16.3141 6.9478L16.3793 6.90501H16.4616L16.5028 6.94122H16.5679L16.6434 6.84577V6.75691L16.7874 6.67134H16.8731L17.0412 6.6483L17.3361 6.43108L17.4699 6.45082H17.7031L17.8334 6.40804L17.974 6.48044H18.0666L18.2209 6.33563L18.3375 6.37841H18.4644L18.5262 6.25993L18.6016 6.24347L18.7114 6.27639H18.7731L18.9 6.29613L19.0612 6.2698L19.1366 6.28955H19.3012L19.3801 6.40804H19.5173L19.6407 6.31588H19.7368L19.8157 6.3455L19.8911 6.25335L20.0146 6.23031V6.15132L20.1552 6.11841L20.2409 6.18094V6.2731L20.4501 6.29613L20.553 6.1974V6.13815L20.7176 6.19411L20.8514 6.30601L21.1086 6.2336L21.1977 6.25335L21.3692 6.22044L21.4001 6.25664L21.5578 6.12499L21.7773 6.01967L21.9385 5.98676L22.0002 6.07233V5.99663L22.134 5.9703L22.2094 6.03613V6.13815L22.2712 6.1579L22.3603 6.35867L22.4221 6.39158L22.4941 6.31917L22.7102 6.12828L22.765 6.16778V6.28297L22.645 6.45411V6.55943L22.4975 6.65817L22.4701 6.80957L22.6176 7.00046L22.7959 7.06628V7.25717L22.8405 7.2868L22.8645 7.36908L22.7993 7.4349L22.8508 7.50402L22.8062 7.56984L22.6313 7.7344L22.3295 7.93846L22.2712 8.1096L22.3672 8.27746L22.5593 8.40582L22.6484 8.38607L22.6759 8.47493L22.7582 8.51114L22.8027 8.47493V8.43215L22.8405 8.40582L22.9331 8.45518V8.53747L22.9502 8.6L23.132 8.70532H23.204L23.3412 8.73165L23.4578 8.83697L23.7561 8.8995L24.1814 8.8238L24.3495 8.88634H24.6924L24.8982 9.0147L25.2857 9.06735L25.44 9.26154V9.44256L25.6287 9.78814L25.831 9.88687H26.0642L26.1294 9.85067L26.3248 9.87371L26.7775 10.0547L27.0588 10.193L27.2405 10.3345L27.4737 10.5188L27.7378 10.6208L27.8647 10.5747L28.0705 10.4069L28.091 10.3509L28.2488 10.1995L28.3002 10.0679L28.2248 9.83421L28.115 9.66965L28.1356 9.37015L28.2111 9.3142L28.2488 9.15622L28.3963 9.01799L28.6535 8.8995L28.9518 8.87317L29.1405 8.78102H29.185L29.3154 8.84355L29.3771 8.79089L29.4285 8.81722L29.6412 8.86988H29.7715L30.0287 9.00482V9.07723L29.9807 9.09368L30.0287 9.15951L30.2448 9.21546H30.4025L30.4848 9.28787L30.8929 9.33395L31.0061 9.31749L31.1159 9.33395L31.2016 9.42939L31.2565 9.59066H31.3182H31.62L31.8532 9.66307L32.3265 9.69927L32.522 9.73877L32.6934 9.85396L32.7654 9.81117H32.834L33.0089 9.91649H33.2147H33.3587L33.5782 10.0481H33.7806L33.8046 9.99548L33.9521 9.87371L34.1098 9.82434L34.1853 9.78484L34.3499 9.69927L34.4219 9.6499H34.5934H34.7134L34.6174 9.6894H34.5008V9.71573L34.5419 9.75522L34.6757 9.70256H34.7923H34.9055V9.66307L34.8163 9.64661L34.8506 9.61041L35.0564 9.66307L35.1798 9.70256H35.2793L35.3307 9.75193L35.2724 9.77826L35.2998 9.88029L35.4233 9.94611L35.5056 10.0646V9.9889L35.3924 9.87371L35.4199 9.77497L35.6428 9.92308L35.9446 9.84409L36.3321 9.90662L36.4967 9.84409L36.5756 9.74206L36.6408 9.77168L36.7608 9.93953L36.8225 10.1568L36.994 10.4069L37.1278 10.7097L37.0763 10.8512L37.1552 11.0487L37.1312 11.0849L37.0386 11.414V11.5391L36.9666 11.7135L37.0215 11.7662L36.9769 11.9735L36.8946 12.0492L36.8706 12.1183V12.0854L36.7094 11.9998L36.4179 11.7036L36.3836 11.595L36.2224 11.5259L36.1641 11.4107V11.2955L35.9274 11.1046V11.0322L35.8726 10.9697L35.8314 10.8216H35.7731L35.7491 10.7854L35.7217 10.8249V10.9039V10.9829L35.8486 11.1408V11.2725L36.0749 11.5292L36.1023 11.6214L36.4453 11.9077L36.4967 11.9998L36.4727 12.092V12.1776L36.6785 12.3915V12.4573L36.7402 12.533L36.7642 12.7568L36.8294 12.8556V12.9773L37.1792 13.4941L37.2066 13.6586L37.3061 13.7212L37.5462 14.0503L37.601 14.205L37.6696 14.284V14.2445L37.7074 14.2741L37.8068 14.4222H37.8651L37.9337 14.4913H37.7554L37.7108 14.4551V14.5045L37.7519 14.5835V14.7283L37.7245 14.8106L37.8171 15.1166L38.0057 15.2318H38.1189L38.1943 15.1989L38.2698 15.3536L38.3967 15.3898L38.4344 15.4622L38.575 15.6005L38.6813 15.64V15.6893V15.742L38.7122 15.7881V15.8177L38.7328 15.844V15.867L38.7568 15.9L38.7979 16.0612L38.9145 16.1962V16.2521H38.8871L38.87 16.2159L38.8219 16.16L38.8014 16.1797V16.285L38.9488 16.703L38.9797 16.9334L38.9454 17.1473L39.0277 17.3975L39.1375 17.5982L39.2369 17.618L39.5044 17.7891V17.901H39.6279L39.7582 17.9669V18.0491H39.7822L39.9228 18.194L40.1766 18.8325L40.2589 19.2504H40.3035L40.3378 19.4051V19.4578L40.4201 19.4841L40.4715 19.6059L40.5024 19.7869L40.6087 19.8132V19.6487H40.5813V19.5302L40.6259 19.5104L40.7356 19.6618L40.6945 19.7046L40.7973 19.8527L40.8659 19.9219L40.9277 19.8824H41.0168L41.0546 19.9054L41.1334 19.8791L41.2432 19.9975L41.3015 20.0667L41.4695 20.1062L41.5072 20.1654L41.713 20.3859L41.8022 20.534L41.9256 20.5834L42.0148 20.6854H42.0628V20.6525L42.104 20.7052L42.2034 20.9487L42.2789 20.9685L42.3646 21.0738L42.344 21.11L42.3989 21.2252H42.4606L42.5292 21.2581L42.5772 21.2153L42.5978 21.2482H42.6287V21.291L42.7693 21.4227H42.807V21.4786L42.8276 21.6596L42.7659 21.6827L42.6527 21.8044H42.567L42.5052 21.8933H42.3749L42.4435 21.9723H42.4846L42.5772 21.9328H42.735L42.7556 21.9723L42.7933 22.0447H42.831L43.2117 22.489L43.2563 22.5779L43.318 22.5943L43.4689 22.726L43.6164 22.7589L43.7913 22.7391L43.8462 22.6733L44.0039 22.5812H44.1034L44.3057 22.4232H44.3674L44.4017 22.4561H44.5664L44.6247 22.4364L44.7447 22.489L44.923 22.4693L45.29 22.252L45.41 22.229L45.53 22.2784L45.6192 22.252H45.7838L45.9519 22.1698H46.1439L46.2022 22.2027H46.264L46.5589 22.15L46.6412 22.0513L46.8195 22.0282L46.871 22.071V22.0217L47.0562 22.0019L47.1659 21.8999H47.1865L47.2345 21.8176L47.31 21.7485H47.3614V21.7222L47.4334 21.7715L47.5877 21.8242H47.6598H47.6872L47.622 21.913L47.5843 22.0052V22.1006L47.55 22.1599L47.5775 22.2093H47.6701V22.2422L47.6049 22.2948L47.5535 22.4166L47.6049 22.4857L47.6255 22.5845L47.5809 22.6766H47.6632V22.647H47.7009L47.7386 22.7161L47.6975 22.7359V22.7128H47.6186H47.5672L47.478 22.8576L47.526 22.9333L47.502 23.0716L47.4643 23.1341V23.2855L47.2551 23.5652L47.1145 23.8549L47.0253 23.9602H46.9773H55.8391C55.8862 23.9603 55.9311 23.9416 55.9631 23.9084C55.995 23.8753 56.011 23.8308 56.0072 23.7858C56.0072 23.7101 55.9866 23.6377 55.9763 23.5652C55.918 23.1078 55.846 22.6536 55.7637 22.2027C55.7397 22.0644 55.7122 21.9229 55.6848 21.7847C55.5785 21.2581 55.4619 20.7348 55.3247 20.2181C55.3247 20.1786 55.3007 20.1424 55.2904 20.1029C55.1601 19.6223 55.0126 19.1451 54.8549 18.6745C54.8103 18.5395 54.7657 18.4046 54.7177 18.2729C54.5531 17.8122 54.3747 17.358 54.1964 16.9071C54.1758 16.8643 54.1621 16.8182 54.1415 16.7754C53.9358 16.2883 53.7128 15.8111 53.4796 15.3405C53.4179 15.2154 53.3527 15.0936 53.291 14.9718C53.0875 14.5769 52.8749 14.1885 52.6531 13.8067L52.5091 13.5533C52.2416 13.1145 51.9604 12.6756 51.6654 12.2368L51.4459 11.9077C51.2013 11.5544 50.9475 11.2089 50.6846 10.871L50.4137 10.6307C50.0879 10.2226 49.7552 9.82105 49.4054 9.43268L49.1893 9.199C48.8944 8.86988 48.5926 8.5605 48.2805 8.25113L48.013 7.96479C47.6358 7.59946 47.2482 7.24072 46.8504 6.89514L46.6961 6.77007C46.3531 6.46399 45.969 6.17107 45.5952 5.88473L45.2523 5.62472C44.8339 5.31535 44.4086 5.01255 43.9731 4.72621L43.9422 4.70318C43.4929 4.41026 43.0334 4.1305 42.5704 3.86062L42.1829 3.65327C41.7747 3.42618 41.3632 3.20566 40.9448 2.99502L40.7253 2.88312C40.2452 2.64945 39.7513 2.43222 39.2541 2.22488L38.8734 2.07348C38.4584 1.90563 38.0366 1.74435 37.6113 1.60283L37.2684 1.48435C36.754 1.3132 36.2395 1.15522 35.7011 1.0137L35.3582 0.921546C34.9192 0.809644 34.4768 0.707616 34.0275 0.615461L33.6194 0.529889C33.0741 0.424569 32.5254 0.332415 31.9664 0.260008L31.692 0.227095C31.2085 0.167853 30.7352 0.121776 30.2482 0.0855721L29.7955 0.055951C29.2193 0.0230387 28.6432 0 28.0602 0H27.9573C27.4086 0 26.8564 0.0230387 26.3008 0.055951L25.7213 0.102028C25.3303 0.131649 24.9393 0.171144 24.5484 0.217222C24.3014 0.246843 24.0477 0.273173 23.8007 0.309376H23.7459C11.1582 2.20164 1.4734 11.9864 0.150898 24.1478C0.150898 24.2005 0.150898 24.2531 0.150898 24.3058C0.0994555 24.6612 0.0720195 25.0134 0.0514425 25.3754C0.0514425 25.4807 0.0514425 25.5861 0.0514425 25.7046C0 26.1028 0 26.5175 0 26.9355C0 26.9684 0 27.0013 0 27.0342C0 27.4193 0 27.7978 0.027436 28.1796L0.048013 28.5087C0.06859 28.8378 0.0925965 29.1669 0.126892 29.5158L0.147469 29.7495C0.192052 30.151 0.246924 30.5492 0.308655 30.9442C0.308655 31.0429 0.339521 31.1384 0.356668 31.2371C0.408111 31.5662 0.466412 31.8625 0.531573 32.1718C0.55215 32.2771 0.572727 32.3825 0.596733 32.501C0.679041 32.8893 0.771638 33.2777 0.874523 33.6595C0.874523 33.7023 0.898529 33.7483 0.912247 33.7911C1.00484 34.1202 1.10773 34.4724 1.21404 34.8081L1.31693 35.1372C1.42324 35.4664 1.53299 35.7626 1.65988 36.0752C1.68388 36.1378 1.70446 36.2036 1.72847 36.2661C1.86908 36.6315 2.01998 36.9935 2.1743 37.3522L2.29777 37.6254C2.42466 37.9052 2.55498 38.1849 2.69216 38.4647L2.82934 38.7411C3.00767 39.09 3.17229 39.4323 3.37806 39.7713L3.4638 39.9161C3.63184 40.2123 3.80675 40.5019 3.98851 40.7916L4.16684 41.0713C4.34861 41.3544 4.5338 41.6341 4.72585 41.9106C4.76015 41.9567 4.79101 42.006 4.82531 42.0554C5.04822 42.3845 5.28143 42.684 5.51121 42.9934L5.69983 43.2337C5.89188 43.4739 6.08736 43.7142 6.28627 43.9479C6.35143 44.0269 6.41317 44.1026 6.48176 44.1783C6.73554 44.4712 6.99618 44.7608 7.26368 45.0439L7.39743 45.1854C7.62721 45.4256 7.86384 45.6593 8.10048 45.893L8.34054 46.1234C8.59433 46.3636 8.85154 46.5973 9.11218 46.8277L9.2185 46.9232C9.51343 47.1832 9.81866 47.4333 10.1239 47.6768L10.3742 47.871C10.6177 48.0619 10.8681 48.2528 11.1219 48.4371L11.3585 48.6083C11.6774 48.8354 12.0033 49.0592 12.3325 49.2665L12.5211 49.3817C12.7989 49.5594 13.0801 49.7339 13.3648 49.9017L13.6563 50.0729C13.9718 50.2539 14.2907 50.4316 14.6131 50.6028L14.7126 50.6554C15.0555 50.8397 15.4259 51.0142 15.7894 51.182L16.0844 51.3202C16.3759 51.4519 16.6708 51.577 16.9657 51.702L17.2332 51.8139C17.6071 51.962 17.9843 52.1068 18.365 52.2385L18.5982 52.3208C18.9137 52.4261 19.2292 52.5314 19.5482 52.6269L19.8911 52.7289C20.2649 52.8375 20.6422 52.9395 21.0194 53.035L21.0811 53.0514C21.4824 53.1502 21.8871 53.239 22.2918 53.3213L22.6347 53.3838C22.9777 53.4464 23.2863 53.5023 23.619 53.555L23.9036 53.5978C24.3152 53.657 24.7301 53.7064 25.1451 53.7492L25.4229 53.7722C25.7658 53.8051 26.1088 53.8282 26.4517 53.8479L26.7947 53.8677C27.2234 53.8841 27.6555 53.8973 28.0876 53.8973C28.5197 53.8973 28.9861 53.8973 29.432 53.8677C29.6034 53.8677 29.7749 53.8446 29.9361 53.8347C30.2139 53.815 30.4883 53.8018 30.7626 53.7788C30.941 53.7788 31.1056 53.736 31.2908 53.7163C31.5548 53.6899 31.8155 53.6636 32.0761 53.6274L32.642 53.5385C32.8855 53.499 33.1255 53.4661 33.3656 53.4233C33.6057 53.3806 33.7566 53.3411 33.9521 53.3016C34.1475 53.2621 34.4116 53.2127 34.638 53.16C34.8643 53.1074 35.0323 53.0613 35.2278 53.0119C35.4233 52.9626 35.6702 52.9033 35.8897 52.8441C36.1092 52.7848 36.2773 52.7289 36.4693 52.6696C36.6614 52.6104 36.9014 52.5446 37.1141 52.4755C37.3267 52.4063 37.4913 52.3438 37.6799 52.278C37.8685 52.2122 38.1052 52.1332 38.3178 52.0542C38.5304 51.9752 38.6916 51.9028 38.8802 51.8271C39.0689 51.7514 39.2884 51.6691 39.4907 51.5835C39.693 51.498 39.8611 51.4157 40.0428 51.3334C40.2246 51.2511 40.4441 51.1557 40.6396 51.0635C40.8351 50.9714 40.9825 50.8825 41.1746 50.7904C41.3666 50.6982 41.5655 50.5962 41.7576 50.4941C41.9496 50.3921 42.1005 50.3 42.2755 50.2012C42.4504 50.1025 42.6596 49.9906 42.8447 49.8721C43.0299 49.7536 43.1877 49.6647 43.3489 49.5594C43.5101 49.4541 43.7193 49.3323 43.901 49.2138C44.0828 49.0954 44.2268 48.99 44.3915 48.8847C44.5561 48.7794 44.7344 48.6445 44.923 48.5194L45.3997 48.1607C45.5712 48.0323 45.7427 47.9072 45.9107 47.7756L46.3668 47.3938C46.5315 47.2589 46.7098 47.1272 46.8573 46.989C47.0047 46.8507 47.1488 46.7257 47.2962 46.594C47.4437 46.4624 47.6152 46.311 47.7729 46.1629C47.9307 46.0148 48.0507 45.8864 48.1913 45.7515C48.332 45.6165 48.4966 45.452 48.644 45.3006C48.7915 45.1492 48.915 45.0109 49.0487 44.8694C49.1825 44.7279 49.3402 44.56 49.4808 44.4021C49.6214 44.2441 49.7346 44.1026 49.8615 43.9512C49.9884 43.7998 50.1393 43.622 50.273 43.4674C50.4068 43.3127 50.5131 43.1382 50.6366 42.9967C50.76 42.8552 50.8938 42.6676 51.0207 42.4964C51.1476 42.3253 51.247 42.1673 51.3636 42.0126C51.4802 41.8579 51.6071 41.6835 51.7066 41.4959C51.806 41.3083 51.9192 41.1668 52.029 40.9956C52.1387 40.8245 52.2553 40.6435 52.3719 40.4625C52.4885 40.2814 52.5708 40.1333 52.6703 39.9424C52.7697 39.7515 52.8795 39.5837 52.9789 39.4027C53.0784 39.2217 53.1675 39.0439 53.2601 38.8662C53.3527 38.6885 53.4522 38.4976 53.5414 38.31C53.6305 38.1224 53.7094 37.9447 53.7951 37.7603C53.8809 37.576 53.9701 37.3851 54.0524 37.1943C54.1347 37.0034 54.2033 36.8223 54.2787 36.6347C54.3542 36.4471 54.4365 36.2464 54.5119 36.0489C54.5874 35.8514 54.6422 35.6704 54.7108 35.4828C54.7794 35.2952 54.8514 35.0813 54.9166 34.8805C54.9818 34.6798 55.0332 34.4954 55.0881 34.3013C55.1429 34.1071 55.2115 33.8964 55.2664 33.6891C55.3213 33.4817 55.3659 33.2941 55.4139 33.0934C55.4619 32.8926 55.5168 32.6853 55.5613 32.4779C55.6059 32.2706 55.6402 32.0731 55.6779 31.8723C55.7157 31.6716 55.7637 31.4543 55.798 31.2437C55.8323 31.0331 55.8563 30.8323 55.8871 30.6282C55.918 30.4242 55.942 30.2596 55.9626 30.0753C55.9665 29.9874 55.8963 29.9128 55.8048 29.9075ZM22.7787 8.36961L22.6827 8.2972V8.25442H22.7959L22.8405 8.30708L22.7787 8.36961ZM9.09504 24.4769L9.01273 24.4276L8.99558 24.3749L9.02302 24.3321H9.08818L9.13619 24.3881V24.467L9.09504 24.4769ZM20.5461 28.7259L20.4775 28.7687H20.4295V28.6601L20.5016 28.5877L20.577 28.6338L20.5461 28.7259ZM21.575 26.8696V26.7808H21.6539L21.7019 26.6458L21.8288 26.5208L21.8734 26.5603V26.7248L21.7842 26.9519L21.6676 26.9355L21.575 26.8696Z" fill="white"/>
<path d="M35.5638 44.7266L35.5059 44.7365L35.465 44.7464L35.5638 44.7266Z" fill="white"/>
<path d="M67.2169 43.9073L65.8451 47.0339H64.4459L69.7444 35.4883L74.9093 47.0339H73.4929L72.1382 43.9073H67.2169ZM69.6999 38.3517L67.7348 42.7652H71.6067L69.6999 38.3517Z" fill="white"/>
<path d="M93.4645 37.1538V40.445H97.2884V41.5838H93.4645V47.0505H92.1853V36.0117H97.3947V37.1538H93.4645Z" fill="white"/>
<path d="M116.381 47.0341H115.101V36.0117H116.761C118.942 36.0117 120.966 36.5679 120.966 39.0528C120.966 40.7478 119.855 41.9491 118.088 42.0939L121.744 47.0308H120.174L116.703 42.1927H116.381V47.0341ZM116.381 41.1098H116.778C118.226 41.1098 119.687 40.8465 119.687 39.1351C119.687 37.3216 118.315 37.1604 116.761 37.1604H116.381V41.1098Z" fill="white"/>
<path d="M140.55 47.0341H139.271V36.0117H140.55V47.0341Z" fill="white"/>
<path d="M167.792 38.4272C166.873 37.5034 165.604 36.9761 164.273 36.9659C161.715 36.9659 159.643 39.1019 159.643 41.5276C159.66 44.0095 161.732 46.0277 164.318 46.0794C165.631 46.0461 166.878 45.5203 167.792 44.6148V46.1353C166.794 46.8306 165.595 47.2092 164.362 47.2181C162.24 47.2181 160.279 46.1316 159.218 44.3679C158.157 42.6042 158.157 40.4312 159.218 38.6675C160.279 36.9038 162.24 35.8173 164.362 35.8173C165.599 35.7996 166.806 36.1796 167.792 36.8968V38.4272ZM187.662 43.9104L186.291 47.0371H184.888L190.19 35.4915L195.351 47.0371H193.935L192.563 43.9104H187.662ZM190.145 38.3548L188.18 42.7684H192.052L190.145 38.3548ZM80.5214 22.5207H67.5613C67.5613 24.9233 68.8782 26.22 71.416 26.22C72.7364 26.22 73.6829 25.7988 74.3586 24.6962H80.2847C79.8485 26.5042 78.6634 28.0635 77.0027 29.0143C75.3212 29.9586 73.4017 30.4413 71.4538 30.4098C65.7025 30.4098 61.4053 27.293 61.4053 21.5465C61.4053 15.9942 65.363 12.6602 71.0079 12.6602C77.0301 12.6602 80.5145 16.2311 80.5145 21.9118L80.5214 22.5207ZM74.8044 19.111C74.4586 17.5405 72.9919 16.4322 71.32 16.478C69.5264 16.478 68.038 17.3864 67.6642 19.111H74.8044Z" fill="white"/>
<path d="M99.5408 14.811V5.375H106.173V29.8552H99.5408V19.8235H89.9656V29.8552H83.3364V5.375H89.9656V14.811H99.5408Z" fill="white"/>
<path d="M127.682 22.5207H114.725C114.725 24.9233 116.046 26.22 118.58 26.22C119.9 26.22 120.847 25.7988 121.526 24.6962H127.445C127.007 26.5071 125.817 28.0673 124.15 29.0143C122.468 29.9586 120.549 30.4413 118.601 30.4098C112.849 30.4098 108.552 27.293 108.552 21.5465C108.552 15.9942 112.51 12.6602 118.155 12.6602C124.177 12.6602 127.661 16.2311 127.661 21.9118L127.682 22.5207ZM121.965 19.111C121.619 17.5405 120.153 16.4322 118.481 16.478C116.687 16.478 115.199 17.3864 114.825 19.111H121.965ZM149.991 29.8569H143.818V28.0072H143.753C142.669 29.6528 140.536 30.4098 138.506 30.4098C133.361 30.4098 129.743 26.2859 129.743 21.5235C129.743 16.761 133.296 12.6602 138.44 12.6602C140.436 12.6602 142.532 13.3744 143.818 14.8357V13.1999H149.991V29.8569ZM136.119 21.5465C136.119 23.6562 137.573 25.2788 140.076 25.2788C142.58 25.2788 144.041 23.6562 144.041 21.5465C144.041 19.4993 142.58 17.7747 140.076 17.7747C137.573 17.7747 136.119 19.4993 136.119 21.5465Z" fill="white"/>
<path d="M159.543 29.8549H153.387V2.90625H159.543V29.8549Z" fill="white"/>
<path d="M183.558 2.90625V15.3109H183.627C185.046 13.4909 186.771 12.6483 189.175 12.6483C193.572 12.6483 195.692 15.4393 195.692 19.6586V29.8615H189.518V21.3174C189.518 19.369 189.213 17.3679 186.744 17.3679C184.275 17.3679 183.531 19.3822 183.531 21.3174V29.8549H177.357V2.90625H183.558Z" fill="white"/>
<path d="M175.035 13.1979H171.551V2.90625H165.391V13.1979H161.91V18.069H165.391V29.8549H171.551V18.069H175.035V13.1979Z" fill="white"/>
</svg>
