<svg width="80" height="80" viewBox="0 0 80 80" fill="none" xmlns="http://www.w3.org/2000/svg">
<circle cx="40" cy="40.0005" r="40" fill="#9C69E2" fill-opacity="0.1"/>
<path d="M53.9188 29.9903C50.8823 25.276 44.903 22 38.0181 22C28.0701 22 20 28.6586 20 36.9818V36.9814C19.9996 39.9275 20.9891 42.7886 22.81 45.1048V51.1643C22.8088 51.9286 23.1869 52.6438 23.8192 53.0734C24.4515 53.503 25.2558 53.5909 25.9662 53.308L28.8163 52.1762" fill="#9C69E2" fill-opacity="0.1"/>
<path d="M53.9188 29.9903C50.8823 25.276 44.903 22 38.0181 22C28.0701 22 20 28.6586 20 36.9818V36.9814C19.9996 39.9275 20.9891 42.7886 22.81 45.1048V51.1643C22.8088 51.9286 23.1869 52.6438 23.8192 53.0734C24.4515 53.503 25.2558 53.5909 25.9662 53.308L28.8163 52.1762" stroke="#9C69E2" stroke-width="3.99514" stroke-linecap="round" stroke-linejoin="round"/>
<path d="M48.1125 36.8086C54.8508 36.8086 60.311 41.3496 60.311 46.9431V46.9427C60.2942 48.9275 59.6145 50.8493 58.3801 52.4028V56.518C58.3838 57.046 58.1197 57.5402 57.6787 57.8304C57.2377 58.121 56.6798 58.1684 56.1959 57.9563L52.3338 56.4248H52.3342C50.9503 56.8568 49.5091 57.0767 48.0592 57.0771C41.3209 57.0771 35.8607 52.5361 35.8607 46.9427C35.8607 41.3496 41.3205 36.8086 48.1124 36.8086L48.1125 36.8086Z" fill="#9C69E2" fill-opacity="0.1" stroke="#9C69E2" stroke-width="3.99514" stroke-linecap="round" stroke-linejoin="round"/>
</svg>
