<svg width="212" height="39" viewBox="0 0 212 39" fill="none" xmlns="http://www.w3.org/2000/svg">
<path d="M27.3365 16.2246C32.4582 12.2093 42.9182 -2.25963 26.543 0.301852C19.4013 1.34029 8.9414 7.98629 6.84942 15.6707C5.76735 13.5939 4.54101 11.6554 3.24254 9.71702C1.22269 7.08631 -1.01357 9.16319 1.15055 11.7939C7.56576 19.2478 11.2645 28.5109 11.6826 38.1702C12.1876 33.5319 11.3941 27.8551 9.44637 22.3167C10.3842 22.5937 11.4662 22.7321 12.404 22.7321C15.7223 27.9935 20.8441 32.4934 26.543 34.5703C31.809 36.578 38.8063 35.4011 35.9208 27.3012C34.4059 22.8706 30.8712 18.9937 27.3365 16.2246ZM28.0578 2.17104C37.1472 1.20183 27.4086 12.0708 24.2346 14.0785C21.2769 12.2093 17.5258 10.5478 13.9189 11.0324C16.5158 7.77861 22.8639 2.7941 28.0578 2.17104ZM13.8468 13.3862C16.2994 13.1785 18.9685 14.4938 21.0605 15.8784C19.0407 16.8476 16.8765 17.4015 14.6403 17.6092C11.3219 17.6092 10.6006 13.6631 13.8468 13.3862ZM26.3987 30.2781C22.1426 29.1012 18.1029 25.7782 15.2174 22.4552C17.5979 21.9706 19.9784 21.0706 22.1426 19.8245C22.9361 19.4783 23.7296 18.9245 24.451 18.4399C26.9758 20.6552 29.6449 23.6321 30.6548 27.0243C31.6647 30.6935 28.9235 30.9704 26.3987 30.2781Z" fill="white"/>
<path d="M62.1794 7.0864H49.7717C49.3389 7.0864 48.9782 7.43254 48.9782 7.84792H48.9061V26.5398C48.9061 26.9552 49.2668 27.3013 49.6996 27.3013C50.0603 27.3013 50.421 26.9552 50.4931 26.5398V18.0938H61.0252C61.458 18.0938 61.6744 17.7477 61.6744 17.4015C61.6744 16.9862 61.3859 16.7785 61.0252 16.7785H50.421V8.54021H62.1794C62.6122 8.54021 62.8286 8.19406 62.8286 7.84792C62.8286 7.64023 62.6122 7.36331 62.1794 7.0864ZM67.8782 6.11719H67.8061C67.4454 6.11719 67.229 6.3941 67.229 6.74025V26.4706C67.229 26.886 67.5175 27.1629 67.8782 27.1629C68.3111 27.1629 68.5275 26.8167 68.5275 26.4706V6.87871C68.5275 6.3941 68.3111 6.11719 67.8782 6.11719ZM85.8405 13.1786C85.8405 12.7632 85.5519 12.4863 85.1912 12.4863C84.7584 12.4863 84.542 12.8324 84.542 13.1786V21.4168C84.542 24.186 82.3057 26.4013 79.5645 26.3321C76.679 26.3321 75.0198 24.3937 75.0198 21.3476V13.1786C75.0198 12.7632 74.7313 12.4863 74.3706 12.4863C74.0821 12.4863 73.7214 12.8324 73.7214 13.1786V21.5553C73.7214 25.0168 75.8855 27.5782 79.4202 27.5782C81.5844 27.6475 83.6042 26.4706 84.6141 24.5322V26.6783C84.6141 27.0936 84.9748 27.3013 85.2634 27.3013C85.6962 27.3013 85.9126 26.9552 85.9126 26.6783H85.8405V13.1786ZM97.7432 13.8709C98.0317 13.8709 98.3924 13.5939 98.3924 13.2478C98.3924 12.9709 98.0317 12.6247 97.7432 12.6247H93.1985V8.54021C93.1985 8.19406 92.8378 7.84792 92.5493 7.84792H92.4771C92.1164 7.84792 91.9 8.19406 91.9 8.54021V12.6247H90.313C89.9523 12.6247 89.6638 12.8324 89.6638 13.1786C89.6638 13.5247 89.9523 13.8709 90.313 13.8709H91.9V23.4245C91.9 26.1244 93.7035 27.4398 95.7955 27.4398C96.5168 27.4398 97.2382 27.3013 97.8874 27.0936C98.1039 26.9552 98.3203 26.7475 98.3203 26.4706C98.3203 26.1244 98.0317 25.9167 97.7432 25.9167C97.2382 26.0552 96.6611 26.1244 96.084 26.1244C94.3527 26.1244 93.1985 25.3629 93.1985 23.286V13.8709H97.7432ZM108.924 13.8709C109.285 13.8709 109.574 13.5939 109.574 13.2478C109.574 12.9709 109.285 12.6247 108.924 12.6247H104.38V8.54021C104.38 8.19406 104.091 7.84792 103.731 7.84792H103.658C103.298 7.84792 103.081 8.19406 103.081 8.54021V12.6247H101.494C101.206 12.6247 100.845 12.8324 100.845 13.1786C100.845 13.5247 101.206 13.8709 101.494 13.8709H103.081V23.4245C103.081 26.1244 104.885 27.4398 107.049 27.4398C107.698 27.4398 108.42 27.3013 109.069 27.0936C109.357 26.9552 109.502 26.7475 109.502 26.4706C109.502 26.1244 109.285 25.9167 108.924 25.9167C108.42 26.0552 107.842 26.1244 107.265 26.1244C105.534 26.1244 104.38 25.3629 104.38 23.286V13.8709H108.924ZM118.807 12.2094C114.984 12.2094 112.099 15.5324 112.099 19.8938V19.963C112.099 24.6014 115.273 27.6475 119.096 27.6475C121.116 27.7167 123.208 26.886 124.578 25.2937C124.795 25.1552 124.867 24.9475 124.867 24.8091C124.867 24.4629 124.506 24.1168 124.218 24.1168L123.785 24.2552C123.213 24.8956 122.505 25.4119 121.709 25.7699C120.913 26.128 120.047 26.3196 119.168 26.3321C116.355 26.3321 113.83 24.186 113.541 20.5861H124.795C125.083 20.5861 125.444 20.2399 125.444 19.8938C125.444 15.5324 122.847 12.2094 118.807 12.2094ZM113.469 19.2015C113.686 16.017 115.922 13.5247 118.735 13.5247C121.981 13.5247 123.713 16.2247 123.857 19.2015H113.469ZM136.481 12.417C133.884 12.6247 131.72 14.3555 130.782 16.8477V13.2478C130.782 12.9709 130.421 12.6247 130.133 12.6247C129.7 12.6247 129.484 12.8324 129.412 13.2478V26.8167C129.412 27.1629 129.7 27.509 130.061 27.509C130.421 27.509 130.71 27.2321 130.782 26.8167V21.4168C130.782 16.64 133.451 14.3555 136.481 14.0093H136.553C136.986 14.0093 137.202 13.5939 137.202 13.2478C137.202 12.7632 136.914 12.417 136.481 12.417Z" fill="white"/>
<path d="M160.784 11.6544C159.846 11.6544 158.981 12.3467 158.764 13.3159L156.312 21.2081L153.931 13.3159C153.715 12.3467 152.777 11.5852 151.695 11.5852H151.478C150.396 11.5852 149.458 12.2083 149.242 13.3159L146.862 21.0696L144.553 13.2467C144.265 12.3467 143.471 11.5852 142.461 11.5852H142.389C141.307 11.5852 140.513 12.4852 140.513 13.5929L140.658 14.6313L144.337 25.5003C144.625 26.608 145.563 27.3695 146.717 27.4387H146.862C147.944 27.4387 148.809 26.6772 149.17 25.5695L151.55 17.8158L153.931 25.5695C154.22 26.6772 155.157 27.4387 156.239 27.4387H156.456C157.61 27.4387 158.548 26.6772 158.836 25.5003L162.515 14.4928L162.732 13.6621V13.5929C162.732 12.4852 161.866 11.6544 160.784 11.6544ZM171.388 11.6544C169.729 11.5852 168.142 11.9314 166.555 12.416C165.906 12.6929 165.545 13.3159 165.545 14.0775C165.545 15.1159 166.339 15.8774 167.349 15.8082C167.493 15.8082 167.709 15.8082 167.926 15.6697C168.863 15.3928 169.873 15.2544 170.883 15.2544C173.047 15.2544 174.13 16.2236 174.13 18.0928V18.3004C172.975 17.8851 171.677 17.7466 170.451 17.7466C166.916 17.7466 164.463 19.3389 164.463 22.7311C164.463 25.708 166.844 27.4387 169.585 27.4387C171.316 27.5079 172.975 26.7464 174.13 25.5003C174.202 26.608 175.067 27.3695 176.149 27.3695C177.304 27.3695 178.241 26.4003 178.241 25.2234V18.3004C178.313 16.5697 177.736 14.7698 176.582 13.4544C175.356 12.3467 173.697 11.6544 171.388 11.6544ZM174.202 21.6927C174.202 23.3542 172.759 24.3926 170.811 24.3234C169.441 24.3234 168.503 23.6311 168.503 22.4542V22.385C168.503 21.0696 169.657 20.2389 171.46 20.2389C172.326 20.2389 173.336 20.5158 174.202 20.8619V21.6927ZM192.885 11.5852C192.02 11.5852 191.154 12.139 190.938 13.1083L187.619 22.0388L184.445 13.1775C184.157 12.2083 183.363 11.5852 182.353 11.5852C181.271 11.5852 180.405 12.416 180.261 13.5929C180.261 13.939 180.405 14.2852 180.55 14.6313L185.167 25.5003C185.455 26.608 186.393 27.3695 187.547 27.4387H187.836C188.846 27.3695 189.855 26.6772 190.288 25.5695L194.761 14.7005L194.977 13.6621V13.5929C194.977 12.4852 194.112 11.5852 192.885 11.5852ZM204.067 11.516C199.666 11.516 196.636 15.1159 196.636 19.4773V20.1696C196.781 24.3926 200.388 27.6464 204.499 27.4387C206.375 27.4387 208.178 26.8156 209.693 25.5695C210.126 25.2234 210.27 24.808 210.27 24.3234V24.2542C210.27 23.285 209.549 22.5234 208.611 22.5234C208.251 22.5234 207.89 22.5927 207.601 22.8696C206.761 23.5644 205.681 23.9345 204.572 23.908C202.768 23.9772 201.181 22.7311 200.965 20.8619H209.405C210.487 20.7927 211.352 19.8235 211.28 18.7158V18.3697C211.28 14.6313 208.034 11.3775 204.067 11.516ZM200.82 18.3004C201.181 16.2928 202.335 15.0467 204.067 15.0467C205.798 15.0467 206.952 16.362 207.169 18.3004H200.82Z" fill="white" stroke="white"/>
</svg>
