<svg width="80" height="81" viewBox="0 0 80 81" fill="none" xmlns="http://www.w3.org/2000/svg">
<circle cx="40" cy="40.395" r="40" fill="#1B347A" fill-opacity="0.1"/>
<path d="M41.982 23C32.046 23 24 31.064 24 41C24 50.936 32.046 59 41.982 59C51.936 59 60 50.936 60 41C60 31.064 51.936 23 41.982 23ZM54.456 33.8H49.146C48.57 31.55 47.742 29.39 46.662 27.392C49.974 28.526 52.728 30.83 54.456 33.8ZM42 26.672C43.494 28.832 44.664 31.226 45.438 33.8H38.562C39.336 31.226 40.506 28.832 42 26.672ZM28.068 44.6C27.78 43.448 27.6 42.242 27.6 41C27.6 39.758 27.78 38.552 28.068 37.4H34.152C34.008 38.588 33.9 39.776 33.9 41C33.9 42.224 34.008 43.412 34.152 44.6H28.068ZM29.544 48.2H34.854C35.43 50.45 36.258 52.61 37.338 54.608C34.026 53.474 31.272 51.188 29.544 48.2ZM34.854 33.8H29.544C31.272 30.812 34.026 28.526 37.338 27.392C36.258 29.39 35.43 31.55 34.854 33.8ZM42 55.328C40.506 53.168 39.336 50.774 38.562 48.2H45.438C44.664 50.774 43.494 53.168 42 55.328ZM46.212 44.6H37.788C37.626 43.412 37.5 42.224 37.5 41C37.5 39.776 37.626 38.57 37.788 37.4H46.212C46.374 38.57 46.5 39.776 46.5 41C46.5 42.224 46.374 43.412 46.212 44.6ZM46.662 54.608C47.742 52.61 48.57 50.45 49.146 48.2H54.456C52.728 51.17 49.974 53.474 46.662 54.608ZM49.848 44.6C49.992 43.412 50.1 42.224 50.1 41C50.1 39.776 49.992 38.588 49.848 37.4H55.932C56.22 38.552 56.4 39.758 56.4 41C56.4 42.242 56.22 43.448 55.932 44.6H49.848Z" fill="#1B347A"/>
</svg>
