<svg width="203" height="60" viewBox="0 0 203 60" fill="none" xmlns="http://www.w3.org/2000/svg">
<mask id="mask0_236_3653" style="mask-type:alpha" maskUnits="userSpaceOnUse" x="0" y="0" width="203" height="60">
<path fill-rule="evenodd" clip-rule="evenodd" d="M0 0H202.5V59.9999H0V0Z" fill="white"/>
</mask>
<g mask="url(#mask0_236_3653)">
<path fill-rule="evenodd" clip-rule="evenodd" d="M195 60H7.5C3.3 60 0 56.7 0 52.5V7.5C0 3.3 3.3 0 7.5 0H195C199.2 0 202.5 3.3 202.5 7.5V52.5C202.5 56.7 199.2 60 195 60" fill="black"/>
</g>
<path fill-rule="evenodd" clip-rule="evenodd" d="M113.4 19.5001V10.5001H114.75L119.1 17.5501V10.5001H120.3V19.5001H119.1L114.45 12.1501V19.5001H113.4ZM104.7 17.5501C105.3 18.1501 106.2 18.6001 107.1 18.6001C108 18.6001 108.9 18.3001 109.5 17.5501C110.1 16.9501 110.55 16.0501 110.55 15.0001C110.55 13.9501 110.25 13.0501 109.5 12.4501C108.9 11.8501 108 11.4001 107.1 11.4001C106.2 11.4001 105.3 11.7001 104.7 12.4501C104.1 13.0501 103.65 13.9501 103.65 15.0001C103.65 16.0501 103.95 16.9501 104.7 17.5501V17.5501ZM110.4 18.3001C109.5 19.2001 108.45 19.6501 107.1 19.6501C105.75 19.6501 104.7 19.2001 103.8 18.3001C102.9 17.4001 102.45 16.3501 102.45 15.0001C102.45 13.6501 102.9 12.6001 103.8 11.7001C104.7 10.8001 105.75 10.3501 107.1 10.3501C108.45 10.3501 109.5 10.8001 110.4 11.7001C111.3 12.6001 111.75 13.6501 111.75 15.0001C111.75 16.3501 111.3 17.4001 110.4 18.3001V18.3001ZM96.15 19.5001H94.95V11.5501H92.4V10.5001H98.55V11.5501H96V19.5001H96.15ZM89.85 19.5001H91.05V10.5001H89.85V19.5001ZM82.95 19.5001H81.75V11.5501H79.2V10.5001H85.5V11.5501H82.95V19.5001ZM78 11.5501H73.95V14.4001H77.7V15.4501H73.95V18.3001H78V19.5001H72.75V10.5001H78V11.5501ZM71.1 15.3001C71.1 16.5001 70.8 17.5501 70.05 18.3001C69.15 19.2001 68.1 19.6501 66.75 19.6501C65.4 19.6501 64.35 19.2001 63.45 18.3001C62.55 17.4001 62.1 16.3501 62.1 15.0001C62.1 13.6501 62.55 12.6001 63.45 11.7001C64.35 10.8001 65.4 10.3501 66.75 10.3501C67.35 10.3501 67.95 10.5001 68.55 10.8001C69.15 11.1001 69.6 11.4001 69.9 11.8501L69.15 12.6001C68.55 11.8501 67.8 11.5501 66.75 11.5501C65.85 11.5501 64.95 11.8501 64.35 12.6001C63.6 13.2001 63.3 14.1001 63.3 15.1501C63.3 16.2001 63.6 17.1001 64.35 17.7001C65.1 18.3001 65.85 18.7501 66.75 18.7501C67.8 18.7501 68.55 18.4501 69.3 17.7001C69.75 17.2501 70.05 16.6501 70.05 15.9001H66.75V14.7001H71.1V15.3001Z" fill="white"/>
<path d="M113.4 19.5001H113.373V19.5271H113.4V19.5001ZM113.4 10.5001V10.4731H113.373V10.5001H113.4ZM114.75 10.5001L114.773 10.4859L114.765 10.4731H114.75V10.5001ZM119.1 17.5501L119.077 17.5643L119.127 17.6453V17.5501H119.1ZM119.1 10.5001V10.4731H119.073V10.5001H119.1ZM120.3 10.5001H120.327V10.4731H120.3V10.5001ZM120.3 19.5001V19.5271H120.327V19.5001H120.3ZM119.1 19.5001L119.077 19.5145L119.085 19.5271H119.1V19.5001ZM114.45 12.1501L114.473 12.1357L114.423 12.0569V12.1501H114.45ZM114.45 19.5001V19.5271H114.477V19.5001H114.45ZM104.7 17.5501L104.719 17.5309L104.717 17.529L104.7 17.5501ZM109.5 17.5501L109.481 17.5309L109.479 17.5332L109.5 17.5501ZM109.5 12.4501L109.481 12.4693L109.483 12.4712L109.5 12.4501ZM104.7 12.4501L104.719 12.4693L104.721 12.467L104.7 12.4501ZM94.95 19.5001H94.923V19.5271H94.95V19.5001ZM94.95 11.5501H94.977V11.5231H94.95V11.5501ZM92.4 11.5501H92.373V11.5771H92.4V11.5501ZM92.4 10.5001V10.4731H92.373V10.5001H92.4ZM98.55 10.5001H98.577V10.4731H98.55V10.5001ZM98.55 11.5501V11.5771H98.577V11.5501H98.55ZM96 11.5501V11.5231H95.973V11.5501H96ZM96 19.5001H95.973V19.5271H96V19.5001ZM89.85 19.5001H89.823V19.5271H89.85V19.5001ZM91.05 19.5001V19.5271H91.077V19.5001H91.05ZM91.05 10.5001H91.077V10.4731H91.05V10.5001ZM89.85 10.5001V10.4731H89.823V10.5001H89.85ZM82.95 19.5001V19.5271H82.977V19.5001H82.95ZM81.75 19.5001H81.723V19.5271H81.75V19.5001ZM81.75 11.5501H81.777V11.5231H81.75V11.5501ZM79.2 11.5501H79.173V11.5771H79.2V11.5501ZM79.2 10.5001V10.4731H79.173V10.5001H79.2ZM85.5 10.5001H85.527V10.4731H85.5V10.5001ZM85.5 11.5501V11.5771H85.527V11.5501H85.5ZM82.95 11.5501V11.5231H82.923V11.5501H82.95ZM78 11.5501V11.5771H78.027V11.5501H78ZM73.95 11.5501V11.5231H73.923V11.5501H73.95ZM73.95 14.4001H73.923V14.4271H73.95V14.4001ZM77.7 14.4001H77.727V14.3731H77.7V14.4001ZM77.7 15.4501V15.4771H77.727V15.4501H77.7ZM73.95 15.4501V15.4231H73.923V15.4501H73.95ZM73.95 18.3001H73.923V18.3271H73.95V18.3001ZM78 18.3001H78.027V18.2731H78V18.3001ZM78 19.5001V19.5271H78.027V19.5001H78ZM72.75 19.5001H72.723V19.5271H72.75V19.5001ZM72.75 10.5001V10.4731H72.723V10.5001H72.75ZM78 10.5001H78.027V10.4731H78V10.5001ZM69.9 11.8501L69.9191 11.8692L69.9347 11.8535L69.9225 11.8351L69.9 11.8501ZM69.15 12.6001L69.1289 12.617L69.1478 12.6405L69.1691 12.6192L69.15 12.6001ZM64.35 12.6001L64.3673 12.6217L64.3711 12.617L64.35 12.6001ZM70.05 15.9001H70.077V15.8731H70.05V15.9001ZM66.75 15.9001H66.723V15.9271H66.75V15.9001ZM66.75 14.7001V14.6731H66.723V14.7001H66.75ZM71.1 14.7001H71.127V14.6731H71.1V14.7001ZM113.427 19.5001V10.5001H113.373V19.5001H113.427ZM113.4 10.5271H114.75V10.4731H113.4V10.5271ZM114.727 10.5143L119.077 17.5643L119.123 17.5359L114.773 10.4859L114.727 10.5143ZM119.127 17.5501V10.5001H119.073V17.5501H119.127ZM119.1 10.5271H120.3V10.4731H119.1V10.5271ZM120.273 10.5001V19.5001H120.327V10.5001H120.273ZM120.3 19.4731H119.1V19.5271H120.3V19.4731ZM119.123 19.4857L114.473 12.1357L114.427 12.1645L119.077 19.5145L119.123 19.4857ZM114.423 12.1501V19.5001H114.477V12.1501H114.423ZM114.45 19.4731H113.4V19.5271H114.45V19.4731ZM104.681 17.5692C105.285 18.1733 106.192 18.6271 107.1 18.6271V18.5731C106.208 18.5731 105.315 18.1269 104.719 17.531L104.681 17.5692ZM107.1 18.6271C108.006 18.6271 108.915 18.3251 109.521 17.567L109.479 17.5332C108.885 18.2751 107.994 18.5731 107.1 18.5731V18.6271ZM109.519 17.5692C110.124 16.9646 110.577 16.0579 110.577 15.0001H110.523C110.523 16.0423 110.076 16.9356 109.481 17.531L109.519 17.5692ZM110.577 15.0001C110.577 13.9451 110.275 13.0359 109.517 12.429L109.483 12.4712C110.225 13.0643 110.523 13.9551 110.523 15.0001H110.577ZM109.519 12.431C108.915 11.8269 108.008 11.3731 107.1 11.3731V11.4271C107.992 11.4271 108.885 11.8733 109.481 12.4692L109.519 12.431ZM107.1 11.3731C106.194 11.3731 105.285 11.6751 104.679 12.4332L104.721 12.467C105.315 11.7251 106.206 11.4271 107.1 11.4271V11.3731ZM104.681 12.431C104.076 13.0356 103.623 13.9423 103.623 15.0001H103.677C103.677 13.9579 104.124 13.0646 104.719 12.4692L104.681 12.431ZM103.623 15.0001C103.623 16.0551 103.925 16.9643 104.683 17.5712L104.717 17.529C103.975 16.9359 103.677 16.0451 103.677 15.0001H103.623ZM110.381 18.281C109.486 19.1759 108.443 19.6231 107.1 19.6231V19.6771C108.457 19.6771 109.514 19.2243 110.419 18.3192L110.381 18.281ZM107.1 19.6231C105.757 19.6231 104.714 19.1759 103.819 18.281L103.781 18.3192C104.686 19.2243 105.743 19.6771 107.1 19.6771V19.6231ZM103.819 18.281C102.924 17.3861 102.477 16.343 102.477 15.0001H102.423C102.423 16.3572 102.876 17.4141 103.781 18.3192L103.819 18.281ZM102.477 15.0001C102.477 13.6572 102.924 12.6141 103.819 11.7192L103.781 11.681C102.876 12.5861 102.423 13.643 102.423 15.0001H102.477ZM103.819 11.7192C104.714 10.8243 105.757 10.3771 107.1 10.3771V10.3231C105.743 10.3231 104.686 10.7759 103.781 11.681L103.819 11.7192ZM107.1 10.3771C108.443 10.3771 109.486 10.8243 110.381 11.7192L110.419 11.681C109.514 10.7759 108.457 10.3231 107.1 10.3231V10.3771ZM110.381 11.7192C111.276 12.6141 111.723 13.6572 111.723 15.0001H111.777C111.777 13.643 111.324 12.5861 110.419 11.681L110.381 11.7192ZM111.723 15.0001C111.723 16.343 111.276 17.3861 110.381 18.281L110.419 18.3192C111.324 17.4141 111.777 16.3572 111.777 15.0001H111.723ZM96.15 19.4731H94.95V19.5271H96.15V19.4731ZM94.977 19.5001V11.5501H94.923V19.5001H94.977ZM94.95 11.5231H92.4V11.5771H94.95V11.5231ZM92.427 11.5501V10.5001H92.373V11.5501H92.427ZM92.4 10.5271H98.55V10.4731H92.4V10.5271ZM98.523 10.5001V11.5501H98.577V10.5001H98.523ZM98.55 11.5231H96V11.5771H98.55V11.5231ZM95.973 11.5501V19.5001H96.027V11.5501H95.973ZM96 19.5271H96.15V19.4731H96V19.5271ZM89.85 19.5271H91.05V19.4731H89.85V19.5271ZM91.077 19.5001V10.5001H91.023V19.5001H91.077ZM91.05 10.4731H89.85V10.5271H91.05V10.4731ZM89.823 10.5001V19.5001H89.877V10.5001H89.823ZM82.95 19.4731H81.75V19.5271H82.95V19.4731ZM81.777 19.5001V11.5501H81.723V19.5001H81.777ZM81.75 11.5231H79.2V11.5771H81.75V11.5231ZM79.227 11.5501V10.5001H79.173V11.5501H79.227ZM79.2 10.5271H85.5V10.4731H79.2V10.5271ZM85.473 10.5001V11.5501H85.527V10.5001H85.473ZM85.5 11.5231H82.95V11.5771H85.5V11.5231ZM82.923 11.5501V19.5001H82.977V11.5501H82.923ZM78 11.5231H73.95V11.5771H78V11.5231ZM73.923 11.5501V14.4001H73.977V11.5501H73.923ZM73.95 14.4271H77.7V14.3731H73.95V14.4271ZM77.673 14.4001V15.4501H77.727V14.4001H77.673ZM77.7 15.4231H73.95V15.4771H77.7V15.4231ZM73.923 15.4501V18.3001H73.977V15.4501H73.923ZM73.95 18.3271H78V18.2731H73.95V18.3271ZM77.973 18.3001V19.5001H78.027V18.3001H77.973ZM78 19.4731H72.75V19.5271H78V19.4731ZM72.777 19.5001V10.5001H72.723V19.5001H72.777ZM72.75 10.5271H78V10.4731H72.75V10.5271ZM77.973 10.5001V11.5501H78.027V10.5001H77.973ZM71.073 15.3001C71.073 16.4959 70.7741 17.5379 70.0309 18.281L70.0691 18.3192C70.8259 17.5623 71.127 16.5043 71.127 15.3001H71.073ZM70.0309 18.281C69.136 19.1759 68.0929 19.6231 66.75 19.6231V19.6771C68.1072 19.6771 69.164 19.2243 70.0691 18.3192L70.0309 18.281ZM66.75 19.6231C65.4072 19.6231 64.364 19.1759 63.4691 18.281L63.4309 18.3192C64.336 19.2243 65.3929 19.6771 66.75 19.6771V19.6231ZM63.4691 18.281C62.5742 17.3861 62.127 16.343 62.127 15.0001H62.073C62.073 16.3572 62.5258 17.4141 63.4309 18.3192L63.4691 18.281ZM62.127 15.0001C62.127 13.6572 62.5742 12.6141 63.4691 11.7192L63.4309 11.681C62.5258 12.5861 62.073 13.643 62.073 15.0001H62.127ZM63.4691 11.7192C64.364 10.8243 65.4072 10.3771 66.75 10.3771V10.3231C65.3929 10.3231 64.336 10.7759 63.4309 11.681L63.4691 11.7192ZM66.75 10.3771C67.3453 10.3771 67.9412 10.5259 68.5379 10.8242L68.5621 10.7759C67.9588 10.4743 67.3547 10.3231 66.75 10.3231V10.3771ZM68.5379 10.8242C69.1368 11.1237 69.5815 11.4211 69.8775 11.8651L69.9225 11.8351C69.6185 11.3791 69.1632 11.0765 68.5621 10.7759L68.5379 10.8242ZM69.8809 11.831L69.1309 12.581L69.1691 12.6192L69.9191 11.8692L69.8809 11.831ZM69.1711 12.5832C68.5649 11.8255 67.8064 11.5231 66.75 11.5231V11.5771C67.7936 11.5771 68.5351 11.8747 69.1289 12.617L69.1711 12.5832ZM66.75 11.5231C65.8443 11.5231 64.9354 11.8251 64.3289 12.5832L64.3711 12.617C64.9646 11.8751 65.8557 11.5771 66.75 11.5771V11.5231ZM64.3331 12.579C63.5746 13.1859 63.273 14.0951 63.273 15.1501H63.327C63.327 14.1051 63.6254 13.2143 64.3669 12.6212L64.3331 12.579ZM63.273 15.1501C63.273 16.2051 63.5746 17.1143 64.3331 17.7212L64.3669 17.679C63.6254 17.0859 63.327 16.1951 63.327 15.1501H63.273ZM64.3331 17.7212C65.0843 18.3221 65.8404 18.7771 66.75 18.7771V18.7231C65.8596 18.7231 65.1158 18.2781 64.3669 17.679L64.3331 17.7212ZM66.75 18.7771C67.2776 18.7771 67.7313 18.7017 68.1477 18.5313C68.5642 18.361 68.9421 18.0962 69.3191 17.7192L69.2809 17.681C68.9079 18.054 68.5358 18.3142 68.1273 18.4814C67.7187 18.6485 67.2724 18.7231 66.75 18.7231V18.7771ZM69.3191 17.7192C69.7736 17.2647 70.077 16.658 70.077 15.9001H70.023C70.023 16.6422 69.7264 17.2355 69.2809 17.681L69.3191 17.7192ZM70.05 15.8731H66.75V15.9271H70.05V15.8731ZM66.777 15.9001V14.7001H66.723V15.9001H66.777ZM66.75 14.7271H71.1V14.6731H66.75V14.7271ZM71.073 14.7001V15.3001H71.127V14.7001H71.073Z" fill="white"/>
<mask id="mask1_236_3653" style="mask-type:alpha" maskUnits="userSpaceOnUse" x="0" y="0" width="203" height="60">
<path fill-rule="evenodd" clip-rule="evenodd" d="M0 60H202.5V0H0V60Z" fill="white"/>
</mask>
<g mask="url(#mask1_236_3653)">
<path fill-rule="evenodd" clip-rule="evenodd" d="M160.35 44.9999H163.2V26.2499H160.35V44.9999ZM185.55 32.9999L182.4 41.0999H182.25L178.95 32.9999H175.95L180.9 44.3999L178.05 50.6999H180.9L188.55 32.9999H185.55ZM169.8 42.8999C168.9 42.8999 167.55 42.4499 167.55 41.2499C167.55 39.7499 169.2 39.2999 170.55 39.2999C171.75 39.2999 172.35 39.5999 173.1 39.8999C172.8 41.6999 171.3 42.8999 169.8 42.8999V42.8999ZM170.1 32.5499C168 32.5499 165.9 33.4499 165.15 35.3999L167.7 36.4499C168.3 35.3999 169.2 35.0999 170.25 35.0999C171.75 35.0999 173.1 35.9999 173.25 37.4999V37.6499C172.8 37.3499 171.6 36.8999 170.4 36.8999C167.7 36.8999 165 38.3999 165 41.0999C165 43.6499 167.25 45.2999 169.65 45.2999C171.6 45.2999 172.5 44.3999 173.25 43.4999H173.4V44.9999H176.1V37.7999C175.8 34.4999 173.25 32.5499 170.1 32.5499V32.5499ZM152.85 35.2499H148.8V28.7999H152.85C154.95 28.7999 156.15 30.5999 156.15 31.9499C156 33.5999 154.8 35.2499 152.85 35.2499V35.2499ZM152.7 26.2499H145.95V44.9999H148.8V37.9499H152.7C155.85 37.9499 158.85 35.6999 158.85 32.0999C158.85 28.4999 155.85 26.2499 152.7 26.2499V26.2499ZM116.1 42.8999C114.15 42.8999 112.5 41.2499 112.5 38.9999C112.5 36.7499 114.15 35.0999 116.1 35.0999C118.05 35.0999 119.55 36.7499 119.55 38.9999C119.55 41.2499 118.05 42.8999 116.1 42.8999V42.8999ZM119.4 34.0499C118.65 33.2999 117.45 32.5499 115.95 32.5499C112.8 32.5499 109.8 35.3999 109.8 38.9999C109.8 42.5999 112.65 45.2999 115.95 45.2999C117.45 45.2999 118.65 44.5499 119.25 43.7999H119.4V44.6999C119.4 47.0999 118.05 48.4499 115.95 48.4499C114.3 48.4499 113.1 47.2499 112.8 46.1999L110.4 47.2499C111.15 48.8999 112.95 50.9999 116.1 50.9999C119.4 50.9999 122.1 49.0499 122.1 44.3999V32.9999H119.4V34.0499ZM123.9 44.9999H126.75V26.2499H123.9V44.9999ZM130.95 38.8499C130.95 36.4499 132.9 35.0999 134.25 35.0999C135.3 35.0999 136.35 35.6999 136.65 36.4499L130.95 38.8499ZM139.65 36.7499C139.05 35.2499 137.55 32.6999 134.25 32.6999C130.95 32.6999 128.25 35.2499 128.25 39.1499C128.25 42.7499 130.95 45.5999 134.55 45.5999C137.4 45.5999 139.2 43.7999 139.8 42.7499L137.7 41.2499C136.95 42.2999 136.05 43.0499 134.55 43.0499C133.05 43.0499 132.15 42.4499 131.4 41.0999L139.95 37.4999L139.65 36.7499ZM71.55 34.6499V37.3499H78C77.85 38.8499 77.25 40.0499 76.5 40.7999C75.6 41.6999 74.1 42.7499 71.55 42.7499C67.5 42.7499 64.5 39.5999 64.5 35.5499C64.5 31.4999 67.65 28.3499 71.55 28.3499C73.65 28.3499 75.3 29.2499 76.5 30.2999L78.45 28.3499C76.8 26.8499 74.7 25.6499 71.7 25.6499C66.3 25.6499 61.65 30.1499 61.65 35.5499C61.65 40.9499 66.3 45.4499 71.7 45.4499C74.7 45.4499 76.8 44.5499 78.6 42.5999C80.4 40.7999 81 38.2499 81 36.2999C81 35.6999 81 35.0999 80.85 34.6499H71.55ZM88.2 42.8999C86.25 42.8999 84.6 41.2499 84.6 38.9999C84.6 36.7499 86.25 35.0999 88.2 35.0999C90.15 35.0999 91.8 36.5999 91.8 38.9999C91.8 41.2499 90.15 42.8999 88.2 42.8999V42.8999ZM88.2 32.6999C84.6 32.6999 81.75 35.3999 81.75 39.1499C81.75 42.7499 84.6 45.5999 88.2 45.5999C91.8 45.5999 94.65 42.8999 94.65 39.1499C94.65 35.2499 91.8 32.6999 88.2 32.6999V32.6999ZM102.15 42.8999C100.2 42.8999 98.55 41.2499 98.55 38.9999C98.55 36.7499 100.2 35.0999 102.15 35.0999C104.1 35.0999 105.75 36.5999 105.75 38.9999C105.75 41.2499 104.1 42.8999 102.15 42.8999V42.8999ZM102.15 32.6999C98.55 32.6999 95.7 35.3999 95.7 39.1499C95.7 42.7499 98.55 45.5999 102.15 45.5999C105.75 45.5999 108.6 42.8999 108.6 39.1499C108.6 35.2499 105.75 32.6999 102.15 32.6999V32.6999Z" fill="white"/>
</g>
<mask id="mask2_236_3653" style="mask-type:alpha" maskUnits="userSpaceOnUse" x="15" y="11" width="20" height="38">
<path fill-rule="evenodd" clip-rule="evenodd" d="M15 13.3499V46.4999C15 47.4002 15.3 48.1499 15.75 48.5999V48.5999L15.9 48.7502L34.5 30.1502V29.8499L15.6 11.2502C15.15 11.6999 15 12.4499 15 13.3499" fill="white"/>
</mask>
<g mask="url(#mask2_236_3653)">
<path fill-rule="evenodd" clip-rule="evenodd" d="M15 13.3499V46.4999C15 47.4002 15.3 48.1499 15.75 48.5999V48.5999L15.9 48.7502L34.5 30.1502V29.8499L15.6 11.2502C15.15 11.6999 15 12.4499 15 13.3499" fill="#32BBFF"/>
</g>
<mask id="mask3_236_3653" style="mask-type:alpha" maskUnits="userSpaceOnUse" x="34" y="23" width="16" height="14">
<path fill-rule="evenodd" clip-rule="evenodd" d="M34.35 29.85V30.3L40.5 36.45L48 32.4C50.1 31.2 50.1 29.25 48 28.0497V28.0497L40.65 23.85L40.5 23.6997L34.35 29.85Z" fill="white"/>
</mask>
<g mask="url(#mask3_236_3653)">
<path fill-rule="evenodd" clip-rule="evenodd" d="M34.35 29.85V30.3L40.5 36.45L48 32.4C50.1 31.2 50.1 29.25 48 28.0497V28.0497L40.65 23.85L40.5 23.6997L34.35 29.85Z" fill="#FFD500"/>
</g>
<mask id="mask4_236_3653" style="mask-type:alpha" maskUnits="userSpaceOnUse" x="15" y="30" width="26" height="20">
<path fill-rule="evenodd" clip-rule="evenodd" d="M15.6 48.7503C16.35 49.5 17.4 49.5 18.75 48.9V48.9L40.65 36.3L34.35 30L15.6 48.7503Z" fill="white"/>
</mask>
<g mask="url(#mask4_236_3653)">
<path fill-rule="evenodd" clip-rule="evenodd" d="M15.6 48.7503C16.35 49.5 17.4 49.5 18.75 48.9V48.9L40.65 36.3L34.35 30L15.6 48.7503Z" fill="url(#paint0_linear_236_3653)"/>
</g>
<mask id="mask5_236_3653" style="mask-type:alpha" maskUnits="userSpaceOnUse" x="15" y="10" width="26" height="20">
<path fill-rule="evenodd" clip-rule="evenodd" d="M15.6 11.4L34.35 30L40.65 23.7L18.75 11.2503C18.1416 10.9122 17.5944 10.7571 17.1081 10.7571V10.7571C16.5147 10.7568 16.0122 10.9878 15.6 11.4" fill="white"/>
</mask>
<g mask="url(#mask5_236_3653)">
<path fill-rule="evenodd" clip-rule="evenodd" d="M15.6 11.4L34.35 30L40.65 23.7L18.75 11.2503C18.1416 10.9122 17.5944 10.7571 17.1081 10.7571V10.7571C16.5147 10.7568 16.0122 10.9878 15.6 11.4" fill="#29CC5E"/>
</g>
<path fill-rule="evenodd" clip-rule="evenodd" d="M40.5 36.1501L18.75 48.4501C17.55 49.2001 16.5 49.0501 15.75 48.4501L15.6 48.6001L15.75 48.7501C16.5 49.3501 17.55 49.5001 18.75 48.7501L40.5 36.1501Z" fill="black"/>
<path fill-rule="evenodd" clip-rule="evenodd" d="M48 31.95L40.5 36.15L40.65 36.3L48 32.1C49.05 31.5 49.5 30.75 49.5 30C49.5 30.75 48.9 31.35 48 31.95V31.95ZM15.6 48.45C15.15 48 15 47.25 15 46.35V46.5C15 47.4 15.3 48.15 15.75 48.6V48.45H15.6Z" fill="black"/>
<path fill-rule="evenodd" clip-rule="evenodd" d="M18.75 11.3999L48 28.0499C48.9 28.6499 49.5 29.2499 49.5 29.9999C49.5 29.2499 49.05 28.4999 48 27.8999L18.75 11.2499C16.65 10.0499 15 10.9499 15 13.3499V13.4999C15 11.2499 16.65 10.1999 18.75 11.3999" fill="white"/>
<defs>
<linearGradient id="paint0_linear_236_3653" x1="15.1072" y1="20.2538" x2="-8.84063" y2="60.4597" gradientUnits="userSpaceOnUse">
<stop stop-color="#FF3A44"/>
<stop offset="1" stop-color="#C31162"/>
</linearGradient>
</defs>
</svg>
