<svg width="42" height="31" viewBox="0 0 42 31" fill="none" xmlns="http://www.w3.org/2000/svg">
<path d="M39.6667 17.1111H10.6667C9.77696 17.1111 9.05556 16.3897 9.05556 15.5C9.05556 14.6103 9.77696 13.8889 10.6667 13.8889H39.6667C40.5564 13.8889 41.2778 14.6103 41.2778 15.5C41.2778 16.3897 40.5564 17.1111 39.6667 17.1111ZM31.6111 30H2.61111C1.7214 30 1 29.2786 1 28.3889C1 27.4992 1.7214 26.7778 2.61111 26.7778H31.6111C32.5008 26.7778 33.2222 27.4992 33.2222 28.3889C33.2222 29.2786 32.5008 30 31.6111 30ZM31.6111 4.22222H2.61111C1.7214 4.22222 1 3.50082 1 2.61111C1 1.7214 1.7214 1 2.61111 1H31.6111C32.5008 1 33.2222 1.7214 33.2222 2.61111C33.2222 3.50082 32.5008 4.22222 31.6111 4.22222Z" fill="#1B347A" stroke="#1B347A"/>
</svg>
