<svg width="187" height="49" viewBox="0 0 187 49" fill="none" xmlns="http://www.w3.org/2000/svg">
<path fill-rule="evenodd" clip-rule="evenodd" d="M61.4231 25.9194L62.0545 22.4692C62.0545 22.4692 57.1919 20.9536 53.2343 23.7643V37.5664H57.4369V26.3528C59.1117 25.0577 61.4231 25.9194 61.4231 25.9194Z" fill="white"/>
<mask id="mask0_236_2974" style="mask-type:alpha" maskUnits="userSpaceOnUse" x="53" y="22" width="10" height="16">
<path d="M53.2343 23.7682C55.1384 22.4162 57.2522 22.0651 58.9331 22.0654C60.7456 22.0654 62.0548 22.4733 62.0548 22.4733L61.4231 25.9235C61.4231 25.9235 59.1117 25.0618 57.4369 26.3567V37.5703H53.2343V23.7682Z" fill="white"/>
</mask>
<g mask="url(#mask0_236_2974)">
<path fill-rule="evenodd" clip-rule="evenodd" d="M-202.599 80.3438L389.248 80.3438V-724.303H-202.599L-202.599 80.3438Z" fill="white"/>
</g>
<mask id="mask1_236_2974" style="mask-type:alpha" maskUnits="userSpaceOnUse" x="53" y="22" width="10" height="16">
<path d="M53.2343 23.7682C55.1384 22.4162 57.252 22.0654 58.9331 22.0654C60.7456 22.0654 62.0548 22.4733 62.0548 22.4733L61.4231 25.9235C61.4231 25.9235 59.1117 25.0618 57.4369 26.3567V37.5703H53.2343V23.7682Z" fill="white"/>
</mask>
<g mask="url(#mask1_236_2974)">
<path fill-rule="evenodd" clip-rule="evenodd" d="M46.1888 44.332H69.1008V15.3034H46.1888V44.332Z" fill="white"/>
</g>
<path fill-rule="evenodd" clip-rule="evenodd" d="M25.1895 18.5389L29.3903 17.7794V22.2683H33.5471V25.858H29.3903V31.2115C29.3903 32.1235 29.5439 32.8474 29.8582 33.3828C30.1688 33.9264 30.7917 34.1958 31.7272 34.1958C32.1846 34.1958 32.644 34.1536 33.1286 34.0644C33.5996 33.9735 34.0386 33.8568 34.4338 33.7041L35.0281 37.0666C34.5197 37.276 33.9576 37.4577 33.338 37.6117C32.7165 37.7642 31.9533 37.8438 31.0516 37.8438C29.9053 37.8438 28.9581 37.6834 28.2048 37.3652C27.4553 37.0471 26.8528 36.6007 26.4035 36.0311C25.9543 35.4665 25.6384 34.7736 25.4612 33.9622C25.2806 33.1524 25.1895 32.258 25.1895 31.2715V18.5389Z" fill="white"/>
<mask id="mask2_236_2974" style="mask-type:alpha" maskUnits="userSpaceOnUse" x="25" y="17" width="11" height="21">
<path d="M25.1895 18.535L29.3903 17.7755V22.2643H33.5471V25.8541H29.3903V31.2076C29.3903 32.1198 29.5439 32.8435 29.8579 33.3789C30.1685 33.9227 30.7914 34.1919 31.7269 34.1919C32.1844 34.1919 32.6435 34.1497 33.1284 34.0605C33.5993 33.9696 34.0386 33.8529 34.4338 33.7005L35.0279 37.0627C34.5197 37.2723 33.9574 37.454 33.3377 37.6081C32.7162 37.7606 31.953 37.8398 31.0513 37.8398C29.9048 37.8398 28.9578 37.6795 28.2048 37.3613C27.4551 37.0432 26.8522 36.5968 26.4032 36.0275C25.954 35.4626 25.6384 34.7697 25.4612 33.9583C25.2803 33.1485 25.1895 32.2544 25.1895 31.2676V18.535Z" fill="white"/>
</mask>
<g mask="url(#mask2_236_2974)">
<path fill-rule="evenodd" clip-rule="evenodd" d="M-202.6 80.3438L389.247 80.3438V-724.303H-202.6L-202.6 80.3438Z" fill="white"/>
<path fill-rule="evenodd" clip-rule="evenodd" d="M18.1432 44.6016H42.0732V11.0135H18.1432L18.1432 44.6016Z" fill="white"/>
</g>
<path fill-rule="evenodd" clip-rule="evenodd" d="M68.2766 34.4779C69.045 34.4779 69.5886 34.3965 69.9113 34.2441C70.2318 34.09 70.3871 33.7882 70.3871 33.3468C70.3871 32.9979 70.1846 32.6945 69.7691 32.4364C69.3539 32.1736 68.7291 31.8815 67.8817 31.5487C67.2247 31.2972 66.6271 31.0378 66.0884 30.7699C65.5566 30.4973 65.1008 30.1792 64.7243 29.801C64.3491 29.4247 64.0588 28.9733 63.8494 28.4477C63.64 27.9315 63.5407 27.3068 63.5407 26.57C63.5407 25.1434 64.0588 24.0123 65.0906 23.183C66.1238 22.3571 67.539 21.9352 69.3454 21.9352C70.2488 21.9352 71.1132 22.0179 71.9406 22.1851C72.7663 22.3474 73.4266 22.5325 73.9109 22.719L73.1799 26.078C72.6903 25.9045 72.1585 25.752 71.586 25.619C71.0136 25.4828 70.3687 25.4112 69.6561 25.4112C68.3408 25.4112 67.6822 25.791 67.6822 26.5423C67.6822 26.7159 67.711 26.8702 67.7684 27.0048C67.8257 27.1412 67.9374 27.271 68.1029 27.3959C68.2766 27.5194 68.503 27.6587 68.7966 27.8017C69.0886 27.9526 69.4601 28.1082 69.9113 28.2852C70.8278 28.6357 71.5893 28.9765 72.1906 29.3207C72.7932 29.6646 73.266 30.0267 73.6156 30.4289C73.9633 30.8218 74.21 31.2569 74.3483 31.7401C74.4869 32.2223 74.5593 32.7788 74.5593 33.4135C74.5593 34.9177 74.0089 36.0551 72.9131 36.8244C71.8122 37.5905 70.2554 37.9766 68.2445 37.9766C66.9308 37.9766 65.8368 37.8646 64.9638 37.6295C64.0876 37.4006 63.4831 37.2028 63.1455 37.0501L63.8494 33.548C64.5604 33.8369 65.3 34.0608 66.0464 34.2298C66.8027 34.3953 67.5389 34.4779 68.2766 34.4779Z" fill="white"/>
<mask id="mask3_236_2974" style="mask-type:alpha" maskUnits="userSpaceOnUse" x="63" y="21" width="12" height="17">
<path d="M65.088 23.1793C66.1215 22.3532 67.5364 21.9313 69.3428 21.9313C70.2465 21.9313 71.1109 22.014 71.9383 22.1812C72.7637 22.3435 73.424 22.5283 73.9086 22.7151L73.1775 26.0741C72.6877 25.9006 72.1562 25.7481 71.5835 25.6151C71.0113 25.4787 70.3661 25.4076 69.6537 25.4076C68.3382 25.4076 67.6799 25.7868 67.6799 26.5384C67.6799 26.712 67.7084 26.8663 67.7658 27.0009C67.8234 27.1373 67.9351 27.2671 68.1006 27.3919C68.274 27.5155 68.5007 27.6548 68.7943 27.7978C69.0863 27.9484 69.4576 28.1046 69.9087 28.2813C70.8255 28.6318 71.587 28.9726 72.188 29.3168C72.7909 29.6607 73.2637 30.0226 73.6133 30.425C73.961 30.8179 74.2074 31.2527 74.346 31.7362C74.4846 32.2184 74.5567 32.7749 74.5567 33.4096C74.5567 34.9138 74.0063 36.0515 72.9108 36.8205C71.8098 37.5866 70.2531 37.9727 68.2421 37.9727C66.9285 37.9727 65.8344 37.8607 64.9615 37.6256C64.085 37.3967 63.4808 37.1989 63.1429 37.0462L63.8471 33.5441C64.5581 33.8333 65.2974 34.0569 66.0438 34.2259C66.8001 34.3911 67.5364 34.474 68.274 34.474C69.0424 34.474 69.5862 34.3929 69.9087 34.2402C70.2295 34.0861 70.3848 33.7843 70.3848 33.3429C70.3848 32.994 70.1823 32.6906 69.7668 32.4325C69.3513 32.1697 68.7265 31.8776 67.8791 31.5448C67.2221 31.2932 66.6248 31.0339 66.0858 30.766C65.5543 30.4934 65.0982 30.1753 64.722 29.7971C64.3468 29.4205 64.0565 28.9694 63.8471 28.4438C63.6377 27.9273 63.5381 27.3029 63.5381 26.5661C63.5381 25.1397 64.0565 24.0086 65.088 23.1793Z" fill="white"/>
</mask>
<g mask="url(#mask3_236_2974)">
<path fill-rule="evenodd" clip-rule="evenodd" d="M-202.601 80.3438L389.246 80.3438V-724.303H-202.601L-202.601 80.3438Z" fill="white"/>
<path fill-rule="evenodd" clip-rule="evenodd" d="M56.0985 44.7383H81.6041V15.1732H56.0985V44.7383Z" fill="white"/>
</g>
<path fill-rule="evenodd" clip-rule="evenodd" d="M87.5087 28.8288C87.1322 30.2959 86.7354 31.7565 86.3117 33.2007C85.8893 34.6499 85.4401 36.1073 84.9761 37.5742H81.7056C81.3662 36.7628 80.9965 35.7989 80.6013 34.6807C80.2026 33.5578 79.7959 32.339 79.3687 31.0133C78.9463 29.692 78.5144 28.2934 78.0718 26.8133C77.6278 25.3399 77.1972 23.8501 76.7853 22.3424H81.2125C81.3593 23.0353 81.5264 23.7966 81.707 24.6159C81.8862 25.4371 82.0752 26.2827 82.2728 27.1525C82.4704 28.0192 82.6814 28.8904 82.8974 29.77C83.1153 30.6496 83.3384 31.4918 83.5642 32.3019C83.8093 31.4531 84.0491 30.5864 84.2837 29.6986C84.5151 28.8096 84.7431 27.9363 84.9607 27.078C85.1753 26.221 85.3864 25.3886 85.5787 24.587C85.7746 23.7866 85.9486 23.0353 86.1023 22.3424H89.1431C89.2984 23.0353 89.462 23.7866 89.6527 24.587C89.8385 25.3886 90.0363 26.221 90.2457 27.078C90.4482 27.9363 90.6694 28.8096 90.8906 29.6986C91.1184 30.5864 91.3516 31.4531 91.5931 32.3019C91.8209 31.4918 92.0473 30.6496 92.275 29.77C92.5031 28.8904 92.7174 28.0192 92.9133 27.1525C93.1092 26.2827 93.2983 25.4371 93.4808 24.6159C93.6614 23.7966 93.8252 23.0353 93.9753 22.3424H98.3451C97.9299 23.8501 97.5027 25.3399 97.0586 26.8133C96.6111 28.2934 96.1838 29.692 95.7568 31.0133C95.3361 32.339 94.9209 33.5578 94.5173 34.6807C94.1106 35.7989 93.7355 36.7628 93.4015 37.5742H90.131C89.6579 36.1073 89.1988 34.6499 88.7463 33.2007C88.2954 31.7565 87.8868 30.2959 87.5087 28.8288Z" fill="white"/>
<mask id="mask4_236_2974" style="mask-type:alpha" maskUnits="userSpaceOnUse" x="76" y="22" width="23" height="16">
<path d="M93.9712 22.3463H98.3411C97.9259 23.854 97.4986 25.3438 97.0543 26.817C96.607 28.2973 96.1797 29.6962 95.7525 31.0172C95.3321 32.3429 94.9169 33.5617 94.5129 34.6846C94.1062 35.8029 93.7314 36.7665 93.3972 37.5781H90.1266C89.6538 36.1112 89.1947 34.6536 88.7422 33.2044C88.2913 31.7604 87.8827 30.2998 87.5046 28.8327C87.1278 30.2998 86.731 31.7604 86.3076 33.2044C85.8853 34.6536 85.4361 36.1112 84.9718 37.5781H81.7012C81.3618 36.7665 80.9922 35.8029 80.597 34.6846C80.1985 33.5617 79.7916 32.3429 79.3646 31.0172C78.9422 29.6962 78.5101 28.2973 78.0677 26.817C77.6237 25.3438 77.1931 23.854 76.7812 22.3463H81.2081C81.3552 23.0392 81.5223 23.8003 81.7029 24.6198C81.8821 25.441 82.0709 26.2866 82.2687 27.1562C82.466 28.0229 82.6773 28.8943 82.8933 29.7739C83.1112 30.6535 83.3343 31.4957 83.5601 32.3058C83.8049 31.457 84.0448 30.5901 84.2794 29.7025C84.5107 28.8135 84.739 27.9402 84.9567 27.0819C85.171 26.2247 85.382 25.3922 85.5746 24.5909C85.7706 23.7905 85.9445 23.0392 86.098 22.3463H89.139C89.2941 23.0392 89.4579 23.7905 89.6486 24.5909C89.8344 25.3922 90.0323 26.2247 90.2414 27.0819C90.4442 27.9402 90.6651 28.8135 90.8865 29.7025C91.1143 30.5901 91.3475 31.457 91.5888 32.3058C91.8168 31.4957 92.0429 30.6535 92.2709 29.7739C92.499 28.8943 92.7133 28.0229 92.9092 27.1562C93.1052 26.2866 93.2943 25.441 93.4765 24.6198C93.6573 23.8003 93.8211 23.0392 93.9712 22.3463Z" fill="white"/>
</mask>
<g mask="url(#mask4_236_2974)">
<path fill-rule="evenodd" clip-rule="evenodd" d="M-202.599 80.3477L389.248 80.3477V-724.299H-202.599L-202.599 80.3477Z" fill="white"/>
<path fill-rule="evenodd" clip-rule="evenodd" d="M69.7361 44.3398H105.388V15.5844L69.7361 15.5844V44.3398Z" fill="white"/>
</g>
<path fill-rule="evenodd" clip-rule="evenodd" d="M101.309 37.5664H105.503V22.3378H101.309V37.5664Z" fill="white"/>
<mask id="mask5_236_2974" style="mask-type:alpha" maskUnits="userSpaceOnUse" x="101" y="22" width="5" height="16">
<path d="M101.305 37.5703V22.3417H105.5V37.5703H101.305Z" fill="white"/>
</mask>
<g mask="url(#mask5_236_2974)">
<path fill-rule="evenodd" clip-rule="evenodd" d="M-202.603 80.3477L389.244 80.3477V-724.299H-202.603L-202.603 80.3477Z" fill="white"/>
<path fill-rule="evenodd" clip-rule="evenodd" d="M94.2598 44.332H112.545V15.5798H94.2598V44.332Z" fill="white"/>
</g>
<path fill-rule="evenodd" clip-rule="evenodd" d="M108.839 18.5423L113.037 17.778V22.3477H117.191V25.9309H113.037V31.2896C113.037 32.1966 113.192 32.9271 113.501 33.461C113.81 34.0013 114.436 34.2723 115.374 34.2723C115.828 34.2723 116.294 34.2334 116.77 34.1441C117.251 34.0564 117.687 33.9316 118.084 33.7807L118.673 37.14C118.165 37.3538 117.599 37.5358 116.983 37.6914C116.359 37.8439 115.605 37.9219 114.7 37.9219C113.552 37.9219 112.605 37.7631 111.853 37.4415C111.1 37.1284 110.499 36.6854 110.05 36.1108C109.601 35.5462 109.287 34.8499 109.106 34.0435C108.924 33.2305 108.839 32.3314 108.839 31.3494V18.5423Z" fill="white"/>
<mask id="mask6_236_2974" style="mask-type:alpha" maskUnits="userSpaceOnUse" x="108" y="17" width="11" height="21">
<path d="M108.836 18.5423L113.034 17.778V22.3477H117.187V25.9309H113.034V31.2896C113.034 32.1966 113.189 32.9269 113.498 33.461C113.807 34.0013 114.433 34.2721 115.37 34.2721C115.825 34.2721 116.291 34.2334 116.767 34.1441C117.248 34.0561 117.684 33.9316 118.08 33.7807L118.67 37.1397C118.162 37.3538 117.596 37.5358 116.98 37.6914C116.356 37.8439 115.602 37.9219 114.697 37.9219C113.549 37.9219 112.601 37.7631 111.85 37.4415C111.097 37.1281 110.496 36.6854 110.047 36.1111C109.598 35.5462 109.284 34.8502 109.103 34.0435C108.921 33.2305 108.836 32.3312 108.836 31.3496V18.5423Z" fill="white"/>
</mask>
<g mask="url(#mask6_236_2974)">
<path fill-rule="evenodd" clip-rule="evenodd" d="M-202.601 80.3438L389.246 80.3438V-724.303H-202.601L-202.601 80.3438Z" fill="white"/>
<path fill-rule="evenodd" clip-rule="evenodd" d="M101.792 44.6836H125.717V11.0159H101.792V44.6836Z" fill="white"/>
</g>
<path fill-rule="evenodd" clip-rule="evenodd" d="M120.159 29.9622C120.159 28.86 120.333 27.8216 120.681 26.848C121.029 25.871 121.53 25.0241 122.187 24.2985C122.845 23.5732 123.642 23.0018 124.584 22.5751C125.522 22.1548 126.592 21.9373 127.794 21.9373C128.583 21.9373 129.307 22.0137 129.966 22.1564C130.624 22.3041 131.266 22.5103 131.882 22.7779L131.011 26.2233C130.614 26.0706 130.183 25.9376 129.711 25.8175C129.241 25.7038 128.713 25.644 128.132 25.644C126.893 25.644 125.966 26.0414 125.359 26.8333C124.743 27.627 124.443 28.6673 124.443 29.9622C124.443 31.33 124.728 32.3929 125.306 33.1461C125.873 33.8974 126.876 34.2756 128.303 34.2756C128.811 34.2756 129.353 34.2251 129.939 34.1295C130.52 34.032 131.055 33.8796 131.548 33.6654L132.136 37.1999C131.646 37.4124 131.038 37.591 130.305 37.7482C129.569 37.9012 128.763 37.9805 127.882 37.9805C126.53 37.9805 125.361 37.7695 124.387 37.3555C123.411 36.9418 122.606 36.3769 121.977 35.663C121.344 34.9474 120.889 34.1037 120.597 33.1298C120.304 32.1546 120.159 31.0967 120.159 29.9622Z" fill="white"/>
<mask id="mask7_236_2974" style="mask-type:alpha" maskUnits="userSpaceOnUse" x="120" y="21" width="13" height="17">
<path d="M124.581 22.5751C125.518 22.1548 126.588 21.9373 127.791 21.9373C128.579 21.9373 129.303 22.0134 129.962 22.1561C130.62 22.3041 131.262 22.5101 131.878 22.7779L131.007 26.2231C130.61 26.0706 130.18 25.9376 129.707 25.8175C129.237 25.7035 128.709 25.6437 128.128 25.6437C126.889 25.6437 125.962 26.0414 125.356 26.8333C124.739 27.6268 124.439 28.667 124.439 29.9622C124.439 31.33 124.725 32.3929 125.302 33.1461C125.869 33.8974 126.872 34.2756 128.298 34.2756C128.807 34.2756 129.349 34.2251 129.935 34.1295C130.516 34.032 131.051 33.8796 131.544 33.6652L132.132 37.1999C131.642 37.4124 131.034 37.5907 130.301 37.7482C129.565 37.901 128.76 37.9805 127.878 37.9805C126.525 37.9805 125.358 37.7693 124.383 37.3553C123.408 36.9416 122.602 36.3769 121.973 35.6632C121.341 34.9474 120.885 34.1037 120.593 33.1298C120.301 32.1546 120.155 31.0964 120.155 29.9622C120.155 28.86 120.329 27.8216 120.677 26.848C121.025 25.871 121.526 25.0238 122.183 24.2982C122.842 23.573 123.639 23.0018 124.581 22.5751Z" fill="white"/>
</mask>
<g mask="url(#mask7_236_2974)">
<path fill-rule="evenodd" clip-rule="evenodd" d="M-202.601 80.3438L389.245 80.3438V-724.303H-202.601L-202.601 80.3438Z" fill="white"/>
<path fill-rule="evenodd" clip-rule="evenodd" d="M113.111 44.7422H139.179V15.1753H113.111V44.7422Z" fill="white"/>
</g>
<path fill-rule="evenodd" clip-rule="evenodd" d="M134.849 37.5664V18.5339L139.048 17.7762V22.4012C139.328 22.3054 139.688 22.2129 140.134 22.1255C140.573 22.0394 141.003 21.9938 141.415 21.9938C142.616 21.9938 143.613 22.1642 144.414 22.5002C145.211 22.8379 145.854 23.3166 146.33 23.9347C146.813 24.5499 147.147 25.2865 147.349 26.1321C147.543 26.9838 147.64 27.9319 147.64 28.9737V37.5664H143.443V29.4912C143.443 28.102 143.269 27.1187 142.923 26.5361C142.575 25.9631 141.93 25.6729 140.993 25.6729C140.612 25.6729 140.263 25.7071 139.933 25.7719C139.605 25.8401 139.31 25.9146 139.048 25.991V37.5664H134.849Z" fill="white"/>
<mask id="mask8_236_2974" style="mask-type:alpha" maskUnits="userSpaceOnUse" x="134" y="17" width="14" height="21">
<path d="M134.853 18.5378L139.052 17.7801V22.4054C139.332 22.3093 139.692 22.2168 140.138 22.1294C140.576 22.0433 141.007 21.998 141.419 21.998C142.62 21.998 143.618 22.1684 144.418 22.5042C145.215 22.842 145.858 23.3206 146.334 23.9389C146.817 24.5538 147.152 25.2904 147.352 26.1363C147.546 26.988 147.644 27.9358 147.644 28.9779V37.5703H143.447V29.4951C143.447 28.1062 143.273 27.1226 142.927 26.54C142.579 25.9672 141.934 25.6768 140.997 25.6768C140.615 25.6768 140.267 25.711 139.937 25.776C139.609 25.844 139.314 25.9185 139.052 25.9949V37.5703H134.853V18.5378Z" fill="white"/>
</mask>
<g mask="url(#mask8_236_2974)">
<path fill-rule="evenodd" clip-rule="evenodd" d="M-202.594 80.3477L389.253 80.3477V-724.299H-202.594L-202.594 80.3477Z" fill="white"/>
<path fill-rule="evenodd" clip-rule="evenodd" d="M127.805 44.332H154.688V11.018H127.805V44.332Z" fill="white"/>
</g>
<path fill-rule="evenodd" clip-rule="evenodd" d="M8.24466 37.5742L8.24466 23.7737C8.24466 23.7737 10.3552 22.0422 14.9714 22.0422C19.1722 22.0422 21.4789 24.199 21.4789 28.9457V37.5742H17.2831V28.9457C17.2831 25.9224 15.8106 25.713 14.5527 25.713C13.2948 25.713 12.4523 26.3556 12.4523 26.3556V37.5742H8.24466Z" fill="white"/>
<mask id="mask9_236_2974" style="mask-type:alpha" maskUnits="userSpaceOnUse" x="8" y="22" width="14" height="16">
<path d="M8.24466 23.7698C8.24466 23.7698 10.3552 22.0383 14.9714 22.0383C19.1722 22.0383 21.4786 24.1949 21.4786 28.9421V37.5703H17.2831V28.9421C17.2831 25.9183 15.8106 25.7091 14.5526 25.7091C13.2947 25.7091 12.4523 26.352 12.4523 26.352V37.5703H8.24466L8.24466 23.7698Z" fill="white"/>
</mask>
<g mask="url(#mask9_236_2974)">
<path fill-rule="evenodd" clip-rule="evenodd" d="M-202.604 80.3438L389.242 80.3438V-724.303H-202.604L-202.604 80.3438Z" fill="white"/>
<path fill-rule="evenodd" clip-rule="evenodd" d="M1.198 44.332H28.5233L28.5233 15.2765H1.198L1.198 44.332Z" fill="white"/>
</g>
<path fill-rule="evenodd" clip-rule="evenodd" d="M0.344116 37.5742L0.344116 18.5384L4.54489 17.7788L4.54489 37.5742H0.344116Z" fill="white"/>
<mask id="mask10_236_2974" style="mask-type:alpha" maskUnits="userSpaceOnUse" x="0" y="17" width="5" height="21">
<path d="M0.351074 18.5348L4.55185 17.7749L4.55185 37.5703H0.351074L0.351074 18.5348Z" fill="white"/>
</mask>
<g mask="url(#mask10_236_2974)">
<path fill-rule="evenodd" clip-rule="evenodd" d="M-202.59 80.3438L389.257 80.3438V-724.303H-202.59L-202.59 80.3438Z" fill="white"/>
<path fill-rule="evenodd" clip-rule="evenodd" d="M-6.69614 44.332H11.5964L11.5964 11.0132H-6.69614L-6.69614 44.332Z" fill="white"/>
</g>
<path fill-rule="evenodd" clip-rule="evenodd" d="M49.9476 31.0491H40.4989C40.4989 31.0491 40.7099 34.2833 44.9058 34.2833C47.0064 34.2833 49.1068 33.6389 49.1068 33.6389L49.5272 37.0938C49.5272 37.0938 47.4285 37.9492 44.4906 37.9492C40.2879 37.9492 36.5092 35.7955 36.5092 29.7574C36.5092 25.0088 39.4471 21.9937 43.6465 21.9937C49.9476 21.9937 50.3697 28.4556 49.9476 31.0491ZM43.4404 25.0088C40.7099 25.0088 40.4989 28.0271 40.4989 28.0271H46.3747C46.3747 28.0271 46.1689 25.0088 43.4404 25.0088Z" fill="white"/>
<mask id="mask11_236_2974" style="mask-type:alpha" maskUnits="userSpaceOnUse" x="36" y="22" width="15" height="16">
<path d="M36.503 29.7649C36.503 25.0164 39.4409 22.0013 43.64 22.0013C49.9412 22.0013 50.3632 28.4634 49.9412 31.0566H40.4927C40.4927 31.0566 40.7038 34.2909 44.8993 34.2909C47 34.2909 49.1004 33.6465 49.1004 33.6465L49.5207 37.1014C49.5207 37.1014 47.422 37.957 44.4841 37.957C40.2817 37.957 36.503 35.8033 36.503 29.7649ZM43.4339 25.0164C40.7038 25.0164 40.4927 28.035 40.4927 28.035H46.3685C46.3685 28.035 46.1624 25.0164 43.4339 25.0164Z" fill="white"/>
</mask>
<g mask="url(#mask11_236_2974)">
<path fill-rule="evenodd" clip-rule="evenodd" d="M-202.601 80.3516L389.246 80.3516V-724.295H-202.601L-202.601 80.3516Z" fill="white"/>
<path fill-rule="evenodd" clip-rule="evenodd" d="M29.4583 44.7188H57.1057V15.2396H29.4583L29.4583 44.7188Z" fill="white"/>
</g>
<mask id="mask12_236_2974" style="mask-type:alpha" maskUnits="userSpaceOnUse" x="153" y="14" width="28" height="35">
<path d="M153.206 17.7786C153.206 16.8584 165.283 14.8728 173.383 14.8728C176.895 14.8728 179.66 15.2462 180.367 16.2417C184.014 20.8635 158.339 49.86 156.2 48.9804C154.484 48.5406 169.888 30.0843 167.32 22.6114C166.039 18.6598 153.206 19.0993 153.206 17.7786Z" fill="white"/>
</mask>
<g mask="url(#mask12_236_2974)">
<path fill-rule="evenodd" clip-rule="evenodd" d="M146.16 55.7617H187.766V8.11092H146.16V55.7617Z" fill="white"/>
</g>
<mask id="mask13_236_2974" style="mask-type:alpha" maskUnits="userSpaceOnUse" x="175" y="0" width="12" height="13">
<path d="M175.011 6.36598C175.011 3.20971 177.502 0.65545 180.571 0.65545C183.644 0.65545 186.131 3.20971 186.131 6.36598C186.131 9.52387 183.644 12.0781 180.571 12.0781C177.502 12.0781 175.011 9.52387 175.011 6.36598Z" fill="white"/>
</mask>
<g mask="url(#mask13_236_2974)">
<path fill-rule="evenodd" clip-rule="evenodd" d="M167.969 18.8359H193.181V-6.11068H167.969V18.8359Z" fill="white"/>
</g>
</svg>
