<svg width="207" height="28" viewBox="0 0 207 28" fill="none" xmlns="http://www.w3.org/2000/svg">
<path d="M18.318 0C22.518 0 26.718 0 30.918 0C31.718 0 32.018 0.200006 32.018 1.10001C31.918 2.20001 32.018 3.3 32.018 4.5C31.918 8.2 29.118 11.1 25.418 11.1C18.918 11.1 12.418 11.1 6.01802 11.1C2.61802 11.1 0.218018 8.80001 0.218018 5.60001C0.218018 2.50001 2.71801 0.100006 5.91801 0.100006C10.018 6.10203e-06 14.218 0 18.318 0Z" fill="#FE7BAF"/>
<path d="M13.918 27.6C9.71803 27.6 5.51802 27.6 1.31802 27.6C0.218022 27.6 -0.0819655 27.3 0.0180345 26.2C0.118034 24.6 -0.0819686 22.9 0.218031 21.3C0.718031 18.5 3.01802 16.5 5.81802 16.5C12.818 16.5 19.718 16.5 26.718 16.5C29.818 16.5 32.018 18.9 32.018 22.1C32.018 25.2 29.718 27.5 26.618 27.5C22.418 27.6 18.218 27.6 13.918 27.6Z" fill="#FAC465"/>
<path d="M90.818 12.3002C94.018 8.10019 99.518 8.60017 100.518 12.5002C101.618 11.0002 102.818 9.90017 104.618 9.50017C107.818 8.80017 109.918 10.3002 110.218 13.5002C110.518 16.8002 110.318 20.2002 110.318 23.6002C110.318 24.0002 110.218 24.2002 109.818 24.2002C109.118 24.2002 108.418 24.2002 107.818 24.2002C107.118 24.2002 107.318 23.7002 107.318 23.4002C107.318 21.0002 107.318 18.7002 107.318 16.3002C107.318 15.7002 107.318 15.2002 107.218 14.6002C106.918 12.3002 105.018 11.4002 103.118 12.6002C101.718 13.5002 100.918 14.7002 100.918 16.4002C100.918 18.6002 100.918 20.9002 100.918 23.1002C100.918 23.9002 100.718 24.1002 99.918 24.1002C97.818 24.1002 97.818 24.1002 97.818 22.0002C97.818 19.6002 97.818 17.2002 97.718 14.8002C97.718 13.7002 97.318 12.6002 96.118 12.2002C95.018 11.8002 93.918 12.1002 93.018 12.9002C91.918 13.8002 91.318 14.9002 91.318 16.4002C91.318 18.6002 91.318 20.8002 91.318 23.0002C91.318 23.8002 91.118 24.1002 90.218 24.1002C88.118 24.1002 88.118 24.1002 88.118 22.0002C88.118 18.2002 88.118 14.3002 88.118 10.5002C88.118 9.10017 89.018 9.60017 89.718 9.50017C90.418 9.40017 91.118 9.40017 90.918 10.5002C90.718 11.1002 90.818 11.6002 90.818 12.3002Z" fill="#1C347A"/>
<path d="M47.318 4.3C49.318 4.2 51.218 4.89998 53.118 5.99998C53.718 6.29998 53.918 6.7 53.418 7.3C53.018 7.8 52.918 8.59998 52.418 8.89998C51.918 9.19998 51.418 8.39999 50.818 8.09999C49.218 7.29999 47.618 7 45.818 7.2C44.418 7.4 43.418 8.1 43.218 9.2C42.918 10.4 43.318 11.3 44.618 11.9C46.118 12.6 47.818 12.8 49.418 13.4C49.918 13.6 50.318 13.7 50.818 13.8C53.718 14.9 54.718 16.5 54.518 19.4C54.318 21.8 52.718 23.6 50.018 24.1C46.418 24.8 43.018 24.2 39.918 22.3C39.218 21.9 39.218 21.6 39.518 20.9C40.418 19.2 40.418 19.2 42.118 20.1C44.318 21.2 46.518 21.9 49.018 21.4C50.118 21.2 51.018 20.7 51.218 19.5C51.418 18.3 50.918 17.5 49.618 16.9C48.318 16.3 47.018 16 45.618 15.6C44.818 15.4 44.118 15.1 43.318 14.9C41.518 14.2 40.218 13.2 40.018 11.2C39.718 9 40.418 7.2 42.218 5.8C43.618 4.6 45.318 4.3 47.318 4.3Z" fill="#1C347A"/>
<path d="M64.918 17.9999C63.218 17.9999 61.518 17.9999 59.918 17.9999C59.318 17.9999 59.118 18.2 59.318 18.8C59.718 20.4 60.718 21.6 62.318 22.1C64.018 22.6 65.518 22.1999 66.718 20.9999C67.018 20.6999 67.018 20.1 67.618 20.2C68.318 20.3 69.018 20.5 69.718 20.8C70.018 20.9 69.918 21.1999 69.718 21.3999C69.518 21.7999 69.218 22.0999 68.918 22.4999C66.118 25.4999 60.618 25.4 57.718 22.3C54.818 19.1 55.318 13.7 58.718 11.1C62.218 8.39995 67.518 9.29995 69.818 12.9999C70.718 14.3999 70.918 15.8999 70.918 17.4999C70.918 18.0999 70.718 18.3 70.118 18.2C68.418 18 66.718 17.9999 64.918 17.9999Z" fill="#1C347A"/>
<path d="M134.618 24.4998C130.218 24.4998 127.118 21.2998 127.118 16.8998C127.118 12.5998 130.318 9.3998 134.618 9.2998C139.018 9.2998 142.218 12.4998 142.218 16.8998C142.118 21.3998 139.018 24.4998 134.618 24.4998Z" fill="#1C347A"/>
<path d="M82.218 21.9999C80.518 23.7999 78.618 24.5999 76.318 24.4999C74.118 24.3999 72.318 22.8999 71.918 20.7999C71.518 18.6999 72.618 16.8999 74.718 15.8999C76.718 14.9999 78.818 15.0999 80.918 15.6999C81.818 15.8999 81.818 15.6999 81.818 14.8999C81.718 12.7999 80.418 11.4999 78.118 11.5999C76.718 11.5999 75.518 12.0999 74.318 12.8999C73.918 13.0999 73.518 13.3999 73.318 12.6999C73.218 12.0999 72.118 11.5999 73.218 10.8999C75.618 9.49986 78.218 8.99988 80.918 9.69988C83.418 10.3999 84.818 12.2999 84.918 15.0999C84.918 16.2999 84.918 17.5999 84.918 18.7999C85.018 19.7999 84.618 20.8999 85.618 21.7999C86.018 22.1999 86.018 23.3999 85.618 24.0999C85.318 24.5999 84.518 24.4999 83.818 24.3999C83.018 24.1999 82.518 23.6999 82.318 22.8999C82.318 22.5999 82.318 22.3999 82.218 21.9999Z" fill="#1C347A"/>
<path d="M184.118 21.5002C182.518 23.6002 180.518 24.5002 178.118 24.5002C175.818 24.4002 174.418 23.3002 173.818 21.1002C173.418 19.6002 173.618 18.1002 173.618 16.6002C173.618 14.6002 173.618 12.6002 173.618 10.6002C173.618 9.80019 173.818 9.7002 174.518 9.7002C176.718 9.7002 176.718 9.70018 176.718 11.9002C176.718 14.0002 176.718 16.1002 176.718 18.3002C176.718 20.8002 177.618 22.0002 179.518 22.0002C181.718 22.0002 183.718 20.1002 183.718 18.1002C183.718 15.7002 183.718 13.3002 183.718 10.9002C183.718 10.0002 183.918 9.7002 184.818 9.8002C186.818 9.9002 186.818 9.8002 186.818 11.8002C186.818 14.6002 186.818 17.5002 186.818 20.3002C186.818 20.8002 186.718 21.3002 187.218 21.6002C188.218 22.3002 187.718 23.3002 187.618 24.1002C187.518 24.7002 186.618 24.6002 186.118 24.6002C185.218 24.5002 184.518 24.2002 184.218 23.2002C184.118 22.6002 184.118 22.2002 184.118 21.5002Z" fill="#1C347A"/>
<path d="M147.218 12.3999C148.918 10.2999 150.818 9.3999 153.218 9.3999C155.418 9.3999 156.818 10.4999 157.318 12.6999C157.818 14.7999 157.518 16.7999 157.618 18.8999C157.618 20.3999 157.618 21.8999 157.618 23.2999C157.618 23.8999 157.518 24.1999 156.818 24.1999C154.518 24.1999 154.518 24.2999 154.518 21.9999C154.518 19.7999 154.518 17.4999 154.518 15.2999C154.518 14.0999 154.218 12.8999 153.018 12.3999C151.818 11.8999 150.618 12.2999 149.618 12.9999C148.318 13.8999 147.518 15.0999 147.618 16.7999C147.718 18.8999 147.618 20.9999 147.618 23.0999C147.618 23.8999 147.418 24.1999 146.518 24.1999C144.418 24.1999 144.418 24.1999 144.418 22.0999C144.418 18.2999 144.518 14.5999 144.418 10.7999C144.418 9.59993 144.918 9.49991 145.918 9.49991C146.818 9.49991 147.518 9.49992 147.318 10.6999C147.118 11.1999 147.218 11.5999 147.218 12.3999Z" fill="#1C347A"/>
<path d="M119.818 24.5002C116.418 24.5002 113.618 22.5002 112.618 19.4002C111.618 16.2002 112.718 12.6003 115.318 10.7003C117.918 8.80025 121.818 8.90025 124.318 10.7003C124.418 10.7003 124.418 10.8003 124.518 10.8003C125.118 11.4003 126.218 12.1003 125.918 12.8003C125.618 13.5003 124.318 13.4003 123.518 13.8003C123.218 13.9003 123.118 13.7002 122.918 13.5002C121.818 12.1002 120.318 11.6002 118.518 12.1002C116.818 12.6002 115.918 13.9002 115.618 15.6002C114.918 18.8002 117.118 21.8003 120.118 21.7003C121.118 21.7003 122.018 21.4002 122.518 20.6002C123.218 19.6002 123.918 19.9002 124.718 20.1002C126.418 20.7002 126.518 20.7002 125.318 22.1002C124.018 23.7002 122.118 24.5002 119.818 24.5002Z" fill="#1C347A"/>
<path d="M165.718 24.4998C163.618 24.4998 161.718 23.8999 159.918 22.7999C158.718 21.9999 159.918 21.5998 160.118 20.9998C160.318 20.2998 160.718 20.4999 161.318 20.7999C163.018 21.8999 164.918 22.5998 167.018 22.0998C167.918 21.8998 168.718 21.3998 168.718 20.3998C168.818 19.3998 168.018 18.9999 167.218 18.6999C165.718 18.1999 164.118 17.7999 162.618 17.2999C161.318 16.8999 160.118 16.0998 160.018 14.4998C159.818 12.7998 160.418 11.3998 161.918 10.3998C164.218 8.79984 168.618 9.09984 170.818 10.9998C171.218 11.2998 171.218 11.4998 170.918 11.8998C170.118 13.2998 170.118 13.2998 168.618 12.4998C167.318 11.7998 165.918 11.4999 164.418 11.7999C163.418 11.9999 162.818 12.5998 162.718 13.5998C162.718 14.5998 163.318 14.9999 164.218 15.1999C165.618 15.5999 167.118 15.9998 168.518 16.3998C170.918 17.1998 171.718 18.2999 171.618 20.2999C171.518 22.2999 170.218 23.6999 168.018 24.1999C167.318 24.4999 166.518 24.4998 165.718 24.4998Z" fill="#1C347A"/>
<path d="M198.718 17.2001C198.718 15.8001 198.718 14.3001 198.718 12.9001C198.718 12.3001 198.618 11.9001 197.918 12.0001C196.818 12.2001 196.818 11.6001 196.818 10.8001C196.818 10.0001 196.918 9.40007 197.918 9.60007C198.718 9.70007 198.818 9.30007 198.818 8.60007C198.818 7.60007 198.818 6.60007 198.818 5.60007C198.818 5.00007 198.918 4.80009 199.618 4.80009C201.918 4.70009 201.918 4.70007 201.918 7.00007C201.918 7.10007 201.918 7.20006 201.918 7.40006C201.918 9.60006 201.918 9.70007 204.118 9.60007C205.218 9.60007 205.018 10.2001 205.118 10.9001C205.118 11.6001 205.218 12.1001 204.218 12.1001C202.018 12.1001 202.018 12.1001 202.018 14.3001C202.018 16.1001 202.018 17.8001 202.018 19.6001C202.018 21.4001 202.818 22.0001 204.618 21.5001C205.018 21.4001 205.618 20.7001 205.718 21.7001C205.818 22.4001 206.918 23.4001 205.318 23.9001C203.818 24.4001 202.418 24.7001 200.918 24.2001C199.618 23.8001 198.918 22.9001 198.918 21.5001C198.718 20.1001 198.718 18.7001 198.718 17.2001Z" fill="#1C347A"/>
<path d="M190.318 13.0999C190.318 10.3999 190.318 7.69991 190.318 4.99991C190.318 4.19991 190.518 3.8999 191.418 3.8999C193.518 3.8999 193.518 3.89991 193.518 5.99991C193.518 10.5999 193.518 15.0999 193.518 19.6999C193.518 21.4999 194.118 21.9999 195.818 21.6999C196.418 21.5999 196.518 21.6999 196.618 22.2999C196.918 24.0999 197.018 24.0999 195.118 24.4999C194.518 24.5999 193.818 24.6999 193.218 24.5999C191.418 24.4999 190.318 23.3999 190.318 21.5999C190.318 18.5999 190.318 15.8999 190.318 13.0999Z" fill="#1C347A"/>
<path d="M23.018 23.5002C22.418 23.4002 21.918 23.0002 21.918 22.3002C21.918 21.6002 22.418 21.2002 23.118 21.2002C23.718 21.2002 24.218 21.6002 24.218 22.4002C24.218 23.0002 23.718 23.4002 23.018 23.5002Z" fill="white"/>
<path d="M10.618 22.1002C10.618 23.0002 10.318 23.5002 9.51804 23.5002C8.81804 23.5002 8.41803 23.1002 8.41803 22.4002C8.41803 21.7002 8.91804 21.3002 9.51804 21.2002C10.218 21.2002 10.718 21.5002 10.618 22.1002Z" fill="white"/>
<path d="M17.518 22.3002C17.418 22.9002 17.118 23.4002 16.418 23.4002C15.718 23.4002 15.318 23.0002 15.318 22.3002C15.318 21.6002 15.818 21.2002 16.418 21.2002C17.018 21.2002 17.418 21.6002 17.518 22.3002Z" fill="white"/>
<path d="M63.418 15.8002C62.218 15.8002 61.018 15.8002 59.818 15.8002C59.218 15.8002 59.118 15.7002 59.218 15.1002C59.718 13.1002 61.318 11.8002 63.318 11.7002C65.318 11.7002 67.118 13.0002 67.618 14.8002C67.818 15.6002 67.718 15.9002 66.818 15.8002C65.718 15.8002 64.518 15.8002 63.418 15.8002Z" fill="white"/>
<path d="M134.618 21.8C131.918 21.8 129.918 18.9 130.518 16C130.918 13.7 132.718 12.1 134.718 12C136.718 12 138.418 13.6 138.918 15.9C139.518 19 137.418 21.9 134.618 21.8Z" fill="white"/>
<path d="M78.818 17.1001C79.118 17.1001 79.718 17.1001 80.118 17.3001C80.718 17.5001 81.618 17.3001 81.718 18.1001C81.818 19.0001 82.018 20.0001 81.118 20.8001C79.918 22.0001 78.618 22.4001 77.018 22.2001C75.718 22.0001 74.818 21.1001 74.718 20.0001C74.618 18.8001 75.318 17.9001 76.618 17.5001C77.318 17.2001 78.018 17.1001 78.818 17.1001Z" fill="white"/>
</svg>
