<svg width="272" height="205" viewBox="0 0 272 205" fill="none" xmlns="http://www.w3.org/2000/svg">
<path d="M271.634 201.529C271.769 175.28 268.33 149.031 261.586 124.771C254.843 100.411 244.795 78.1396 232.184 59.4473C219.641 40.7549 204.468 25.8409 188.013 15.6993C171.559 5.55769 153.688 0.387482 135.818 0.288055C117.947 0.288055 100.076 5.55769 83.622 15.6993C67.1676 25.8409 51.9944 40.7549 39.4512 59.4473C26.9081 78.1396 16.7926 100.411 10.049 124.771C3.30539 149.131 -0.0664445 175.379 0.000991769 201.529C0.135864 175.28 3.71002 149.23 10.656 125.069C17.467 100.908 27.5824 78.935 40.193 60.541C52.7362 42.1469 67.7071 27.3323 84.0941 17.3896C100.414 7.44682 118.149 2.2766 135.818 2.37602C153.486 2.37602 171.222 7.44682 187.541 17.3896C203.928 27.3323 218.899 42.1469 231.442 60.541C243.986 78.935 254.101 101.008 260.979 125.069C267.925 149.131 271.5 175.28 271.634 201.529Z" fill="#BB6BD9" fill-opacity="0.2"/>
<path d="M263.811 204.572C263.946 179.914 260.709 155.057 254.37 132.189C248.031 109.221 238.523 88.2419 226.654 70.6432C214.785 53.0446 200.556 38.926 184.978 29.3809C169.468 19.8359 152.609 14.964 135.75 14.8645C118.891 14.8645 102.099 19.8359 86.5213 29.3809C71.0109 38.926 56.7144 52.9452 44.8456 70.6432C32.9768 88.2419 23.5358 109.32 17.1293 132.189C10.7903 155.156 7.62081 179.914 7.68825 204.572C7.82312 179.914 11.195 155.256 17.7363 132.586C24.2102 109.818 33.7186 89.0373 45.5874 71.737C57.4562 54.4366 71.5504 40.5168 86.9933 31.0712C102.369 21.6256 119.093 16.8531 135.75 16.8531C152.407 16.8531 169.063 21.6256 184.506 31.0712C199.949 40.4174 214.043 54.4366 225.912 71.737C237.781 89.0373 247.289 109.917 253.763 132.586C260.305 155.256 263.744 179.814 263.811 204.572Z" fill="#BB6BD9" fill-opacity="0.2"/>
<path d="M256.057 204.572C256.192 181.405 253.157 158.139 247.222 136.564C241.221 114.988 232.319 95.3012 221.192 78.6969C210.065 62.0925 196.645 48.8687 182.079 39.9202C167.445 30.9718 151.665 26.2987 135.818 26.2987C119.97 26.2987 104.19 30.9718 89.5564 39.9202C74.9228 48.8687 61.5704 62.0925 50.4434 78.6969C39.3164 95.2018 30.4148 114.988 24.413 136.564C18.4786 158.139 15.4439 181.405 15.5788 204.572C15.7136 181.405 18.8831 158.239 25.0199 136.961C31.0891 115.584 40.0582 96.0966 51.1852 79.7906C62.3122 63.5839 75.5971 50.4595 90.0285 41.6105C104.527 32.7615 120.173 28.2872 135.818 28.2872C151.463 28.2872 167.108 32.7615 181.607 41.6105C196.106 50.3601 209.323 63.4845 220.45 79.7906C231.577 96.0966 240.546 115.584 246.616 136.961C252.752 158.239 255.922 181.306 256.057 204.572Z" fill="#BB6BD9" fill-opacity="0.2"/>
<path d="M248.301 204.572C248.436 182.897 245.603 161.123 240.074 140.939C234.476 120.755 226.182 102.262 215.729 86.8504C205.344 71.3398 192.801 59.0108 179.111 50.5594C165.422 42.1081 150.653 37.8328 135.817 37.8328C120.981 37.8328 106.213 42.2076 92.5231 50.5594C78.8335 58.9113 66.2903 71.3398 55.9051 86.8504C45.52 102.361 37.1579 120.855 31.5607 140.939C25.9634 161.123 23.1985 182.897 23.3334 204.572C23.4683 182.897 26.4355 161.222 32.1676 141.337C37.8323 121.352 46.1943 103.156 56.6469 87.9441C67.0321 72.7317 79.4404 60.5022 92.9951 52.2497C106.55 43.9973 121.183 39.8213 135.817 39.8213C150.451 39.8213 165.085 43.9973 178.639 52.2497C192.194 60.5022 204.535 72.7317 214.987 87.9441C225.373 103.156 233.735 121.451 239.467 141.337C245.199 161.222 248.166 182.897 248.301 204.572Z" fill="#BB6BD9" fill-opacity="0.2"/>
<path d="M240.549 204.572C240.684 184.389 238.054 164.105 232.929 145.314C227.736 126.522 219.981 109.321 210.27 94.904C200.56 80.4871 188.893 68.9535 176.215 61.0987C163.47 53.244 149.713 49.2669 135.888 49.1675C122.131 49.1675 108.307 53.244 95.5612 61.0987C82.8158 68.9535 71.1493 80.3876 61.5059 94.904C51.7951 109.321 44.0398 126.522 38.8472 145.314C33.6546 164.105 31.0921 184.389 31.227 204.572C31.3619 184.389 34.1267 164.205 39.5216 145.711C44.7816 127.118 52.6043 110.116 62.3151 95.9977C72.0259 81.879 83.5575 70.4449 96.1681 62.789C108.779 55.1331 122.401 51.156 136.023 51.2554C149.645 51.2554 163.267 55.1331 175.878 62.789C188.488 70.4449 200.02 81.879 209.731 95.9977C219.442 110.116 227.197 127.118 232.524 145.711C237.582 164.205 240.414 184.389 240.549 204.572Z" fill="#BB6BD9" fill-opacity="0.2"/>
<path d="M232.726 204.572C232.861 185.88 230.433 167.088 225.645 149.688C220.857 132.289 213.641 116.38 204.672 102.958C195.703 89.5349 184.913 78.8962 173.112 71.638C161.311 64.3799 148.565 60.701 135.82 60.6016C123.074 60.6016 110.261 64.3799 98.5275 71.638C86.7262 78.8962 75.9364 89.5349 66.9674 102.958C57.9983 116.281 50.8501 132.289 45.9947 149.688C41.2067 167.088 38.8464 185.88 38.9139 204.572C39.0488 185.88 41.6113 167.188 46.6016 150.086C51.5244 132.885 58.7401 117.176 67.7092 104.051C76.6782 91.0264 87.3331 80.3876 98.9996 73.3283C110.666 66.269 123.277 62.5901 135.82 62.5901C148.43 62.5901 161.041 66.1695 172.64 73.3283C184.307 80.3876 194.961 90.9269 203.931 104.051C212.9 117.176 220.115 132.885 225.038 150.086C230.028 167.188 232.658 185.88 232.726 204.572Z" fill="#BB6BD9" fill-opacity="0.2"/>
<path d="M224.97 204.572C225.105 187.371 222.88 170.071 218.496 154.063C214.113 138.055 207.504 123.34 199.209 111.111C190.982 98.7817 181.002 88.9384 170.144 82.2768C159.287 75.6151 147.553 72.1352 135.819 72.1352C124.085 72.1352 112.284 75.6151 101.494 82.2768C90.6369 88.9384 80.7238 98.7817 72.4291 111.111C64.2019 123.44 57.5932 138.055 53.1424 154.063C48.759 170.071 46.5336 187.371 46.6685 204.572C46.8034 187.371 49.1636 170.27 53.7493 154.461C58.2676 138.652 64.8763 124.235 73.1709 112.204C81.3982 100.174 91.2439 90.5292 101.966 83.967C112.689 77.4048 124.288 74.1237 135.819 74.1237C147.418 74.1237 159.017 77.4048 169.672 83.967C180.395 90.4298 190.173 100.174 198.468 112.204C206.695 124.235 213.371 138.652 217.889 154.461C222.475 170.27 224.835 187.371 224.97 204.572Z" fill="#BB6BD9" fill-opacity="0.2"/>
<path d="M217.215 204.572C217.35 188.863 215.327 173.054 211.348 158.438C207.302 143.822 201.3 130.4 193.747 119.164C186.194 107.929 177.158 98.9805 167.244 92.816C157.331 86.751 146.609 83.5693 135.887 83.5693C125.164 83.5693 114.442 86.751 104.529 92.816C94.6155 98.8811 85.5117 107.83 78.0263 119.164C70.4734 130.4 64.4715 143.822 60.4253 158.438C56.4466 173.054 54.4235 188.863 54.5584 204.572C54.6933 188.863 56.8512 173.253 61.0323 158.836C65.1459 144.419 71.2152 131.294 78.768 120.258C86.3209 109.321 95.2225 100.472 105.001 94.5063C114.779 88.5407 125.367 85.5579 135.887 85.5579C146.474 85.5579 156.994 88.5407 166.772 94.5063C176.551 100.472 185.52 109.321 193.005 120.258C200.558 131.195 206.56 144.419 210.741 158.836C214.922 173.253 217.08 188.863 217.215 204.572Z" fill="#BB6BD9" fill-opacity="0.2"/>
<path d="M209.458 204.572C209.593 190.354 207.772 176.136 204.198 162.912C200.557 149.688 195.094 137.558 188.283 127.317C181.472 117.076 173.245 109.023 164.276 103.455C155.307 97.8868 145.596 95.1029 135.885 95.0034C126.174 95.0034 116.464 97.8868 107.494 103.455C98.5254 108.923 90.2982 117.076 83.4872 127.317C76.6761 137.459 71.2138 149.688 67.5722 162.912C63.9306 176.136 62.1098 190.454 62.3121 204.572C62.447 190.354 64.4026 176.236 68.1791 163.211C71.8881 150.186 77.4179 138.254 84.2289 128.411C91.04 118.568 99.1323 110.514 107.966 105.145C116.801 99.776 126.377 96.992 135.885 97.0914C145.461 97.0914 154.97 99.776 163.804 105.145C172.638 110.514 180.73 118.468 187.541 128.411C194.352 138.354 199.815 150.186 203.591 163.211C207.3 176.236 209.256 190.354 209.458 204.572Z" fill="#BB6BD9" fill-opacity="0.2"/>
<path d="M201.636 204.572C201.771 191.845 200.152 179.118 196.916 167.287C193.679 155.455 188.823 144.617 182.686 135.47C176.617 126.322 169.199 119.064 161.174 114.093C153.149 109.122 144.45 106.636 135.751 106.536C127.052 106.536 118.352 109.122 110.327 114.093C102.302 119.064 94.9519 126.322 88.8152 135.47C82.7459 144.617 77.823 155.455 74.5861 167.287C71.3491 179.118 69.7306 191.945 69.8655 204.572C70.0678 179.118 77.2836 154.162 89.4895 136.464C95.5588 127.615 102.774 120.456 110.732 115.684C118.622 110.911 127.186 108.426 135.683 108.426C144.18 108.426 152.745 110.812 160.635 115.684C168.525 120.456 175.741 127.615 181.877 136.464C194.286 154.162 201.434 179.118 201.636 204.572Z" fill="#BB6BD9" fill-opacity="0.2"/>
<path d="M193.88 204.572C194.015 193.337 192.599 182.102 189.767 171.662C186.934 161.222 182.618 151.578 177.223 143.524C171.829 135.47 165.355 129.008 158.274 124.633C151.193 120.258 143.505 117.971 135.818 117.971C128.13 117.971 120.442 120.258 113.361 124.633C106.28 129.008 99.7391 135.371 94.4116 143.524C89.0167 151.578 84.7683 161.222 81.8685 171.662C79.0362 182.102 77.62 193.436 77.7549 204.572C77.9572 182.102 84.3636 160.128 95.1534 144.618C100.548 136.862 106.887 130.598 113.833 126.323C120.779 122.048 128.332 119.96 135.818 119.96C143.303 119.96 150.856 122.048 157.802 126.323C164.748 130.499 171.087 136.862 176.482 144.618C187.339 160.128 193.678 182.102 193.88 204.572Z" fill="#BB6BD9" fill-opacity="0.2"/>
<path d="M186.127 204.572C186.262 194.828 185.048 185.085 182.62 176.037C180.125 166.989 176.416 158.637 171.763 151.677C167.11 144.618 161.445 139.149 155.308 135.271C149.172 131.493 142.496 129.505 135.819 129.505C129.143 129.505 122.467 131.493 116.33 135.271C110.194 139.05 104.529 144.618 99.8758 151.677C95.2227 158.637 91.5137 166.989 89.0186 176.037C86.5909 185.085 85.377 194.928 85.5119 204.572C85.7142 185.184 91.244 166.094 100.618 152.671C105.271 146.01 110.801 140.541 116.802 136.862C122.804 133.184 129.278 131.394 135.819 131.394C142.293 131.394 148.835 133.184 154.836 136.862C160.838 140.442 166.368 145.91 171.021 152.671C180.395 166.094 185.925 185.085 186.127 204.572Z" fill="#BB6BD9" fill-opacity="0.2"/>
<path d="M178.37 204.572C178.505 196.32 177.493 188.067 175.47 180.411C173.38 172.756 170.277 165.696 166.299 159.731C162.387 153.765 157.599 149.092 152.407 145.811C147.214 142.629 141.55 140.939 135.885 140.939C130.22 140.939 124.623 142.629 119.363 145.811C114.17 148.992 109.382 153.765 105.471 159.731C101.56 165.696 98.3904 172.756 96.2998 180.411C94.2767 188.067 93.1977 196.419 93.4 204.572C93.6024 188.167 98.3229 172.159 106.213 160.824C110.124 155.157 114.777 150.583 119.835 147.501C124.893 144.419 130.355 142.828 135.885 142.927C141.347 142.927 146.81 144.419 151.935 147.501C156.993 150.583 161.646 155.157 165.557 160.824C173.447 172.159 178.1 188.167 178.37 204.572Z" fill="#BB6BD9" fill-opacity="0.2"/>
<path d="M170.55 204.572C170.685 197.91 169.876 191.149 168.19 184.786C166.504 178.522 163.942 172.656 160.705 167.784C154.298 157.94 145.059 152.372 135.753 152.372C126.514 152.372 117.276 158.04 110.802 167.784C107.565 172.656 105.002 178.422 103.316 184.786C101.63 191.05 100.821 197.811 100.956 204.572C101.226 191.149 105.07 178.124 111.476 168.877C114.713 164.304 118.49 160.525 122.603 158.04C126.717 155.554 131.168 154.262 135.686 154.262C140.137 154.262 144.587 155.554 148.768 158.04C152.882 160.525 156.658 164.304 159.895 168.877C166.504 178.124 170.348 191.149 170.55 204.572Z" fill="#BB6BD9" fill-opacity="0.2"/>
<path d="M162.797 204.572C162.932 199.402 162.325 194.132 161.043 189.161C159.762 184.289 157.807 179.715 155.244 175.937C152.749 172.158 149.714 169.076 146.342 166.988C143.038 164.9 139.396 163.906 135.755 163.807C132.113 163.807 128.539 164.9 125.167 166.988C121.863 169.076 118.828 172.059 116.266 175.937C113.771 179.715 111.815 184.289 110.466 189.161C109.185 194.032 108.578 199.302 108.713 204.572C108.983 194.132 112.017 184.09 117.008 177.03C121.998 169.872 128.809 165.795 135.687 165.795C142.566 165.795 149.444 169.872 154.367 177.03C159.492 184.09 162.594 194.132 162.797 204.572Z" fill="#BB6BD9" fill-opacity="0.2"/>
<path d="M155.039 204.572C155.174 200.893 154.77 197.115 153.893 193.536C153.016 190.056 151.6 186.775 149.779 183.991C148.026 181.207 145.8 179.019 143.44 177.528C141.08 176.037 138.45 175.241 135.887 175.241C133.257 175.241 130.695 176.037 128.334 177.528C125.974 179.019 123.749 181.207 121.995 183.991C120.175 186.775 118.826 189.956 117.882 193.536C117.005 197.115 116.601 200.794 116.735 204.572C117.005 197.115 119.231 190.155 122.737 185.085C126.244 180.113 131.099 177.23 135.955 177.23C140.81 177.23 145.598 180.113 149.172 185.085C152.544 190.056 154.769 197.115 155.039 204.572Z" fill="#BB6BD9" fill-opacity="0.2"/>
<path d="M147.282 204.572C147.552 200.197 146.473 195.524 144.315 192.143C143.236 190.453 141.954 189.161 140.471 188.166C139.055 187.271 137.436 186.774 135.885 186.774C134.334 186.774 132.716 187.271 131.299 188.166C129.883 189.061 128.534 190.453 127.455 192.143C125.297 195.524 124.218 200.197 124.488 204.572C124.758 200.197 126.107 196.12 128.197 193.237C130.288 190.354 133.053 188.763 135.885 188.763C138.717 188.763 141.482 190.354 143.573 193.237C145.663 196.12 147.012 200.197 147.282 204.572Z" fill="#BB6BD9" fill-opacity="0.2"/>
</svg>
